<svg width="44" height="44" viewBox="0 0 44 44" fill="none" xmlns="http://www.w3.org/2000/svg">
<mask id="mask0_51_7160" style="mask-type:alpha" maskUnits="userSpaceOnUse" x="0" y="0" width="44" height="44">
<rect width="44" height="44" fill="#D9D9D9"/>
</mask>
<g mask="url(#mask0_51_7160)">
<path d="M3.66748 34.834V23.3757C3.66748 22.5914 3.82535 21.8632 4.14108 21.191C4.45684 20.5187 4.91008 19.9535 5.50081 19.4951V14.2396C5.50081 12.8136 5.9897 11.6118 6.96748 10.634C7.94526 9.65625 9.1471 9.16736 10.573 9.16736H18.5175C19.1999 9.16736 19.8365 9.3125 20.4272 9.60278C21.018 9.89305 21.5425 10.2877 22.0008 10.7868C22.4591 10.2877 22.9786 9.89305 23.5591 9.60278C24.1397 9.3125 24.7712 9.16736 25.4536 9.16736H33.3981C34.824 9.16736 36.0309 9.65625 37.0189 10.634C38.0068 11.6118 38.5008 12.8136 38.5008 14.2396V19.4951C39.0915 19.9535 39.5448 20.5187 39.8605 21.191C40.1763 21.8632 40.3341 22.5914 40.3341 23.3757V34.834H37.2786V31.1674H6.72301V34.834H3.66748ZM23.5286 18.4868H35.4453V14.2396C35.4453 13.659 35.2492 13.1777 34.8571 12.7958C34.4649 12.4139 33.9786 12.2229 33.3981 12.2229H25.3619C24.8425 12.2229 24.407 12.424 24.0557 12.8264C23.7043 13.2287 23.5286 13.6998 23.5286 14.2396V18.4868ZM8.55634 18.4868H20.4731V14.2396C20.4731 13.6998 20.2974 13.2287 19.946 12.8264C19.5946 12.424 19.1592 12.2229 18.6397 12.2229H10.573C10.0128 12.2229 9.53668 12.419 9.14456 12.8111C8.75241 13.2032 8.55634 13.6794 8.55634 14.2396V18.4868ZM6.72301 28.1118H37.2786V23.3757C37.2786 22.8562 37.1029 22.4208 36.7515 22.0694C36.4002 21.7181 35.9647 21.5424 35.4453 21.5424H8.55634C8.03689 21.5424 7.60148 21.7181 7.25009 22.0694C6.8987 22.4208 6.72301 22.8562 6.72301 23.3757V28.1118Z" fill="#314351"/>
</g>
</svg>
