<svg width="20" height="21" viewBox="0 0 20 21" fill="none" xmlns="http://www.w3.org/2000/svg">
<path d="M4 15.0344H5.5V13.5344H14.5V15.0344H16V10.8844C16 10.3844 15.8625 9.93859 15.5875 9.54692C15.3125 9.15526 14.95 8.86776 14.5 8.68442V7.03442C14.5 6.48442 14.3042 6.01359 13.9125 5.62192C13.5208 5.23026 13.05 5.03442 12.5 5.03442H7.5C6.95 5.03442 6.47917 5.23026 6.0875 5.62192C5.69583 6.01359 5.5 6.48442 5.5 7.03442V8.68442C5.05 8.86776 4.6875 9.15526 4.4125 9.54692C4.1375 9.93859 4 10.3844 4 10.8844V15.0344ZM5.5 12.0344V10.8844C5.5 10.6511 5.58333 10.4511 5.75 10.2844C5.91667 10.1178 6.11667 10.0344 6.35 10.0344H13.65C13.8833 10.0344 14.0833 10.1178 14.25 10.2844C14.4167 10.4511 14.5 10.6511 14.5 10.8844V12.0344H5.5ZM7 8.53442V6.53442H13V8.53442H7ZM2 20.0344C1.45 20.0344 0.979167 19.8386 0.5875 19.4469C0.195833 19.0553 0 18.5844 0 18.0344V2.03442C0 1.48442 0.195833 1.01359 0.5875 0.621924C0.979167 0.230257 1.45 0.0344238 2 0.0344238H18C18.55 0.0344238 19.0208 0.230257 19.4125 0.621924C19.8042 1.01359 20 1.48442 20 2.03442V18.0344C20 18.5844 19.8042 19.0553 19.4125 19.4469C19.0208 19.8386 18.55 20.0344 18 20.0344H2ZM2 18.0344H18V2.03442H2V18.0344Z" fill="#1C1B1F"/>
</svg>
