<svg width="135" height="24" viewBox="0 0 135 24" fill="none" xmlns="http://www.w3.org/2000/svg">
<g clip-path="url(#clip0_51_7812)">
<path d="M9.98389 17.7422L3.79639 21.4922L5.43701 14.4609L-0.000488281 9.72656L7.17139 9.11719L9.98389 2.50781L12.7964 9.11719L19.9683 9.72656L14.5308 14.4609L16.1714 21.4922L9.98389 17.7422Z" fill="black"/>
</g>
<g clip-path="url(#clip1_51_7812)">
<path d="M37.6245 17.7422L31.437 21.4922L33.0776 14.4609L27.6401 9.72656L34.812 9.11719L37.6245 2.50781L40.437 9.11719L47.6089 9.72656L42.1714 14.4609L43.812 21.4922L37.6245 17.7422Z" fill="black"/>
</g>
<g clip-path="url(#clip2_51_7812)">
<path d="M65.2769 17.7422L59.0894 21.4922L60.73 14.4609L55.2925 9.72656L62.4644 9.11719L65.2769 2.50781L68.0894 9.11719L75.2612 9.72656L69.8237 14.4609L71.4644 21.4922L65.2769 17.7422Z" fill="black"/>
</g>
<g clip-path="url(#clip3_51_7812)">
<path d="M92.9175 17.7422L86.73 21.4922L88.3706 14.4609L82.9331 9.72656L90.105 9.11719L92.9175 2.50781L95.73 9.11719L102.902 9.72656L97.4644 14.4609L99.105 21.4922L92.9175 17.7422Z" fill="black"/>
</g>
<g clip-path="url(#clip4_51_7812)">
<path d="M120.571 17.7422L114.384 21.4922L116.024 14.4609L110.587 9.72656L117.759 9.11719L120.571 2.50781L123.384 9.11719L130.556 9.72656L125.118 14.4609L126.759 21.4922L120.571 17.7422Z" fill="black"/>
</g>
<defs>
<clipPath id="clip0_51_7812">
<rect width="24" height="24" fill="white" transform="matrix(1 0 0 -1 0 24)"/>
</clipPath>
<clipPath id="clip1_51_7812">
<rect width="24" height="24" fill="white" transform="matrix(1 0 0 -1 27.6406 24)"/>
</clipPath>
<clipPath id="clip2_51_7812">
<rect width="24" height="24" fill="white" transform="matrix(1 0 0 -1 55.293 24)"/>
</clipPath>
<clipPath id="clip3_51_7812">
<rect width="24" height="24" fill="white" transform="matrix(1 0 0 -1 82.9336 24)"/>
</clipPath>
<clipPath id="clip4_51_7812">
<rect width="24" height="24" fill="white" transform="matrix(1 0 0 -1 110.587 24)"/>
</clipPath>
</defs>
</svg>
