<svg width="91" height="29" viewBox="0 0 91 29" fill="none" xmlns="http://www.w3.org/2000/svg">
<path fill-rule="evenodd" clip-rule="evenodd" d="M85.4279 0.467376L84.914 0.561706L84.4597 0.816898L84.0053 1.07209L83.7487 1.34904L83.492 1.62598L83.3031 1.99008L83.1142 2.35419L83.1109 3.32254L83.1075 4.29089L83.2904 4.63267L83.4731 4.97444L83.8818 5.44871L84.2906 5.92286L85.2871 6.58806L86.2836 7.25326L86.6202 7.42392L86.957 7.59469L87.5977 8.22127L88.2384 8.84786L88.3734 9.389L88.5084 9.93014L88.3821 10.4317L88.2557 10.9335L87.9452 11.2309L87.6346 11.5285L87.0001 11.6617L86.3654 11.7947L85.7355 11.6538L85.1055 11.5128L84.5966 11.0648L84.0876 10.6168L83.6072 9.64692L83.1266 8.67697H83.0087H82.8907L82.9632 9.61684L83.0355 10.5567L83.1084 11.3827L83.1813 12.2086H83.3328H83.4845L83.6064 11.9808L83.7283 11.7529H83.8554H83.9824L84.5721 12.0415L85.1619 12.3299L86.1784 12.349L87.195 12.3681L87.8216 12.2141L88.4481 12.0602L88.733 11.886L89.0178 11.7119L89.3883 11.368L89.7588 11.0241L89.9864 10.4159L90.214 9.80767V9.00769V8.20783L90.1 8.27824L89.9861 8.34864V8.01405V7.67957L89.8152 7.53773L89.6443 7.3959L89.6413 7.2675L89.6382 7.139L89.248 6.71941L88.8578 6.29983L88.2542 5.85496L87.6507 5.41008L86.9671 5.03277L86.2836 4.65557L86.2457 4.55862L86.2076 4.46178H86.07H85.9324L85.5182 4.07114L85.1041 3.6806L84.9818 3.45207L84.8595 3.22354V2.65187V2.08008L84.991 1.79163L85.1225 1.50317L85.5966 1.27362L86.0707 1.04406H86.5511H87.0314L87.455 1.22099L87.8785 1.39791L88.2032 1.70516L88.5279 2.01241L88.8517 2.47905L89.1756 2.94579L89.2516 3.24917L89.3279 3.55255L89.4391 3.62125L89.5502 3.69006L89.6496 3.59072L89.7489 3.49138L89.6219 2.01139L89.4949 0.531402L89.4552 0.483442L89.4156 0.435592L89.1401 0.694314L88.8647 0.953149L88.2007 0.703771L87.5368 0.454276L86.7393 0.413721L85.9418 0.373047L85.4279 0.467376ZM28.1107 0.787732L27.9869 1.10102L27.8852 1.29879L27.7836 1.49668V1.6736V1.85064L27.5557 2.29722L27.3279 2.74381V2.9205V3.0972L27.0907 3.63708L26.8536 4.17697L26.7489 4.37474L26.6444 4.57263V4.79524V5.01796L26.553 5.07446L26.4616 5.13086L26.3045 5.70777L26.1474 6.28457H26.0541H25.9608V6.51401V6.74334L25.8619 6.94122L25.7629 7.139L25.5621 7.70862L25.3612 8.27824L25.052 9.13267L24.7428 9.9871L24.3631 10.7736L23.9833 11.5603L23.6619 11.6816L23.3406 11.8028V11.9429V12.083L25.0209 12.1174L26.7013 12.1517L26.8467 12.1098L26.9919 12.068L26.8611 11.9105L26.7304 11.7529H26.4179H26.1055L25.8053 11.5168L25.5051 11.2807V10.8128V10.345L25.6343 9.93822L25.7635 9.5314L25.9761 8.97511L26.1887 8.4187V8.21284V8.00687L26.3157 7.92838L26.4426 7.84988L28.3295 7.86207L30.2163 7.87426L30.2968 7.96233L30.3773 8.05039L30.6259 8.79089L30.8745 9.5314L30.9715 9.75925L31.0686 9.9871L31.192 10.3743L31.3152 10.7616V11.1294V11.4972L31.1477 11.6363L30.9802 11.7752L30.578 11.7866L30.176 11.798V11.9748V12.1517H32.3975H34.619V11.9523V11.7529H34.411H34.2031L33.9666 11.4966L33.73 11.2403L33.5036 10.7276L33.2771 10.2149L33.0814 9.70229L32.8858 9.18963L32.6823 8.56305L32.4789 7.93646L32.3033 7.48077L32.1277 7.02507L31.7143 5.82887L31.3009 4.63267L31.0802 4.03457L30.8595 3.43646L30.6187 2.7814L30.3779 2.12634L30.2287 1.78457L30.0796 1.44279L29.9982 1.10102L29.9167 0.759251L29.8046 0.616845L29.6924 0.474441H28.9634H28.2344L28.1107 0.787732ZM51.1043 0.559883L51.0571 0.645326L50.9019 1.18647L50.7465 1.7276H50.6575H50.5684V1.9403V2.15288L50.3514 2.70929L50.1342 3.26558L49.8957 3.92064L49.657 4.57571L49.4124 5.23077L49.1679 5.88583L49.0276 6.2276L48.8872 6.56938L48.6573 7.25292L48.4273 7.93646L48.1357 8.73393L47.844 9.5314L47.6148 10.1468L47.3855 10.7622L47.077 11.2076L46.7683 11.6528L46.4469 11.7171L46.1254 11.7814V11.9665L46.1252 12.1517L47.9481 12.1273L49.771 12.1029L49.7709 12.0418V11.9808V11.8668V11.7529H49.3888H49.0067L48.6909 11.4602L48.375 11.1675L48.4474 10.6397L48.5197 10.1117L48.6488 9.70764L48.7777 9.30355L48.8373 9.13267L48.8969 8.96178L49.0848 8.44912L49.2727 7.93646L51.1345 7.8795L52.9962 7.82254L53.1368 7.93646L53.2774 8.05039L53.4474 8.44912L53.6173 8.84786L53.9777 9.99906L54.338 11.1501L54.2008 11.4516L54.0635 11.7529L53.7114 11.7664L53.3595 11.7799L53.2741 11.7664L53.1887 11.7529V11.9523L53.1888 12.1517L55.3247 12.1356L57.4608 12.1196L57.4919 11.9647L57.5231 11.8099L57.1883 11.6622L56.8535 11.5145L56.6865 11.2595L56.5193 11.0044L55.8793 9.30367L55.2393 7.6029V7.45092V7.29883L55.0114 6.8273L54.7836 6.35565V6.17201V5.98836L54.6895 5.88014L54.5954 5.77191L54.4411 5.25925L54.2869 4.74659L54.2144 4.63267L54.142 4.51874L53.7691 3.3795L53.3961 2.24026L53.3039 2.01241L53.2117 1.78457L53.0747 1.38583L52.9378 0.987099L52.8161 0.73077L52.6945 0.474441H51.923H51.1515L51.1043 0.559883ZM71.6042 1.49976L71.5357 2.46811L71.4613 3.00925L71.3869 3.55039H71.5448H71.7027L71.8542 3.18014L72.0057 2.80988L72.2271 2.35419L72.4484 1.89838L72.8637 1.61368L73.279 1.32887L74.2746 1.28945L75.2702 1.24992L75.3876 1.46934L75.5049 1.68864L75.4757 6.2366L75.4464 10.7846L75.2629 11.2049L75.0794 11.6254L74.6435 11.7093L74.2076 11.7931L74.0083 11.78L73.8089 11.767V11.9594L73.8088 12.1517H76.486H79.1632L79.1633 11.9766V11.8013L78.7931 11.7759L78.4228 11.7505L78.1193 11.6281L77.8158 11.5055L77.6905 11.202L77.5652 10.8985L77.5953 6.11368L77.6254 1.32887L78.3916 1.29526L79.1578 1.26166L79.6103 1.38344L80.0628 1.50534L80.4105 1.85303L80.7583 2.20084V2.41046V2.61997L80.8437 2.65802L80.9292 2.69596L81.1464 3.12317L81.3638 3.55039H81.4597H81.5557L81.5482 3.2371L81.5406 2.92381L81.4047 1.74276L81.2686 0.561706L76.4707 0.546554L71.6727 0.531402L71.6042 1.49976ZM0.555743 0.747177V0.930137H1.05826H1.56078L1.85117 1.27521L2.14156 1.6204L2.20878 1.98724L2.27588 2.35419L2.2417 6.70358L2.20764 11.053L1.9684 11.3745L1.72905 11.696L1.28486 11.7529L0.840553 11.8099V11.962V12.1141L3.6727 12.1695L6.50486 12.225L7.31827 12.0908L8.13169 11.9567L8.70131 11.676L9.27093 11.3953L9.64141 11.0388L10.012 10.6824L10.2395 10.0741L10.4671 9.46589V9.0315V8.597L10.3367 8.20977L10.2064 7.82254L9.8295 7.35431L9.45264 6.88608L8.73526 6.54078L8.01777 6.19559L7.80894 6.1261L7.60012 6.0566L7.6433 5.92696L7.68648 5.79731L8.17304 5.60717L8.65961 5.41692L9.11292 4.99005L9.56611 4.56317L9.67491 4.27722L9.78359 3.99127V3.14425V2.29722H9.66967H9.55574V2.12736V1.95739L9.20736 1.6245L8.85898 1.29162L8.43837 1.10535L8.01777 0.919088L7.78992 0.785566L7.56207 0.652048L4.05891 0.60819L0.555743 0.564213V0.747177ZM11.7203 0.748087V0.930137L11.9766 0.938909L12.233 0.947569L12.4423 0.987214L12.6516 1.02686L12.8625 1.21768L13.0734 1.4085L13.1739 1.93825L13.2744 2.46811L13.2621 6.6882L13.2497 10.9084L13.0205 11.3021L12.7913 11.696L12.3128 11.7309L11.8342 11.766V11.9588V12.1517L14.1981 12.1304L16.5621 12.109V11.9595V11.8099L16.1693 11.7529L15.7764 11.696L15.5635 11.3306L15.3506 10.9652L15.2842 9.09017L15.2177 7.2151L15.746 7.13581L16.2743 7.05663L16.5576 7.12772L16.8408 7.19881L17.3757 8.30808L17.9105 9.41748L18.1031 9.70229L18.2959 9.9871L18.853 10.8305L19.4102 11.6739L19.8545 11.9982L20.2988 12.3225L21.1076 12.3111L21.9165 12.2999L22.2007 12.2207L22.4849 12.1416L22.5223 11.9473L22.5598 11.7529H22.3991H22.2383L21.7708 11.254L21.3032 10.7552L20.9492 10.2572L20.5951 9.75925L20.1827 9.13267L19.7704 8.50608L19.1746 7.69677L18.5788 6.88745L18.6527 6.77945L18.7266 6.67145L19.1823 6.46308L19.638 6.25472L20.1115 5.87205L20.585 5.48938L20.8442 4.9537L21.1035 4.41803L21.098 3.53581L21.0923 2.65346L20.8035 2.16211L20.5147 1.67064L20.17 1.41694L19.8253 1.16334L19.219 0.915667L18.6127 0.668114L15.1665 0.617076L11.7203 0.566149V0.748087ZM35.713 0.683264L35.6406 0.800491L35.728 0.852214L35.8152 0.903822L36.3039 0.984707L36.7925 1.06559L36.971 1.3381L37.1495 1.6106L37.2463 2.77981L37.3433 3.94912L37.3482 5.95327L37.3532 7.95743L37.2777 9.53243L37.2021 11.1073L36.9074 11.4339L36.6127 11.7606L36.1807 11.7754L35.7487 11.7902L35.7836 11.971L35.8183 12.1517H39.0637H42.3089L42.9355 11.9918L43.5621 11.8319L44.0178 11.5477L44.4735 11.2636L44.7832 10.9434L45.0931 10.623L45.2674 10.2057L45.4418 9.78841V9.02239V8.25625L45.2679 7.90741L45.0938 7.55869L44.7267 7.19208L44.3595 6.82548L43.5336 6.42845L42.7076 6.03143V5.88743V5.74343L43.0323 5.67849L43.357 5.61355L43.8583 5.23544L44.3595 4.85733L44.6358 4.2893L44.912 3.72127L44.8935 3.21306L44.875 2.70484L44.5738 2.10948L44.2726 1.51411L43.4046 1.08291L42.5368 0.651706L39.1611 0.608871L35.7855 0.566149L35.713 0.683264ZM58.5061 0.663325L58.4311 0.73829L58.558 0.891173L58.6849 1.04406H58.8213H58.9578L59.4625 1.5852L59.9671 2.12634V6.34153V10.5567L59.8065 10.9555L59.646 11.3542L59.4078 11.551L59.1697 11.7479L58.9703 11.7504L58.7709 11.7529V11.9118V12.0708L60.6222 12.1186L62.4735 12.1664L62.5539 12.1269L62.6344 12.0874L62.5702 11.9202L62.506 11.7529H62.0513H61.5965L61.2786 11.4126L60.9608 11.0723L60.8867 10.6436L60.8127 10.2149L60.7475 6.93963L60.6825 3.66431H60.9097H61.1371L61.3076 3.92064L61.478 4.17697L61.9188 4.63608L62.3595 5.09509L62.7219 5.54748L63.0842 5.99976L63.7897 6.85419L64.4953 7.70862L64.9654 8.25933L65.4355 8.81015L65.7203 9.13244L66.0051 9.45473L67.1349 10.8316L68.2647 12.2086H68.4735H68.6823V7.15289V2.09717L68.853 1.68864L69.0238 1.28011L69.2432 1.16265L69.4626 1.04531L69.7275 1.00499L69.9924 0.964657L70.0233 0.804935L70.0541 0.645326L68.1151 0.637352L66.176 0.629491V0.76529V0.900971L66.6146 0.971148L67.0531 1.04133L67.3408 1.26758L67.6285 1.49383L67.7567 2.00296L67.8849 2.51208V5.18907V7.86606L67.7844 7.92815L67.6838 7.99035L67.3856 7.75578L67.0874 7.52121V7.42073V7.32025L66.8311 7.05435L66.5747 6.78845L66.0621 6.17121L65.5494 5.55397L65.1448 5.09326L64.7402 4.63267L64.3503 4.12001L63.9604 3.60735L63.9005 3.55039L63.8405 3.49343L63.1855 2.73538L62.5304 1.97744V1.92082V1.86431L62.126 1.42571L61.7216 0.987099L61.5564 0.787732L61.3912 0.588364H59.9862H58.581L58.5061 0.663325ZM6.4717 1.41431L6.87853 1.55672L7.24365 1.88368L7.60878 2.21064L7.74287 2.80965L7.87696 3.40867L7.80029 3.91962L7.72373 4.43045L7.4265 4.88888L7.12927 5.3472L6.71903 5.54759L6.30891 5.7481L5.42679 5.80301L4.54468 5.85803L4.36787 5.7113L4.19106 5.56468L4.25053 3.52567L4.30988 1.48677L4.37618 1.37934L4.4426 1.27191H5.25374H6.06488L6.4717 1.41431ZM17.6363 1.41431L18.0431 1.55672L18.3523 1.8282L18.6615 2.09968L18.8284 2.62567L18.9954 3.15165L19.0677 3.51393L19.1399 3.87621L18.999 4.59234L18.8582 5.30858L18.5088 5.6925L18.1594 6.07643L17.7594 6.24401L17.3595 6.41159L16.6528 6.47801L15.946 6.54443L15.599 6.40065L15.2519 6.25688L15.2476 6.12838L15.2432 5.99976L15.2518 3.73187L15.2606 1.4641L15.32 1.36795L15.3793 1.27191H16.3044H17.2294L17.6363 1.41431ZM41.8532 1.56674L42.3089 1.80473L42.5634 2.25029L42.8178 2.69596L42.8197 3.4695L42.8216 4.24305L42.5963 4.68462L42.371 5.12619L42.0552 5.34777L41.7393 5.56935L41.2852 5.71688L40.831 5.8643L40.1483 5.83969L39.4657 5.81508L39.3796 5.67951L39.2934 5.54406L39.2916 3.48397L39.2899 1.42377L39.3754 1.33787L39.4608 1.25186L40.4292 1.29036L41.3975 1.32887L41.8532 1.56674ZM28.5364 3.06621L28.6877 3.26558L28.6913 3.49912L28.695 3.73267L28.7968 3.84089L28.8986 3.94912L29.316 5.14533L29.7333 6.34153L29.8542 6.58703L29.975 6.83243L29.8979 6.95729L29.8208 7.08203H28.2962H26.7717L26.7014 6.96834L26.6312 6.85464L26.8019 6.54112L26.9727 6.2276L27.2083 5.51216L27.4439 4.79672L27.6634 4.31596L27.8828 3.8352L28.0221 3.35102L28.1615 2.86684H28.2732H28.3851L28.5364 3.06621ZM51.5685 3.2371L51.6954 3.60735L52.0785 4.68963L52.4615 5.77191L52.5871 6.00181L52.7127 6.23182L52.7925 6.65687L52.8723 7.08203H51.2646H49.657V6.90955V6.73719L49.7599 6.5393L49.8626 6.34153L50.2855 5.14533L50.7085 3.94912L50.9373 3.40798L51.166 2.86684H51.3038H51.4415L51.5685 3.2371ZM5.69269 6.52597L6.65068 6.65345L6.98174 6.82286L7.3128 6.99238L7.5345 7.19881L7.75608 7.40535L7.91968 7.72069L8.08327 8.03603L8.19105 8.51668L8.29882 8.99744L8.17829 9.6492L8.05787 10.3008L7.80997 10.6839L7.56207 11.0669L7.16334 11.2595L6.7646 11.4523L5.84637 11.5018L4.92815 11.5514L4.63103 11.2818L4.33403 11.0124L4.27456 8.83521L4.21521 6.65801L4.34497 6.52825L4.47473 6.39849H4.60472H4.7347L5.69269 6.52597ZM41.2266 6.57154L41.7393 6.66245L42.138 6.91445L42.5368 7.16645L42.7247 7.38052L42.9128 7.59469L43.095 8.03581L43.2773 8.47692V9.14782V9.81872L43.042 10.3192L42.8068 10.8195L42.5938 11.0123L42.3809 11.2049L41.9462 11.36L41.5114 11.515L40.7937 11.5201L40.0761 11.5251L39.7534 11.3582L39.4305 11.1913L39.3568 10.8972L39.283 10.6033L39.2957 8.64371L39.3085 6.68421L39.4232 6.54602L39.5379 6.40783L40.126 6.44417L40.714 6.48063L41.2266 6.57154ZM17.408 17.0908L17.2757 17.5061L17.1283 17.8479L16.9809 18.1896L16.7514 18.878L16.5219 19.5662L16.3854 19.9033L16.2489 20.2403L16.1644 20.4681L16.0799 20.696L15.8289 21.3795L15.5779 22.063L15.4719 22.2608L15.3659 22.4587V22.6652V22.8719L15.2657 22.9801L15.1656 23.0884L15.0293 23.5441L14.8931 23.9998L14.6627 24.6263L14.4323 25.2529L14.3427 25.4808L14.2533 25.7086L13.9367 26.4907L13.6202 27.2728L13.3437 27.6015L13.0671 27.9301H12.9317H12.7962L12.6012 28.158L12.4061 28.3858H14.2942H16.1824L16.1359 28.2464L16.0893 28.1068L15.7561 28.0381L15.4228 27.9693L15.1698 27.8105L14.9168 27.6516L14.7901 27.3455L14.6633 27.0394L14.7867 26.8087L14.9102 26.578V26.2925V26.0069L15.0114 25.9442L15.1127 25.8817L15.1864 25.5672L15.2601 25.2529L15.4981 24.6522L15.7362 24.0515L17.6784 24.0826L19.6205 24.1137L20.0649 25.3099L20.5093 26.5061L20.5294 27.1883L20.5494 27.8703L20.0652 28.0392L19.5811 28.2079V28.2969V28.3858H21.7456H23.9102V28.2226V28.0594L23.6873 27.9887L23.4645 27.9179L23.1836 27.584L22.9025 27.2501L22.6652 26.5934L22.4279 25.9365L22.3146 25.7387L22.2013 25.5408V25.3343V25.1276L22.1045 25.0194L22.0078 24.9111L21.7456 24.0567L21.4835 23.2023L21.3868 23.0941L21.2899 22.9858V22.7305V22.4752L21.176 22.4048L21.0621 22.3344V22.1347V21.935L20.8342 21.4634L20.6064 20.9918V20.7774V20.563L20.5283 20.485L20.4502 20.4069L20.3169 20.0387L20.1836 19.6706L19.9292 18.9301L19.6749 18.1896L19.5275 17.8479L19.3801 17.5061L19.2478 17.0908L19.1156 16.6757H18.3279H17.5402L17.408 17.0908ZM28.2962 16.9211L27.4988 17.1804L27.0431 17.4715L26.5874 17.7624L26.0974 18.2607L25.6075 18.7589L25.3322 19.2287L25.0568 19.6986L24.7684 20.6941L24.4798 21.6898V22.7236V23.7573L24.6643 24.5051L24.8488 25.2529L25.1202 25.8338L25.3914 26.4147L26.0464 27.0705L26.7013 27.7262L27.214 27.9811L27.7266 28.2358L28.2962 28.3963L28.8659 28.5567L30.176 28.5492L31.4861 28.5417L32.1127 28.357L32.7393 28.1722L33.6507 27.8485L34.5621 27.5247L34.5662 25.6226L34.5703 23.7206L34.8053 23.4045L35.0403 23.0884L35.3423 23.0524L35.6443 23.0162V22.8771V22.738L33.2519 22.7372L30.8595 22.7366V22.884V23.0314H31.264H31.6683L31.9906 23.1981L32.313 23.3647L32.3934 23.5683L32.474 23.7719L32.5375 25.3226L32.601 26.8735L32.5266 27.1697L32.4523 27.466L32.0261 27.5796L31.6 27.6933L31.1444 27.7883L30.6887 27.8832L30.0051 27.7924L29.3216 27.7017L28.9798 27.5669L28.638 27.4322L28.1595 26.9613L27.6811 26.4905L27.4037 25.9286L27.1262 25.3668L26.942 24.3415L26.7578 23.3162L26.7579 22.5187L26.758 21.7213L26.9483 20.7529L27.1386 19.7846L27.4041 19.3596L27.6697 18.9347V18.8422V18.7497L28.1538 18.2799L28.638 17.81L29.1463 17.5486L29.6546 17.2871L30.4565 17.29L31.2583 17.2928L31.8065 17.4918L32.3548 17.6909L32.648 17.9403L32.9414 18.1896L33.2601 18.5251L33.5789 18.8605L33.8847 19.465L34.1905 20.0694H34.2908H34.3912V18.4242V16.779L34.2583 16.697L34.1256 16.6149L33.8715 16.9336L33.6173 17.2524L33.3492 17.1873L33.0811 17.1222L32.2836 16.8902L31.4861 16.6583L30.2899 16.6601L29.0937 16.6618L28.2962 16.9211ZM62.895 16.7884L62.7583 16.9251V17.1234V17.3218L62.66 17.3825L62.5616 17.4432L62.4154 17.9873L62.269 18.5314L62.1719 18.6396L62.0747 18.7479V18.9315V19.1151L61.8469 19.5868L61.619 20.0583V20.2281V20.3977L61.5051 20.4681L61.3912 20.5385V20.7612V20.9838L61.2906 21.1817L61.1899 21.3795L61.0719 21.6643L60.9537 21.9491L60.6501 22.8036L60.3465 23.658L60.1173 24.2846L59.888 24.9111L59.7927 25.139L59.6974 25.3668L59.5527 25.8225L59.408 26.2782L59.3173 26.3865L59.2266 26.4947V26.6689V26.8432L58.8697 27.3661L58.5129 27.8891L58.279 27.9951L58.0451 28.101L57.9998 28.2434L57.9544 28.3858H59.7868H61.619V28.2899V28.1941L61.1787 28.0622L60.7385 27.9303L60.4253 27.6838L60.1122 27.4375L60.183 26.9202L60.2539 26.4029L60.3826 25.9988L60.5113 25.5947L60.6007 25.3668L60.6901 25.139L60.8413 24.6263L60.9925 24.1137L62.9141 24.0824L64.8358 24.0511L64.9932 24.1818L65.1507 24.3125V24.5112V24.7098L65.3907 25.3232L65.6309 25.9365L65.7239 26.1643L65.817 26.3922L65.888 26.7339L65.9591 27.0757L66.0217 27.3209L66.0844 27.566L65.8454 27.805L65.6064 28.0441H65.2646H64.9228V28.2149V28.3858H67.1538H69.3849L69.3384 28.2434L69.292 28.101L69.0085 27.9626L68.7248 27.8242L68.5295 27.6083L68.3342 27.3925L67.7108 25.7257L67.0874 24.0588V23.9096V23.7605L66.9894 23.6523L66.8913 23.5441L66.689 22.9175L66.4867 22.2909L66.375 22.0061L66.2634 21.7213L66.1627 21.5235L66.0621 21.3256V21.103V20.8803L65.9617 20.8183L65.8615 20.7563L65.8023 20.4983L65.7432 20.2403L65.2677 18.9301L64.7922 17.62L64.67 17.2782L64.548 16.9365L64.4366 16.7941L64.3253 16.6517H63.6786H63.0317L62.895 16.7884ZM39.3184 16.8509L37.0114 16.8842V17.0528V17.2213H37.5296H38.0476L38.3168 17.5117L38.586 17.8022L38.6666 18.8784L38.7473 19.9545L38.7021 23.6582L38.6568 27.3619L38.3612 27.6574L38.0657 27.953L37.6895 28.0299L37.3133 28.1068L37.2716 28.2318L37.2301 28.3567L39.8833 28.4144L42.5368 28.4722L43.4481 28.3642L44.3595 28.2562L45.0501 27.935L45.7406 27.6138L46.1017 27.2527L46.4626 26.8918L46.6608 26.4742L46.8589 26.0567L46.8465 25.2408L46.8341 24.425L46.5338 23.9126L46.2334 23.4001L45.769 23.0783L45.3047 22.7565L44.7182 22.5227L44.1317 22.2888V22.119V21.9491L44.4121 21.9096L44.6924 21.8701L45.1735 21.539L45.6545 21.208L45.886 20.883L46.1174 20.558L46.259 20.0289L46.4005 19.4998L46.2617 18.9811L46.123 18.4622L45.9818 18.2874L45.8406 18.1125L45.54 17.7972L45.2396 17.4818L44.7383 17.2393L44.2372 16.9966L43.1591 16.883L42.0811 16.7696L41.8532 16.7935L41.6254 16.8175L39.3184 16.8509ZM48.5177 16.8831L48.5178 16.9436L49.0219 17.0925L49.526 17.2413L49.7109 17.4457L49.8958 17.65L50.012 18.3966L50.1282 19.1433L50.092 23.2608L50.0557 27.3783L49.6302 27.7681L49.2046 28.158H48.8612H48.5178V28.3004L48.5179 28.4428L52.4766 28.4184L56.4355 28.394L56.5544 28.3899L56.6732 28.3858L56.8206 27.6738L56.9679 26.9618L57.0633 26.677L57.1588 26.3922L57.2266 25.9365L57.2944 25.4808L57.008 25.8225L56.7214 26.1643L56.7162 26.2782L56.7111 26.3922L56.4023 26.7487L56.0937 27.1053L55.6506 27.4038L55.2075 27.7023H54.0326H52.8576L52.5737 27.573L52.2898 27.4436L52.2141 27.2597L52.1386 27.0757L52.082 25.2529L52.0254 23.4301L52.146 20.595L52.2668 17.7598L52.513 17.4977L52.7592 17.2356L53.3136 17.0935L53.8681 16.9514L53.8311 16.9142L53.7939 16.8772L51.1558 16.8499L48.5177 16.8225V16.8831ZM73.1538 16.8531L70.5051 16.8837V17.0524V17.2213H70.941H71.3767L71.612 17.4776L71.8472 17.7339L71.9737 18.3376L72.1 18.9413V22.6228V26.3041L71.9838 26.9169L71.8676 27.5297L71.6508 27.7464L71.4342 27.9632L71.0075 28.0324L70.5808 28.1018L70.5394 28.226L70.498 28.3501L73.1782 28.4176L75.8583 28.4853L76.9697 28.3732L78.0811 28.2611L78.8216 27.9697L79.5621 27.6784L80.1462 27.2416L80.7302 26.8047L81.1877 26.1198L81.6451 25.4347L81.8167 24.8312L81.9884 24.2276L82.1139 23.5372L82.2393 22.8468V22.4351V22.0235L82.1159 21.4166L81.9926 20.8099L81.8336 20.2633L81.6746 19.7167L81.2602 19.0924L80.8458 18.4681L80.3748 18.0921L79.9038 17.716L79.2642 17.4204L78.6245 17.1249L77.954 17.0073L77.2836 16.8899L76.5431 16.8561L75.8026 16.8225L73.1538 16.8531ZM0.368453 17.0219L0.314453 17.1073L0.385997 17.2231L0.45754 17.339L0.572374 17.268L0.68721 17.197L1.17082 17.3817L1.65443 17.5664L1.84559 17.9674L2.03675 18.3683V22.7335V27.0987L1.91053 27.4609L1.78418 27.8232L1.46041 27.9905L1.13664 28.158H0.846247H0.555743V28.3289V28.4998L4.00194 28.4958L7.44815 28.4918L8.13169 28.3419L8.81524 28.192L9.51143 27.7801L10.2077 27.3681L10.822 26.7045L11.4364 26.041L11.7777 25.0204L12.119 23.9998V22.6896V21.3795L11.7785 20.3542L11.438 19.3289L10.7509 18.6453L10.0638 17.9618L9.4965 17.6875L8.92916 17.4132L8.74779 17.3275L8.56643 17.2418L7.57004 17.0551L6.57367 16.8683L3.49794 16.9024L0.422335 16.9365L0.368453 17.0219ZM42.9616 17.6751L43.5658 17.9013L43.8773 18.3816L44.1887 18.8618V19.7276V20.5934L43.8906 21.053L43.5926 21.5126L43.1129 21.7747L42.633 22.0368L41.7304 22.0499L40.8279 22.063L40.7968 19.902L40.7657 17.741L40.8217 17.5951L40.8777 17.4491H41.6175H42.3573L42.9616 17.6751ZM77.426 17.7327L78.0241 17.9395V18.0361V18.1327H78.182H78.3399L78.7514 18.5562L79.1628 18.9799L79.5228 19.8379L79.8829 20.696L79.8884 22.5187L79.8939 24.3415L79.7101 24.925L79.5261 25.5086L79.3323 25.8834L79.1384 26.2581L78.7284 26.7014L78.3182 27.1445L77.9718 27.2935L77.6254 27.4424L77.3067 27.5723L76.9881 27.7023H76.099H75.2099L74.8227 27.5691L74.4355 27.4359L74.2431 27.218L74.0508 26.9999L74.0405 22.3825L74.0304 17.7649L74.1515 17.6191L74.2725 17.4733L75.5502 17.4996L76.8279 17.5259L77.426 17.7327ZM7.2203 17.8238L7.67599 17.9672L8.02631 18.1565L8.37663 18.3458L8.78892 18.8021L9.2011 19.2584L9.36253 19.5784L9.52407 19.8985L9.73517 20.7529L9.94627 21.6073L9.94183 22.7466L9.93739 23.8858L9.73791 24.6833L9.53854 25.4808L9.35432 25.908L9.17011 26.3352H9.07817H8.98612V26.4695V26.6038L8.56415 26.9904L8.14217 27.3769L7.7382 27.563L7.33422 27.7489L5.94822 27.7541L4.56222 27.7592L4.3248 27.4855L4.08739 27.2117L4.08659 27.0298L4.08568 26.8479L4.08135 22.3738L4.07702 17.8998L4.14583 17.7884L4.21475 17.677L5.48968 17.6787L6.7646 17.6804L7.2203 17.8238ZM18.2413 20.2046L18.5792 21.1517L18.6373 21.4649L18.6955 21.7782H18.7965H18.8975V21.9885V22.199L19.0767 22.5582L19.256 22.9175L19.2179 23.1168L19.1798 23.3162L17.7185 23.3732L16.2571 23.4301L16.1432 23.2924L16.0292 23.1547L16.2756 22.4949L16.5219 21.8352L16.639 21.4365L16.7561 21.0377L17.0293 20.4362L17.3026 19.8348V19.6926V19.5505L17.4867 19.2876L17.6707 19.0248L17.787 19.1411L17.9033 19.2574L18.2413 20.2046ZM63.2528 19.4143L63.4164 19.7846L63.7648 20.696L64.1131 21.6073L64.2524 22.12L64.3916 22.6327L64.4864 22.7409L64.5811 22.8491V23.1111V23.3732H63.0396H61.4979L61.4295 23.1947L61.3609 23.016L61.4785 22.7674L61.596 22.5187L61.733 22.12L61.8699 21.7213L61.9723 21.4649L62.0747 21.2086L62.1818 20.9523L62.2889 20.696L62.6019 19.87L62.9147 19.0441H63.0021H63.0893L63.2528 19.4143ZM43.3088 22.9726L43.676 23.1276L44.031 23.5067L44.386 23.8858L44.5152 24.2731L44.6443 24.6603L44.6412 25.4123L44.638 26.1643L44.3788 26.6709L44.1197 27.1777L43.613 27.4367L43.1064 27.6959L42.1919 27.6991L41.2773 27.7023L41.0242 27.5249L40.7709 27.3476V25.003V22.6584L41.8563 22.738L42.9416 22.8178L43.3088 22.9726Z" fill="#8D8D8D"/>
</svg>
