<svg width="27" height="24" viewBox="0 0 27 24" fill="none" xmlns="http://www.w3.org/2000/svg">
<path d="M4.7773 2.66667H1.5013C1.14768 2.66667 0.808541 2.52619 0.558493 2.27614C0.308444 2.02609 0.167969 1.68696 0.167969 1.33333C0.167969 0.979711 0.308444 0.640573 0.558493 0.390524C0.808541 0.140476 1.14768 2.77942e-08 1.5013 2.77942e-08H5.8653C6.17268 -6.27068e-05 6.47063 0.106075 6.70874 0.300452C6.94685 0.494828 7.11049 0.765503 7.17197 1.06667L8.04397 5.33333H25.5013C25.698 5.33325 25.8923 5.37671 26.0703 5.46058C26.2482 5.54445 26.4054 5.66666 26.5306 5.81845C26.6557 5.97024 26.7458 6.14784 26.7942 6.33852C26.8426 6.5292 26.8482 6.72823 26.8106 6.92133L25.0626 15.8813C24.8971 16.6795 24.458 17.3948 23.8211 17.9036C23.1843 18.4124 22.3897 18.6828 21.5746 18.668L10.9946 18.6667C9.29864 18.6987 7.81597 17.5307 7.4813 15.884L5.6613 6.98667C5.65281 6.9523 5.64569 6.9176 5.63997 6.88267L4.7773 2.66667ZM8.59064 8L10.0946 15.3507C10.172 15.728 10.5266 16.008 10.9706 16H21.5986C22.0173 16.008 22.372 15.728 22.4466 15.36L23.8826 8H8.59064ZM10.8346 21.3333H21.5013C21.8549 21.3333 22.1941 21.4738 22.4441 21.7239C22.6942 21.9739 22.8346 22.313 22.8346 22.6667C22.8346 23.0203 22.6942 23.3594 22.4441 23.6095C22.1941 23.8595 21.8549 24 21.5013 24H10.8346C10.481 24 10.1419 23.8595 9.89183 23.6095C9.64178 23.3594 9.5013 23.0203 9.5013 22.6667C9.5013 22.313 9.64178 21.9739 9.89183 21.7239C10.1419 21.4738 10.481 21.3333 10.8346 21.3333Z" fill="white"/>
</svg>
