<svg width="44" height="44" viewBox="0 0 44 44" fill="none" xmlns="http://www.w3.org/2000/svg">
<g clip-path="url(#clip0_39_5345)">
<path d="M37.6546 7.39648H5.37877C2.77923 7.39648 0.671875 9.50383 0.671875 12.1034V30.931C0.671875 33.5305 2.77923 35.6379 5.37877 35.6379H37.6546C40.2542 35.6379 42.3615 33.5305 42.3615 30.931V12.1034C42.3615 9.50383 40.2542 7.39648 37.6546 7.39648Z" fill="white"/>
<path d="M7.78906 11.2065V31.8246C7.78906 32.8114 8.59656 33.619 9.58351 33.619H21.9023C31.2153 33.619 35.2529 28.4062 35.2529 21.4887C35.2529 14.607 31.2153 9.41211 21.9023 9.41211H9.58351C8.59656 9.41211 7.78906 10.2196 7.78906 11.2065Z" fill="white"/>
<path d="M16.0293 14.4727V29.7074H22.6597C28.68 29.7074 31.2909 26.3069 31.2909 21.4979C31.2909 16.8951 28.68 13.3242 22.6597 13.3242H17.1776C16.5407 13.3242 16.0293 13.8446 16.0293 14.4727Z" fill="#CC0066"/>
<path d="M21.8944 31.9786H11.1816C10.2306 31.9786 9.45898 31.2069 9.45898 30.256V12.7871C9.45898 11.836 10.2306 11.0645 11.1816 11.0645H21.8944C32.0598 11.0645 33.5761 17.6052 33.5761 21.4991C33.5761 28.2551 29.4221 31.9786 21.8944 31.9786ZM11.1816 11.6387C10.5446 11.6387 10.0332 12.1501 10.0332 12.7871V30.256C10.0332 30.8929 10.5446 31.4043 11.1816 31.4043H21.8944C29.0543 31.4043 33.0019 27.8873 33.0019 21.4991C33.0019 12.9217 26.0396 11.6387 21.8944 11.6387H11.1816Z" fill="black"/>
<path d="M18.3647 19.4446C18.598 19.4446 18.8133 19.4803 19.0196 19.5521C19.2261 19.624 19.3965 19.7406 19.549 19.8842C19.6926 20.0367 19.8092 20.2251 19.899 20.4404C19.9796 20.6647 20.0245 20.9249 20.0245 21.23C20.0245 21.4992 19.9887 21.7414 19.9258 21.9657C19.8541 22.19 19.7554 22.3874 19.6208 22.5488C19.4863 22.7103 19.3158 22.8361 19.1093 22.9347C18.903 23.0244 18.6608 23.0781 18.3826 23.0781H16.8125V19.4355H18.3647V19.4446ZM18.3109 22.4142C18.4275 22.4142 18.5351 22.3963 18.6518 22.3604C18.7595 22.3246 18.8583 22.2617 18.9389 22.1721C19.0196 22.0823 19.0914 21.9747 19.1452 21.8311C19.199 21.6875 19.2261 21.5261 19.2261 21.3197C19.2261 21.1403 19.208 20.9697 19.1723 20.8262C19.1362 20.6827 19.0736 20.548 18.9927 20.4494C18.912 20.3507 18.8043 20.261 18.6697 20.2071C18.5351 20.1533 18.3736 20.1264 18.1762 20.1264H17.602V22.4234H18.3109V22.4142Z" fill="white"/>
<path d="M23.2596 20.1174H21.3396V20.898H23.1071V21.5171H21.3396V22.4053H23.3044V23.0781H20.541V19.4355H23.2596V20.1174Z" fill="white"/>
<path d="M26.0138 19.4434L27.3776 23.086H26.5432L26.265 22.2785H24.9012L24.6141 23.086H23.8066L25.1793 19.4434H26.0138ZM26.0586 21.6774L25.601 20.3405H25.592L25.1165 21.6774H26.0586Z" fill="white"/>
<path d="M28.6677 19.4434V22.413H30.4442V23.086H27.8691V19.4434H28.6677Z" fill="white"/>
<path d="M13.0293 22.9435C13.956 22.9435 14.7071 22.1923 14.7071 21.2657C14.7071 20.3391 13.956 19.5879 13.0293 19.5879C12.1027 19.5879 11.3516 20.3391 11.3516 21.2657C11.3516 22.1923 12.1027 22.9435 13.0293 22.9435Z" fill="black"/>
<path d="M14.2988 29.7082C12.8903 29.7082 11.7598 28.5687 11.7598 27.169V25.1862C11.7598 24.4864 12.325 23.9121 13.0338 23.9121C13.7336 23.9121 14.3078 24.4773 14.3078 25.1862V29.7082H14.2988Z" fill="black"/>
<path d="M37.6546 7.39648H5.37877C2.77923 7.39648 0.671875 9.50383 0.671875 12.1034V30.931C0.671875 33.5305 2.77923 35.6379 5.37877 35.6379H37.6546C40.2542 35.6379 42.3615 33.5305 42.3615 30.931V12.1034C42.3615 9.50383 40.2542 7.39648 37.6546 7.39648Z" stroke="#EFEFF3" stroke-width="1.34483"/>
</g>
<defs>
<clipPath id="clip0_39_5345">
<rect width="43.0345" height="43.0345" fill="white"/>
</clipPath>
</defs>
</svg>
