<svg width="25" height="24" viewBox="0 0 25 24" fill="none" xmlns="http://www.w3.org/2000/svg">
<g clip-path="url(#clip0_51_7754)">
<path d="M12.5 2.00195C15.757 2.00195 16.1428 2.01435 17.429 2.07303C18.6182 2.12732 19.2641 2.32602 19.694 2.49302C20.2633 2.7143 20.6696 2.97867 21.0965 3.40548C21.5233 3.83231 21.7877 4.23869 22.009 4.808C22.1759 5.23787 22.3747 5.88374 22.429 7.07295C22.4876 8.35922 22.5001 8.74497 22.5001 12.002C22.5001 15.2589 22.4876 15.6447 22.429 16.931C22.3747 18.1202 22.1759 18.7661 22.009 19.196C21.7877 19.7652 21.5233 20.1716 21.0965 20.5985C20.6696 21.0252 20.2633 21.2897 19.694 21.5109C19.2641 21.6779 18.6182 21.8766 17.429 21.9309C16.1429 21.9896 15.7571 22.002 12.5 22.002C9.24283 22.002 8.85707 21.9896 7.57106 21.9309C6.38178 21.8766 5.73592 21.6779 5.30609 21.5109C4.73674 21.2897 4.33036 21.0252 3.90353 20.5985C3.47672 20.1716 3.21235 19.7652 2.99113 19.196C2.82407 18.7661 2.62537 18.1202 2.57108 16.931C2.5124 15.6447 2.5 15.2589 2.5 12.002C2.5 8.74497 2.5124 8.35922 2.57108 7.07301C2.62537 5.88374 2.82407 5.23787 2.99113 4.808C3.21235 4.23869 3.47672 3.83231 3.90353 3.40548C4.33036 2.97867 4.73674 2.7143 5.30609 2.49302C5.73592 2.32602 6.38179 2.12732 7.571 2.07303C8.85727 2.01435 9.24302 2.00195 12.5 2.00195ZM12.5 0.00195312C9.24095 0.00195312 8.83235 0.015767 7.55242 0.0741664C6.27511 0.132471 5.40284 0.335297 4.63949 0.631962C3.85039 0.93863 3.18118 1.34895 2.51407 2.01606C1.84695 2.68317 1.43663 3.3524 1.12996 4.1415C0.833296 4.90484 0.63047 5.7771 0.572166 7.05441C0.513766 8.3343 0.5 8.74295 0.5 12.002C0.5 15.261 0.513766 15.6696 0.572166 16.9496C0.63047 18.2268 0.833296 19.0991 1.12996 19.8624C1.43663 20.6516 1.84695 21.3207 2.51407 21.9879C3.18118 22.655 3.85039 23.0654 4.63949 23.372C5.40284 23.6687 6.27511 23.8715 7.55242 23.9298C8.83235 23.9882 9.24095 24.002 12.5 24.002C15.7591 24.002 16.1677 23.9882 17.4476 23.9298C18.7249 23.8715 19.5971 23.6687 20.3605 23.372C21.1496 23.0654 21.8188 22.655 22.486 21.9879C23.153 21.3207 23.5633 20.6516 23.87 19.8624C24.1667 19.0991 24.3695 18.2268 24.4279 16.9496C24.4862 15.6696 24.5 15.261 24.5 12.002C24.5 8.74295 24.4862 8.3343 24.4279 7.05441C24.3695 5.7771 24.1667 4.90484 23.87 4.1415C23.5633 3.3524 23.153 2.68317 22.486 2.01606C21.8188 1.34895 21.1496 0.93863 20.3605 0.631962C19.5971 0.335297 18.7249 0.132471 17.4476 0.0741664C16.1677 0.015767 15.7591 0.00195312 12.5 0.00195312ZM12.5 6.00195C9.18631 6.00195 6.5 8.68826 6.5 12.002C6.5 15.3156 9.18631 18.002 12.5 18.002C15.8137 18.002 18.5 15.3156 18.5 12.002C18.5 8.68826 15.8137 6.00195 12.5 6.00195ZM12.5 16.002C10.2909 16.002 8.5 14.2111 8.5 12.002C8.5 9.79284 10.2909 8.00195 12.5 8.00195C14.7091 8.00195 16.5001 9.79284 16.5001 12.002C16.5001 14.2111 14.7091 16.002 12.5 16.002ZM20.5 5.33526C20.5 6.07166 19.9031 6.66861 19.1668 6.66861C18.4303 6.66861 17.8334 6.07166 17.8334 5.33526C17.8334 4.59888 18.4303 4.00196 19.1668 4.00196C19.9031 4.00196 20.5 4.59888 20.5 5.33526Z" fill="white" fill-opacity="0.7"/>
</g>
<defs>
<clipPath id="clip0_51_7754">
<rect width="24" height="24" fill="white" transform="translate(0.5 0.00195312)"/>
</clipPath>
</defs>
</svg>
