<svg width="44" height="31" viewBox="0 0 44 31" fill="none" xmlns="http://www.w3.org/2000/svg">
<path d="M38.4364 0.720703H6.16056C3.18965 0.720703 0.78125 3.1291 0.78125 6.10001V24.9276C0.78125 27.8985 3.18965 30.3069 6.16056 30.3069H38.4364C41.4073 30.3069 43.8157 27.8985 43.8157 24.9276V6.10001C43.8157 3.1291 41.4073 0.720703 38.4364 0.720703Z" fill="#FFB3C7"/>
<path d="M40.1056 6.0957H4.48718C1.46964 6.0957 -0.976562 8.54194 -0.976562 11.5595V19.4595C-0.976562 22.477 1.46964 24.9233 4.48718 24.9233H40.1056C43.1231 24.9233 45.5693 22.477 45.5693 19.4595V11.5595C45.5693 8.54194 43.1231 6.0957 40.1056 6.0957Z" fill="#FFB3C7"/>
<path d="M36.3014 14.3423C35.8681 14.0471 35.3626 13.8755 34.8391 13.8463C34.3157 13.817 33.794 13.931 33.3306 14.1761C32.867 14.4211 32.479 14.788 32.2085 15.237C31.938 15.686 31.7949 16.2004 31.7949 16.7248C31.7949 17.2491 31.938 17.7635 32.2085 18.2127C32.479 18.6617 32.867 19.0286 33.3306 19.2736C33.794 19.5185 34.3157 19.6327 34.8391 19.6032C35.3626 19.5741 35.8681 19.4026 36.3014 19.1073V19.4564H37.9373V13.9928H36.3014V14.3423ZM34.8137 18.1305C34.5388 18.1159 34.2742 18.0211 34.0528 17.8577C33.8314 17.6943 33.6626 17.4695 33.5675 17.2113C33.4723 16.9531 33.455 16.6726 33.5176 16.4044C33.5802 16.1365 33.72 15.8927 33.9199 15.7034C34.1196 15.5139 34.3704 15.3873 34.6414 15.3391C34.9122 15.2907 35.1914 15.3228 35.4444 15.4316C35.6972 15.5403 35.9126 15.7207 36.0641 15.9506C36.2154 16.1804 36.2961 16.4496 36.2961 16.7248C36.2857 17.1078 36.1237 17.4709 35.8457 17.7345C35.5677 17.9981 35.1965 18.1403 34.8137 18.1305Z" fill="black"/>
<path d="M13.8566 11.5664H12.1445V19.465H13.8566V11.5664Z" fill="black"/>
<path d="M28.8902 13.8452C28.5687 13.8263 28.2471 13.8857 27.9537 14.0186C27.6601 14.1515 27.4033 14.3537 27.2053 14.6079V13.9925H25.5762V19.456H27.2248V16.5847C27.2122 16.4198 27.2352 16.2541 27.2923 16.0988C27.3493 15.9436 27.4392 15.8024 27.5558 15.685C27.6722 15.5676 27.8128 15.4767 27.9675 15.4183C28.1223 15.3601 28.2879 15.3357 28.4529 15.347C29.1718 15.347 29.5851 15.7766 29.5851 16.5734V19.456H31.2192V15.9815C31.2191 14.71 30.2082 13.8452 28.8902 13.8452Z" fill="black"/>
<path d="M19.03 14.3423C18.5967 14.0471 18.0911 13.8755 17.5676 13.8463C17.0442 13.817 16.5225 13.931 16.059 14.1761C15.5955 14.4211 15.2076 14.788 14.937 15.237C14.6664 15.686 14.5234 16.2004 14.5234 16.7248C14.5234 17.2491 14.6664 17.7635 14.937 18.2127C15.2076 18.6617 15.5955 19.0286 16.059 19.2736C16.5225 19.5185 17.0442 19.6327 17.5676 19.6032C18.0911 19.5741 18.5967 19.4026 19.03 19.1073V19.4564H20.6658V13.9928H19.03V14.3423ZM17.5422 18.1305C17.2673 18.116 17.0028 18.0211 16.7813 17.8578C16.5596 17.6944 16.3909 17.4697 16.2958 17.2115C16.2007 16.9531 16.1832 16.6726 16.2459 16.4046C16.3084 16.1367 16.4483 15.8929 16.648 15.7034C16.8477 15.514 17.0985 15.3873 17.3696 15.3391C17.6405 15.2907 17.9197 15.3228 18.1726 15.4316C18.4255 15.5403 18.6409 15.7207 18.7923 15.9506C18.9436 16.1804 19.0243 16.4496 19.0243 16.7248C19.014 17.1076 18.8519 17.4709 18.5741 17.7343C18.2961 17.9979 17.925 18.1403 17.5422 18.1305Z" fill="black"/>
<path d="M23.2004 14.714V14.0024H21.5254V19.466H23.2039V16.9153C23.2039 16.0546 24.1368 15.592 24.784 15.592C24.7906 15.592 24.797 15.5927 24.8035 15.5927V14.0027C24.5001 13.9946 24.1989 14.0542 23.9215 14.1772C23.6442 14.3003 23.3978 14.4837 23.2004 14.714Z" fill="black"/>
<path d="M39.6674 17.5293C39.4643 17.5293 39.2657 17.5895 39.0969 17.7024C38.928 17.8152 38.7965 17.9755 38.7189 18.1631C38.6411 18.3507 38.6207 18.5573 38.6604 18.7563C38.7 18.9555 38.7978 19.1385 38.9414 19.2821C39.0851 19.4256 39.2678 19.5234 39.4671 19.5631C39.6663 19.6026 39.8727 19.5823 40.0603 19.5046C40.2479 19.4268 40.4084 19.2953 40.5211 19.1264C40.6339 18.9576 40.6941 18.7591 40.6941 18.5561C40.6941 18.4212 40.6677 18.2876 40.616 18.1631C40.5644 18.0386 40.4888 17.9253 40.3934 17.83C40.2981 17.7347 40.1849 17.6589 40.0602 17.6074C39.9357 17.5558 39.8021 17.5293 39.6674 17.5293Z" fill="black"/>
<path d="M10.9658 11.5645H9.19157C9.19431 12.276 9.02973 12.9781 8.71104 13.6142C8.39242 14.2503 7.92859 14.8028 7.35717 15.2266L6.6543 15.7531L9.37779 19.4671H11.617L9.11104 16.0496C9.70205 15.4622 10.1703 14.7633 10.4888 13.9932C10.8071 13.2233 10.9693 12.3977 10.9658 11.5645Z" fill="black"/>
<path d="M6.44923 11.5645H4.67188V19.4667H6.44923V11.5645Z" fill="black"/>
</svg>
