<svg width="44" height="44" viewBox="0 0 44 44" fill="none" xmlns="http://www.w3.org/2000/svg">
<g clip-path="url(#clip0_39_5358)">
<g clip-path="url(#clip1_39_5358)">
<mask id="mask0_39_5358" style="mask-type:luminance" maskUnits="userSpaceOnUse" x="0" y="6" width="44" height="31">
<path d="M38.4364 6.71875H6.16056C3.18965 6.71875 0.78125 9.12715 0.78125 12.0981V30.9256C0.78125 33.8966 3.18965 36.305 6.16056 36.305H38.4364C41.4073 36.305 43.8157 33.8966 43.8157 30.9256V12.0981C43.8157 9.12715 41.4073 6.71875 38.4364 6.71875Z" fill="white"/>
</mask>
<g mask="url(#mask0_39_5358)">
<path d="M38.4364 6.7207H6.16056C3.18965 6.7207 0.78125 9.1291 0.78125 12.1V30.9276C0.78125 33.8985 3.18965 36.3069 6.16056 36.3069H38.4364C41.4073 36.3069 43.8157 33.8985 43.8157 30.9276V12.1C43.8157 9.1291 41.4073 6.7207 38.4364 6.7207Z" fill="#FFB3C7"/>
<path d="M40.1056 12.0957H4.48718C1.46964 12.0957 -0.976562 14.5419 -0.976562 17.5595V25.4595C-0.976562 28.477 1.46964 30.9233 4.48718 30.9233H40.1056C43.1231 30.9233 45.5693 28.477 45.5693 25.4595V17.5595C45.5693 14.5419 43.1231 12.0957 40.1056 12.0957Z" fill="#FFB3C7"/>
<path d="M36.3014 20.3423C35.8681 20.0471 35.3626 19.8755 34.8391 19.8463C34.3157 19.817 33.794 19.931 33.3306 20.1761C32.867 20.4211 32.479 20.788 32.2085 21.237C31.938 21.686 31.7949 22.2004 31.7949 22.7248C31.7949 23.2491 31.938 23.7635 32.2085 24.2127C32.479 24.6617 32.867 25.0286 33.3306 25.2736C33.794 25.5185 34.3157 25.6327 34.8391 25.6032C35.3626 25.5741 35.8681 25.4026 36.3014 25.1073V25.4564H37.9373V19.9928H36.3014V20.3423ZM34.8137 24.1305C34.5388 24.1159 34.2742 24.0211 34.0528 23.8577C33.8314 23.6943 33.6626 23.4695 33.5675 23.2113C33.4723 22.9531 33.455 22.6726 33.5176 22.4044C33.5802 22.1365 33.72 21.8927 33.9199 21.7034C34.1196 21.5139 34.3704 21.3873 34.6414 21.3391C34.9122 21.2907 35.1914 21.3228 35.4444 21.4316C35.6972 21.5403 35.9126 21.7207 36.0641 21.9506C36.2154 22.1804 36.2961 22.4496 36.2961 22.7248C36.2857 23.1078 36.1237 23.4709 35.8457 23.7345C35.5677 23.9981 35.1965 24.1403 34.8137 24.1305Z" fill="black"/>
<path d="M13.8566 17.5664H12.1445V25.465H13.8566V17.5664Z" fill="black"/>
<path d="M28.8902 19.8452C28.5687 19.8263 28.2471 19.8857 27.9537 20.0186C27.6601 20.1515 27.4033 20.3537 27.2053 20.6079V19.9925H25.5762V25.456H27.2248V22.5847C27.2122 22.4198 27.2352 22.2541 27.2923 22.0988C27.3493 21.9436 27.4392 21.8024 27.5558 21.685C27.6722 21.5676 27.8128 21.4767 27.9675 21.4183C28.1223 21.3601 28.2879 21.3357 28.4529 21.347C29.1718 21.347 29.5851 21.7766 29.5851 22.5734V25.456H31.2192V21.9815C31.2191 20.71 30.2082 19.8452 28.8902 19.8452Z" fill="black"/>
<path d="M19.03 20.3423C18.5967 20.0471 18.0911 19.8755 17.5676 19.8463C17.0442 19.817 16.5225 19.931 16.059 20.1761C15.5955 20.4211 15.2076 20.788 14.937 21.237C14.6664 21.686 14.5234 22.2004 14.5234 22.7248C14.5234 23.2491 14.6664 23.7635 14.937 24.2127C15.2076 24.6617 15.5955 25.0286 16.059 25.2736C16.5225 25.5185 17.0442 25.6327 17.5676 25.6032C18.0911 25.5741 18.5967 25.4026 19.03 25.1073V25.4564H20.6658V19.9928H19.03V20.3423ZM17.5422 24.1305C17.2673 24.116 17.0028 24.0211 16.7813 23.8578C16.5596 23.6944 16.3909 23.4697 16.2958 23.2115C16.2007 22.9531 16.1832 22.6726 16.2459 22.4046C16.3084 22.1367 16.4483 21.8929 16.648 21.7034C16.8477 21.514 17.0985 21.3873 17.3696 21.3391C17.6405 21.2907 17.9197 21.3228 18.1726 21.4316C18.4255 21.5403 18.6409 21.7207 18.7923 21.9506C18.9436 22.1804 19.0243 22.4496 19.0243 22.7248C19.014 23.1076 18.8519 23.4709 18.5741 23.7343C18.2961 23.9979 17.925 24.1403 17.5422 24.1305Z" fill="black"/>
<path d="M23.2004 20.714V20.0024H21.5254V25.466H23.2039V22.9153C23.2039 22.0546 24.1368 21.592 24.784 21.592C24.7906 21.592 24.797 21.5927 24.8035 21.5927V20.0027C24.5001 19.9946 24.1989 20.0542 23.9215 20.1772C23.6442 20.3003 23.3978 20.4837 23.2004 20.714Z" fill="black"/>
<path d="M39.6674 23.5293C39.4643 23.5293 39.2657 23.5895 39.0969 23.7024C38.928 23.8152 38.7965 23.9755 38.7189 24.1631C38.6411 24.3507 38.6207 24.5573 38.6604 24.7563C38.7 24.9555 38.7978 25.1385 38.9414 25.2821C39.0851 25.4256 39.2678 25.5234 39.4671 25.5631C39.6663 25.6026 39.8727 25.5823 40.0603 25.5046C40.2479 25.4268 40.4084 25.2953 40.5211 25.1264C40.6339 24.9576 40.6941 24.7591 40.6941 24.5561C40.6941 24.4212 40.6677 24.2876 40.616 24.1631C40.5644 24.0386 40.4888 23.9253 40.3934 23.83C40.2981 23.7347 40.1849 23.6589 40.0602 23.6074C39.9357 23.5558 39.8021 23.5293 39.6674 23.5293Z" fill="black"/>
<path d="M10.9658 17.5645H9.19157C9.19431 18.276 9.02973 18.9781 8.71104 19.6142C8.39242 20.2503 7.92859 20.8028 7.35717 21.2266L6.6543 21.7531L9.37779 25.4671H11.617L9.11104 22.0496C9.70205 21.4622 10.1703 20.7633 10.4888 19.9932C10.8071 19.2233 10.9693 18.3977 10.9658 17.5645Z" fill="black"/>
<path d="M6.44923 17.5645H4.67188V25.4667H6.44923V17.5645Z" fill="black"/>
</g>
</g>
</g>
<defs>
<clipPath id="clip0_39_5358">
<rect width="43.0345" height="43.0345" fill="white" transform="translate(0.796875)"/>
</clipPath>
<clipPath id="clip1_39_5358">
<rect width="43.0345" height="43.0345" fill="white" transform="translate(0.796875)"/>
</clipPath>
</defs>
</svg>
