<svg width="104" height="27" viewBox="0 0 104 27" fill="none" xmlns="http://www.w3.org/2000/svg">
<path fill-rule="evenodd" clip-rule="evenodd" d="M0.37793 13.4358V26.1017H7.64418H14.9104V23.3685V20.6353H10.9107H6.91089V10.7026V0.769814H3.64441H0.37793V13.4358ZM15.8437 13.4334V26.1017H19.1109H22.378L22.344 13.4691L22.31 0.836477L19.0769 0.800746L15.8437 0.765015V13.4334ZM23.4113 13.4335L23.3766 26.1017H26.6784H29.9804L29.9741 18.3508L29.9678 10.5999L30.0417 10.5259L30.1157 10.4521L30.2971 10.7106L30.4787 10.9692L35.7348 17.7688L40.9911 24.5684L41.5833 25.3345L42.1755 26.1006L45.5087 26.1012L48.8418 26.1017L48.8071 13.4334L48.7725 0.765015L45.5407 0.800746L42.3088 0.836477L42.2787 8.48844L42.2486 16.1403L42.1926 16.1963L42.1366 16.2524L39.3658 12.6775L36.5952 9.10267L35.3527 7.50276L34.1103 5.90285L32.1416 3.36966L30.1729 0.836477L26.8095 0.800879L23.4459 0.765281L23.4113 13.4335ZM49.8417 13.4432V26.1168L55.8081 26.0694L61.7744 26.0222L62.5743 25.7885L63.3743 25.5549L64.4409 25.12L65.5075 24.6852L66.4408 24.0683L67.3741 23.4516L68.1292 22.7763L68.8844 22.1011L69.6109 21.1349L70.3374 20.1687L70.7576 19.3351L71.178 18.5016L71.455 17.8019L71.7322 17.1022L71.9863 15.7976L72.2405 14.4929V13.3691V12.2453L71.9795 10.8994L71.7186 9.55331L71.257 8.48564L70.7953 7.41783L70.3514 6.68441L69.9073 5.95098L69.2629 5.1541L68.6185 4.35721L67.7761 3.66351L66.9336 2.96969L66.0205 2.42492L65.1075 1.88015L64.0409 1.47044L62.9743 1.06073L62.1832 0.915273L61.3922 0.769814H55.6169H49.8417V13.4432ZM78.7082 0.934338L78.6498 1.10313L77.8905 3.10301L77.1314 5.1029L76.8294 5.90285L76.5275 6.70281L75.7085 8.83602L74.8896 10.9692L74.1769 12.8358L73.4641 14.7023L72.6419 16.8356L71.8196 18.9688L71.574 19.6354L71.3284 20.302L70.5762 22.2352L69.8239 24.1685L69.5773 24.8554L69.3306 25.5424L69.1809 25.822L69.0313 26.1017H72.5448H76.0582L76.9219 23.9351L77.7855 21.7686L82.3956 21.7335L87.0059 21.6985L87.31 22.5335L87.6142 23.3685L87.9052 24.1018L88.1961 24.8351L88.4289 25.4684L88.6615 26.1017H92.1314H95.6014L95.5099 25.735L95.4186 25.3684L95.2347 24.9684L95.0509 24.5684L94.4674 22.9685L93.8841 21.3686L91.7856 15.769L89.6872 10.1693L89.0291 8.43604L88.3711 6.70281L87.2713 3.76964L86.1715 0.836477L82.4691 0.801013L78.7666 0.765548L78.7082 0.934338ZM60.4101 6.43096L61.179 6.63388L61.8319 6.96479L62.4849 7.29571L63.2787 8.03073L64.0727 8.76575L64.5405 9.66744L65.0083 10.5693L65.185 11.3025L65.3617 12.0358L65.3462 13.5691L65.3306 15.1023L65.0511 15.9889L64.7717 16.8756L64.2172 17.706L63.6626 18.5365L62.8054 19.166L61.9484 19.7953L60.9282 20.1606L59.9078 20.5259L58.2079 20.5997L56.508 20.6736V13.4771V6.28056L56.608 6.17564L56.708 6.07058L58.1746 6.14924L59.6412 6.2279L60.4101 6.43096ZM83.5074 11.4359L84.4012 14.169L84.7871 15.2796L85.173 16.3901V16.5796V16.7689H82.4399H79.7067V16.5557V16.3424L80.9249 12.7226L82.1432 9.10267L82.2632 8.78095L82.3831 8.45924L82.4984 8.58096L82.6136 8.70269L83.5074 11.4359ZM97.9759 19.267L97.3795 19.4774L96.687 20.17L95.9944 20.8625L95.7835 21.5732L95.5724 22.2836V22.9877V23.6918L95.8419 24.3967L96.1114 25.1017L96.4095 25.4381L96.7075 25.7745L97.0362 26.0048L97.365 26.235H99.5353H101.705L102.21 25.7306L102.714 25.2263L102.976 24.6974L103.239 24.1685V22.9019V21.6353L102.994 21.1868L102.749 20.7381L102.215 20.1584L101.68 19.5786L100.955 19.307L100.229 19.0354L99.4005 19.046L98.5723 19.0565L97.9759 19.267Z" fill="#8D8D8D"/>
</svg>
