<svg width="25" height="24" viewBox="0 0 25 24" fill="none" xmlns="http://www.w3.org/2000/svg">
<g clip-path="url(#clip0_51_7756)">
<path fill-rule="evenodd" clip-rule="evenodd" d="M5.648 2.46437C5.648 3.8068 4.62586 4.89319 3.0274 4.89319C1.49122 4.89319 0.469081 3.8068 0.500714 2.46437C0.469081 1.05671 1.4912 0.00195312 3.05803 0.00195312C4.62584 0.00195312 5.61735 1.05671 5.648 2.46437ZM0.629228 22.4484L0.629228 6.81193L5.48884 6.81193L5.48884 22.4475L0.629228 22.4484Z" fill="white" fill-opacity="0.7"/>
<path fill-rule="evenodd" clip-rule="evenodd" d="M9.38242 11.8039C9.38242 9.85353 9.31815 8.19081 9.25391 6.81576L13.4749 6.81576L13.6993 8.95793H13.7952C14.4348 7.96643 16.0333 6.46484 18.6232 6.46484C21.8201 6.46484 24.2183 8.57535 24.2183 13.178V22.4524H19.3587V13.7869C19.3587 11.7713 18.6558 10.3972 16.8972 10.3972C15.5538 10.3972 14.7551 11.3245 14.4358 12.2191C14.3073 12.5394 14.244 12.9862 14.244 13.435V22.4524H9.38437V11.8039H9.38242Z" fill="white" fill-opacity="0.7"/>
</g>
<defs>
<clipPath id="clip0_51_7756">
<rect width="24" height="24" fill="white" transform="translate(0.5 0.00195312)"/>
</clipPath>
</defs>
</svg>
