<svg width="22" height="17" viewBox="0 0 22 17" fill="none" xmlns="http://www.w3.org/2000/svg">
<path d="M5 16.0344C4.16667 16.0344 3.45833 15.7428 2.875 15.1594C2.29167 14.5761 2 13.8678 2 13.0344H0V2.03442C0 1.48442 0.195833 1.01359 0.5875 0.621924C0.979167 0.230257 1.45 0.0344238 2 0.0344238H16V4.03442H19L22 8.03442V13.0344H20C20 13.8678 19.7083 14.5761 19.125 15.1594C18.5417 15.7428 17.8333 16.0344 17 16.0344C16.1667 16.0344 15.4583 15.7428 14.875 15.1594C14.2917 14.5761 14 13.8678 14 13.0344H8C8 13.8678 7.70833 14.5761 7.125 15.1594C6.54167 15.7428 5.83333 16.0344 5 16.0344ZM5 14.0344C5.28333 14.0344 5.52083 13.9386 5.7125 13.7469C5.90417 13.5553 6 13.3178 6 13.0344C6 12.7511 5.90417 12.5136 5.7125 12.3219C5.52083 12.1303 5.28333 12.0344 5 12.0344C4.71667 12.0344 4.47917 12.1303 4.2875 12.3219C4.09583 12.5136 4 12.7511 4 13.0344C4 13.3178 4.09583 13.5553 4.2875 13.7469C4.47917 13.9386 4.71667 14.0344 5 14.0344ZM2 11.0344H2.8C3.08333 10.7344 3.40833 10.4928 3.775 10.3094C4.14167 10.1261 4.55 10.0344 5 10.0344C5.45 10.0344 5.85833 10.1261 6.225 10.3094C6.59167 10.4928 6.91667 10.7344 7.2 11.0344H14V2.03442H2V11.0344ZM17 14.0344C17.2833 14.0344 17.5208 13.9386 17.7125 13.7469C17.9042 13.5553 18 13.3178 18 13.0344C18 12.7511 17.9042 12.5136 17.7125 12.3219C17.5208 12.1303 17.2833 12.0344 17 12.0344C16.7167 12.0344 16.4792 12.1303 16.2875 12.3219C16.0958 12.5136 16 12.7511 16 13.0344C16 13.3178 16.0958 13.5553 16.2875 13.7469C16.4792 13.9386 16.7167 14.0344 17 14.0344ZM16 9.03442H20.25L18 6.03442H16V9.03442Z" fill="#1C1B1F"/>
</svg>
