<svg width="117" height="44" viewBox="0 0 117 44" fill="none" xmlns="http://www.w3.org/2000/svg">
<g clip-path="url(#clip0_51_6751)">
<rect width="116.099" height="44" transform="translate(0.5)" fill="#181818"/>
<path d="M3.55887 23.6309V4.44947H5.23039L18.4655 21.1099H17.5887V4.44947H19.589V23.6309H17.9175L4.70975 6.97045H5.58662V23.6309H3.55887ZM34.454 23.6309V20.4522L34.3718 19.9316V14.6156C34.3718 13.3917 34.0247 12.4509 33.3305 11.7932C32.6546 11.1356 31.6407 10.8067 30.2889 10.8067C29.3572 10.8067 28.4712 10.962 27.6309 11.2726C26.7905 11.5831 26.0781 11.9942 25.4935 12.5057L24.6166 11.0534C25.3474 10.4322 26.2242 9.95727 27.2472 9.62845C28.2702 9.28136 29.3481 9.10781 30.4807 9.10781C32.344 9.10781 33.778 9.57364 34.7828 10.5053C35.8058 11.4187 36.3173 12.8162 36.3173 14.6978V23.6309H34.454ZM29.4942 23.7679C28.4164 23.7679 27.4756 23.5943 26.6718 23.2472C25.8863 22.8819 25.2834 22.3886 24.8633 21.7675C24.4431 21.1281 24.233 20.3974 24.233 19.5754C24.233 18.8264 24.4066 18.1505 24.7537 17.5476C25.119 16.9265 25.7036 16.4333 26.5074 16.0679C27.3294 15.6843 28.4255 15.4925 29.7956 15.4925H34.7554V16.9448H29.8504C28.4621 16.9448 27.4939 17.1914 26.9458 17.6846C26.416 18.1779 26.1512 18.7898 26.1512 19.5206C26.1512 20.3426 26.4708 21.0003 27.1102 21.4935C27.7496 21.9867 28.6447 22.2334 29.7956 22.2334C30.8917 22.2334 31.8325 21.9867 32.618 21.4935C33.4218 20.982 34.0064 20.2513 34.3718 19.3013L34.8102 20.644C34.4448 21.594 33.8054 22.3521 32.892 22.9184C31.9969 23.4847 30.8643 23.7679 29.4942 23.7679ZM49.0275 23.7679C47.7853 23.7679 46.6618 23.4847 45.6571 22.9184C44.6523 22.3338 43.8486 21.5026 43.2457 20.4248C42.6611 19.3287 42.3688 17.9952 42.3688 16.4241C42.3688 14.8531 42.6611 13.5287 43.2457 12.4509C43.8303 11.3548 44.6249 10.5236 45.6297 9.95727C46.6344 9.39096 47.767 9.10781 49.0275 9.10781C50.3976 9.10781 51.6216 9.41837 52.6994 10.0395C53.7955 10.6423 54.6541 11.5009 55.2752 12.6153C55.8963 13.7113 56.2068 14.981 56.2068 16.4241C56.2068 17.8856 55.8963 19.1643 55.2752 20.2604C54.6541 21.3565 53.7955 22.2151 52.6994 22.8362C51.6216 23.4573 50.3976 23.7679 49.0275 23.7679ZM41.6016 28.9468V9.24482H43.4649V13.5743L43.2731 16.4515L43.5471 19.3562V28.9468H41.6016ZM48.8905 22.0415C49.9135 22.0415 50.8269 21.8132 51.6307 21.3565C52.4345 20.8815 53.0739 20.2239 53.5489 19.3836C54.0238 18.525 54.2613 17.5385 54.2613 16.4241C54.2613 15.3098 54.0238 14.3325 53.5489 13.4921C53.0739 12.6518 52.4345 11.9942 51.6307 11.5192C50.8269 11.0442 49.9135 10.8067 48.8905 10.8067C47.8675 10.8067 46.945 11.0442 46.1229 11.5192C45.3191 11.9942 44.6797 12.6518 44.2048 13.4921C43.7481 14.3325 43.5197 15.3098 43.5197 16.4241C43.5197 17.5385 43.7481 18.525 44.2048 19.3836C44.6797 20.2239 45.3191 20.8815 46.1229 21.3565C46.945 21.8132 47.8675 22.0415 48.8905 22.0415ZM60.1729 23.6309V9.24482H62.1184V23.6309H60.1729ZM61.1593 6.06619C60.7574 6.06619 60.4195 5.92918 60.1455 5.65516C59.8714 5.38114 59.7344 5.05232 59.7344 4.66869C59.7344 4.28506 59.8714 3.96537 60.1455 3.70962C60.4195 3.4356 60.7574 3.29859 61.1593 3.29859C61.5612 3.29859 61.8992 3.42647 62.1732 3.68222C62.4472 3.93797 62.5842 4.25766 62.5842 4.64129C62.5842 5.04318 62.4472 5.38114 62.1732 5.65516C61.9174 5.92918 61.5795 6.06619 61.1593 6.06619ZM73.6424 23.7679C72.1445 23.7679 70.8292 23.4573 69.6965 22.8362C68.5639 22.1968 67.6779 21.3291 67.0386 20.233C66.3992 19.1187 66.0795 17.849 66.0795 16.4241C66.0795 14.9992 66.3809 13.7387 66.9837 12.6427C67.6049 11.5466 68.4452 10.688 69.5047 10.0669C70.5825 9.4275 71.7882 9.10781 73.1218 9.10781C74.4736 9.10781 75.6702 9.41837 76.7115 10.0395C77.771 10.6423 78.6022 11.5009 79.205 12.6153C79.8079 13.7113 80.1093 14.981 80.1093 16.4241C80.1093 16.5155 80.1002 16.616 80.0819 16.7256C80.0819 16.8169 80.0819 16.9174 80.0819 17.027H67.5592V15.5747H79.0406L78.2734 16.1501C78.2734 15.1088 78.045 14.1863 77.5883 13.3825C77.1499 12.5605 76.547 11.9211 75.7798 11.4644C75.0125 11.0077 74.1265 10.7793 73.1218 10.7793C72.1353 10.7793 71.2493 11.0077 70.4638 11.4644C69.6783 11.9211 69.0663 12.5605 68.6279 13.3825C68.1894 14.2046 67.9702 15.1454 67.9702 16.2049V16.5063C67.9702 17.6024 68.2077 18.5706 68.6827 19.411C69.1759 20.233 69.8518 20.8815 70.7104 21.3565C71.5873 21.8132 72.5829 22.0415 73.6972 22.0415C74.5741 22.0415 75.387 21.8863 76.136 21.5757C76.9033 21.2652 77.5609 20.7902 78.109 20.1508L79.205 21.4113C78.5657 22.1786 77.7619 22.7631 76.7937 23.165C75.8437 23.5669 74.7933 23.7679 73.6424 23.7679ZM90.0155 23.7679C88.7916 23.7679 87.7229 23.5395 86.8095 23.0828C85.8961 22.6261 85.1837 21.9411 84.6722 21.0277C84.1789 20.1143 83.9323 18.9725 83.9323 17.6024V9.24482H85.8778V17.3832C85.8778 18.9177 86.2523 20.0777 87.0013 20.8633C87.7686 21.6305 88.8373 22.0141 90.2074 22.0141C91.2121 22.0141 92.0798 21.8132 92.8105 21.4113C93.5595 20.9911 94.1258 20.3883 94.5095 19.6028C94.9114 18.8172 95.1123 17.8764 95.1123 16.7804V9.24482H97.0578V23.6309H95.1945V19.685L95.4959 20.3974C95.0392 21.457 94.3268 22.2882 93.3586 22.891C92.4086 23.4756 91.2943 23.7679 90.0155 23.7679ZM100.288 23.6309L106.371 15.7391L106.344 16.6982L100.562 9.24482H102.754L107.495 15.4103L106.673 15.3829L111.413 9.24482H113.55L107.714 16.7804L107.741 15.7391L113.879 23.6309H111.66L106.645 17.0544L107.412 17.164L102.48 23.6309H100.288Z" fill="white"/>
<path d="M23.4341 39.4378C23.0594 39.4378 22.6991 39.3777 22.3532 39.2576C22.0121 39.1375 21.7479 38.979 21.5605 38.782L21.7695 38.3713C21.9521 38.5538 22.1947 38.7028 22.4973 38.8181C22.8 38.9285 23.1122 38.9838 23.4341 38.9838C23.8857 38.9838 24.2243 38.9021 24.4501 38.7388C24.6759 38.5706 24.7888 38.3545 24.7888 38.0902C24.7888 37.8885 24.7264 37.7275 24.6015 37.6074C24.4814 37.4873 24.3324 37.3961 24.1547 37.3336C23.9769 37.2664 23.7295 37.1943 23.4125 37.1174C23.033 37.0214 22.7303 36.9301 22.5045 36.8436C22.2787 36.7523 22.0842 36.6154 21.9208 36.4329C21.7623 36.2503 21.683 36.0029 21.683 35.6907C21.683 35.436 21.7503 35.2055 21.8848 34.9989C22.0193 34.7875 22.2259 34.6194 22.5045 34.4945C22.7832 34.3696 23.129 34.3071 23.5422 34.3071C23.8304 34.3071 24.1115 34.3479 24.3853 34.4296C24.6639 34.5065 24.9041 34.6146 25.1059 34.7539L24.9257 35.179C24.7144 35.0397 24.4886 34.9364 24.2484 34.8692C24.0082 34.7971 23.7728 34.7611 23.5422 34.7611C23.1002 34.7611 22.7663 34.8476 22.5405 35.0205C22.3196 35.1886 22.2091 35.4072 22.2091 35.6762C22.2091 35.878 22.2691 36.0413 22.3892 36.1663C22.5141 36.2864 22.6679 36.38 22.8504 36.4473C23.0378 36.5097 23.2876 36.5794 23.5998 36.6563C23.9697 36.7475 24.2676 36.8388 24.4934 36.9301C24.724 37.0166 24.9185 37.1511 25.0771 37.3336C25.2356 37.5114 25.3149 37.754 25.3149 38.0614C25.3149 38.316 25.2452 38.549 25.1059 38.7604C24.9714 38.967 24.7624 39.1327 24.479 39.2576C24.1955 39.3777 23.8472 39.4378 23.4341 39.4378ZM29.669 37.6579H26.4983C26.5271 38.0518 26.6785 38.3713 26.9523 38.6163C27.2261 38.8565 27.572 38.9766 27.99 38.9766C28.2254 38.9766 28.4415 38.9358 28.6385 38.8541C28.8355 38.7676 29.006 38.6427 29.1501 38.4794L29.4384 38.8108C29.2702 39.0126 29.0588 39.1663 28.8042 39.272C28.5544 39.3777 28.2782 39.4306 27.9755 39.4306C27.5864 39.4306 27.2405 39.3489 26.9379 39.1856C26.64 39.0174 26.407 38.7868 26.2389 38.4938C26.0708 38.2007 25.9867 37.8693 25.9867 37.4994C25.9867 37.1295 26.066 36.798 26.2245 36.5049C26.3878 36.2119 26.6088 35.9837 26.8874 35.8204C27.1709 35.657 27.4879 35.5754 27.8386 35.5754C28.1893 35.5754 28.504 35.657 28.7826 35.8204C29.0612 35.9837 29.2798 36.2119 29.4384 36.5049C29.5969 36.7932 29.6762 37.1246 29.6762 37.4994L29.669 37.6579ZM27.8386 36.0149C27.4735 36.0149 27.1661 36.1326 26.9163 36.368C26.6713 36.5986 26.5319 36.9013 26.4983 37.276H29.1862C29.1525 36.9013 29.0108 36.5986 28.761 36.368C28.516 36.1326 28.2085 36.0149 27.8386 36.0149ZM31.2075 36.3464C31.3276 36.0918 31.5054 35.8996 31.7408 35.7699C31.981 35.6402 32.2764 35.5754 32.6271 35.5754V36.0726L32.5046 36.0654C32.1059 36.0654 31.7936 36.1879 31.5678 36.4329C31.3421 36.6779 31.2292 37.0214 31.2292 37.4633V39.3945H30.7175V35.6042H31.2075V36.3464ZM33.5535 35.6042H34.0651V39.3945H33.5535V35.6042ZM33.8129 34.7755C33.7072 34.7755 33.6183 34.7395 33.5463 34.6674C33.4742 34.5953 33.4382 34.5089 33.4382 34.408C33.4382 34.3119 33.4742 34.2278 33.5463 34.1558C33.6183 34.0837 33.7072 34.0477 33.8129 34.0477C33.9186 34.0477 34.0075 34.0837 34.0795 34.1558C34.1516 34.223 34.1876 34.3047 34.1876 34.4008C34.1876 34.5065 34.1516 34.5953 34.0795 34.6674C34.0075 34.7395 33.9186 34.7755 33.8129 34.7755ZM37.038 39.4306C36.6729 39.4306 36.3438 39.3489 36.0507 39.1856C35.7577 39.0174 35.5271 38.7868 35.359 38.4938C35.1908 38.2007 35.1068 37.8693 35.1068 37.4994C35.1068 37.1295 35.1908 36.798 35.359 36.5049C35.5271 36.2119 35.7577 35.9837 36.0507 35.8204C36.3438 35.657 36.6729 35.5754 37.038 35.5754C37.4031 35.5754 37.7321 35.657 38.0252 35.8204C38.3182 35.9837 38.5464 36.2119 38.7098 36.5049C38.8779 36.798 38.962 37.1295 38.962 37.4994C38.962 37.8693 38.8779 38.2007 38.7098 38.4938C38.5464 38.7868 38.3182 39.0174 38.0252 39.1856C37.7321 39.3489 37.4031 39.4306 37.038 39.4306ZM37.038 38.9766C37.307 38.9766 37.5472 38.9165 37.7586 38.7964C37.9747 38.6715 38.1429 38.4962 38.263 38.2704C38.3831 38.0446 38.4431 37.7876 38.4431 37.4994C38.4431 37.2111 38.3831 36.9541 38.263 36.7283C38.1429 36.5025 37.9747 36.3296 37.7586 36.2095C37.5472 36.0846 37.307 36.0221 37.038 36.0221C36.7689 36.0221 36.5263 36.0846 36.3102 36.2095C36.0988 36.3296 35.9306 36.5025 35.8057 36.7283C35.6856 36.9541 35.6256 37.2111 35.6256 37.4994C35.6256 37.7876 35.6856 38.0446 35.8057 38.2704C35.9306 38.4962 36.0988 38.6715 36.3102 38.7964C36.5263 38.9165 36.7689 38.9766 37.038 38.9766ZM43.4221 35.6042V39.3945H42.9321V38.7028C42.7976 38.9333 42.6127 39.1135 42.3773 39.2432C42.1419 39.3681 41.8728 39.4306 41.5702 39.4306C41.0754 39.4306 40.6839 39.2936 40.3956 39.0198C40.1122 38.7412 39.9705 38.3353 39.9705 37.802V35.6042H40.4821V37.7516C40.4821 38.1503 40.5806 38.4529 40.7775 38.6595C40.9745 38.8661 41.2555 38.9694 41.6206 38.9694C42.0194 38.9694 42.334 38.8493 42.5646 38.6091C42.7952 38.3641 42.9105 38.0254 42.9105 37.593V35.6042H43.4221ZM45.8711 39.4306C45.5636 39.4306 45.2682 39.3873 44.9848 39.3009C44.7061 39.2096 44.4875 39.0967 44.329 38.9622L44.5596 38.5586C44.7181 38.6835 44.9175 38.7868 45.1577 38.8685C45.3979 38.9454 45.6477 38.9838 45.9071 38.9838C46.253 38.9838 46.5076 38.9309 46.671 38.8253C46.8391 38.7148 46.9232 38.561 46.9232 38.3641C46.9232 38.2248 46.8775 38.1167 46.7863 38.0398C46.695 37.9581 46.5797 37.8981 46.4404 37.8597C46.301 37.8164 46.1161 37.7756 45.8855 37.7372C45.578 37.6795 45.3306 37.6219 45.1433 37.5642C44.9559 37.5018 44.795 37.3985 44.6605 37.2544C44.5308 37.1102 44.4659 36.9109 44.4659 36.6563C44.4659 36.3392 44.598 36.0798 44.8623 35.878C45.1265 35.6762 45.494 35.5754 45.9648 35.5754C46.2098 35.5754 46.4548 35.609 46.6998 35.6762C46.9448 35.7387 47.1466 35.8228 47.3051 35.9285L47.0817 36.3392C46.7694 36.123 46.3971 36.0149 45.9648 36.0149C45.6381 36.0149 45.3907 36.0726 45.2226 36.1879C45.0592 36.3032 44.9776 36.4545 44.9776 36.6418C44.9776 36.786 45.0232 36.9013 45.1145 36.9877C45.2105 37.0742 45.3282 37.1391 45.4676 37.1823C45.6069 37.2207 45.799 37.2616 46.044 37.3048C46.3467 37.3624 46.5893 37.4201 46.7718 37.4777C46.9544 37.5354 47.1105 37.6339 47.2402 37.7732C47.3699 37.9125 47.4348 38.1047 47.4348 38.3497C47.4348 38.6811 47.2955 38.9454 47.0168 39.1423C46.743 39.3345 46.3611 39.4306 45.8711 39.4306ZM51.5925 35.5754C52.0873 35.5754 52.4668 35.7003 52.731 35.9501C52.9952 36.1951 53.1273 36.5602 53.1273 37.0454V39.3945H52.6373V38.8036C52.522 39.0006 52.3515 39.1543 52.1257 39.2648C51.9047 39.3753 51.6405 39.4306 51.3331 39.4306C50.9103 39.4306 50.574 39.3297 50.3242 39.1279C50.0744 38.9261 49.9495 38.6595 49.9495 38.328C49.9495 38.0062 50.0648 37.7468 50.2954 37.5498C50.5308 37.3528 50.9031 37.2544 51.4123 37.2544H52.6157V37.0238C52.6157 36.6971 52.5244 36.4497 52.3419 36.2815C52.1593 36.1086 51.8927 36.0221 51.542 36.0221C51.3018 36.0221 51.0712 36.063 50.8503 36.1446C50.6293 36.2215 50.4395 36.3296 50.281 36.4689L50.0504 36.087C50.2426 35.9237 50.4731 35.7987 50.7422 35.7123C51.0112 35.621 51.2946 35.5754 51.5925 35.5754ZM51.4123 39.027C51.7006 39.027 51.948 38.9622 52.1545 38.8325C52.3611 38.698 52.5148 38.5058 52.6157 38.256V37.6363H51.4267C50.7782 37.6363 50.4539 37.8621 50.4539 38.3136C50.4539 38.5346 50.538 38.71 50.7061 38.8397C50.8743 38.9646 51.1097 39.027 51.4123 39.027ZM56.4698 35.5754C56.8253 35.5754 57.1472 35.657 57.4354 35.8204C57.7236 35.9789 57.9494 36.2047 58.1128 36.4977C58.2761 36.7908 58.3578 37.1246 58.3578 37.4994C58.3578 37.8741 58.2761 38.2079 58.1128 38.501C57.9494 38.794 57.7236 39.0222 57.4354 39.1856C57.1472 39.3489 56.8253 39.4306 56.4698 39.4306C56.1527 39.4306 55.8669 39.3633 55.6123 39.2288C55.3625 39.0943 55.1607 38.8997 55.007 38.6451V39.3945H54.517V34.0477H55.0286V36.3248C55.1871 36.0798 55.3889 35.8948 55.6339 35.7699C55.8837 35.6402 56.1623 35.5754 56.4698 35.5754ZM56.4338 38.9766C56.698 38.9766 56.9382 38.9165 57.1544 38.7964C57.3705 38.6715 57.5387 38.4962 57.6588 38.2704C57.7837 38.0446 57.8461 37.7876 57.8461 37.4994C57.8461 37.2111 57.7837 36.9541 57.6588 36.7283C57.5387 36.5025 57.3705 36.3296 57.1544 36.2095C56.9382 36.0846 56.698 36.0221 56.4338 36.0221C56.1647 36.0221 55.9221 36.0846 55.706 36.2095C55.4946 36.3296 55.3264 36.5025 55.2015 36.7283C55.0814 36.9541 55.0214 37.2111 55.0214 37.4994C55.0214 37.7876 55.0814 38.0446 55.2015 38.2704C55.3264 38.4962 55.4946 38.6715 55.706 38.7964C55.9221 38.9165 56.1647 38.9766 56.4338 38.9766ZM60.95 39.4306C60.5849 39.4306 60.2558 39.3489 59.9628 39.1856C59.6697 39.0174 59.4391 38.7868 59.271 38.4938C59.1029 38.2007 59.0188 37.8693 59.0188 37.4994C59.0188 37.1295 59.1029 36.798 59.271 36.5049C59.4391 36.2119 59.6697 35.9837 59.9628 35.8204C60.2558 35.657 60.5849 35.5754 60.95 35.5754C61.3151 35.5754 61.6442 35.657 61.9372 35.8204C62.2303 35.9837 62.4585 36.2119 62.6218 36.5049C62.7899 36.798 62.874 37.1295 62.874 37.4994C62.874 37.8693 62.7899 38.2007 62.6218 38.4938C62.4585 38.7868 62.2303 39.0174 61.9372 39.1856C61.6442 39.3489 61.3151 39.4306 60.95 39.4306ZM60.95 38.9766C61.219 38.9766 61.4592 38.9165 61.6706 38.7964C61.8868 38.6715 62.0549 38.4962 62.175 38.2704C62.2951 38.0446 62.3552 37.7876 62.3552 37.4994C62.3552 37.2111 62.2951 36.9541 62.175 36.7283C62.0549 36.5025 61.8868 36.3296 61.6706 36.2095C61.4592 36.0846 61.219 36.0221 60.95 36.0221C60.681 36.0221 60.4384 36.0846 60.2222 36.2095C60.0108 36.3296 59.8427 36.5025 59.7178 36.7283C59.5977 36.9541 59.5376 37.2111 59.5376 37.4994C59.5376 37.7876 59.5977 38.0446 59.7178 38.2704C59.8427 38.4962 60.0108 38.6715 60.2222 38.7964C60.4384 38.9165 60.681 38.9766 60.95 38.9766ZM67.3342 35.6042V39.3945H66.8442V38.7028C66.7096 38.9333 66.5247 39.1135 66.2893 39.2432C66.0539 39.3681 65.7849 39.4306 65.4822 39.4306C64.9874 39.4306 64.5959 39.2936 64.3077 39.0198C64.0242 38.7412 63.8825 38.3353 63.8825 37.802V35.6042H64.3941V37.7516C64.3941 38.1503 64.4926 38.4529 64.6896 38.6595C64.8865 38.8661 65.1676 38.9694 65.5327 38.9694C65.9314 38.9694 66.2461 38.8493 66.4767 38.6091C66.7072 38.3641 66.8225 38.0254 66.8225 37.593V35.6042H67.3342ZM70.7631 39.1639C70.6671 39.2504 70.547 39.3177 70.4028 39.3657C70.2635 39.4089 70.117 39.4306 69.9633 39.4306C69.6078 39.4306 69.334 39.3345 69.1418 39.1423C68.9496 38.9502 68.8536 38.6787 68.8536 38.328V36.0365H68.1762V35.6042H68.8536V34.7755H69.3652V35.6042H70.5181V36.0365H69.3652V38.2992C69.3652 38.525 69.4204 38.698 69.5309 38.8181C69.6462 38.9333 69.8095 38.991 70.0209 38.991C70.1266 38.991 70.2275 38.9742 70.3236 38.9406C70.4245 38.9069 70.5109 38.8589 70.583 38.7964L70.7631 39.1639ZM75.0793 39.4378C74.7046 39.4378 74.3443 39.3777 73.9984 39.2576C73.6573 39.1375 73.3931 38.979 73.2057 38.782L73.4147 38.3713C73.5973 38.5538 73.8399 38.7028 74.1425 38.8181C74.4452 38.9285 74.7574 38.9838 75.0793 38.9838C75.5309 38.9838 75.8695 38.9021 76.0953 38.7388C76.3211 38.5706 76.434 38.3545 76.434 38.0902C76.434 37.8885 76.3716 37.7275 76.2467 37.6074C76.1266 37.4873 75.9776 37.3961 75.7999 37.3336C75.6221 37.2664 75.3747 37.1943 75.0577 37.1174C74.6782 37.0214 74.3755 36.9301 74.1497 36.8436C73.9239 36.7523 73.7294 36.6154 73.566 36.4329C73.4075 36.2503 73.3282 36.0029 73.3282 35.6907C73.3282 35.436 73.3955 35.2055 73.53 34.9989C73.6645 34.7875 73.8711 34.6194 74.1497 34.4945C74.4284 34.3696 74.7742 34.3071 75.1874 34.3071C75.4756 34.3071 75.7567 34.3479 76.0305 34.4296C76.3091 34.5065 76.5493 34.6146 76.7511 34.7539L76.5709 35.179C76.3596 35.0397 76.1338 34.9364 75.8936 34.8692C75.6534 34.7971 75.418 34.7611 75.1874 34.7611C74.7454 34.7611 74.4115 34.8476 74.1858 35.0205C73.9648 35.1886 73.8543 35.4072 73.8543 35.6762C73.8543 35.878 73.9143 36.0413 74.0344 36.1663C74.1593 36.2864 74.3131 36.38 74.4956 36.4473C74.683 36.5097 74.9328 36.5794 75.245 36.6563C75.6149 36.7475 75.9128 36.8388 76.1386 36.9301C76.3692 37.0166 76.5637 37.1511 76.7223 37.3336C76.8808 37.5114 76.9601 37.754 76.9601 38.0614C76.9601 38.316 76.8904 38.549 76.7511 38.7604C76.6166 38.967 76.4076 39.1327 76.1242 39.2576C75.8407 39.3777 75.4924 39.4378 75.0793 39.4378ZM78.0138 34.0477H78.5254V39.3945H78.0138V34.0477ZM83.2494 37.6579H80.0787C80.1075 38.0518 80.2589 38.3713 80.5327 38.6163C80.8065 38.8565 81.1524 38.9766 81.5704 38.9766C81.8058 38.9766 82.0219 38.9358 82.2189 38.8541C82.4159 38.7676 82.5864 38.6427 82.7305 38.4794L83.0188 38.8108C82.8506 39.0126 82.6393 39.1663 82.3846 39.272C82.1348 39.3777 81.8586 39.4306 81.556 39.4306C81.1668 39.4306 80.8209 39.3489 80.5183 39.1856C80.2204 39.0174 79.9875 38.7868 79.8193 38.4938C79.6512 38.2007 79.5671 37.8693 79.5671 37.4994C79.5671 37.1295 79.6464 36.798 79.8049 36.5049C79.9682 36.2119 80.1892 35.9837 80.4678 35.8204C80.7513 35.657 81.0683 35.5754 81.419 35.5754C81.7697 35.5754 82.0844 35.657 82.363 35.8204C82.6417 35.9837 82.8602 36.2119 83.0188 36.5049C83.1773 36.7932 83.2566 37.1246 83.2566 37.4994L83.2494 37.6579ZM81.419 36.0149C81.0539 36.0149 80.7465 36.1326 80.4967 36.368C80.2517 36.5986 80.1124 36.9013 80.0787 37.276H82.7666C82.7329 36.9013 82.5912 36.5986 82.3414 36.368C82.0964 36.1326 81.7889 36.0149 81.419 36.0149ZM87.5983 37.6579H84.4276C84.4565 38.0518 84.6078 38.3713 84.8816 38.6163C85.1555 38.8565 85.5013 38.9766 85.9193 38.9766C86.1547 38.9766 86.3709 38.9358 86.5678 38.8541C86.7648 38.7676 86.9353 38.6427 87.0794 38.4794L87.3677 38.8108C87.1995 39.0126 86.9882 39.1663 86.7336 39.272C86.4838 39.3777 86.2075 39.4306 85.9049 39.4306C85.5158 39.4306 85.1699 39.3489 84.8672 39.1856C84.5694 39.0174 84.3364 38.7868 84.1682 38.4938C84.0001 38.2007 83.916 37.8693 83.916 37.4994C83.916 37.1295 83.9953 36.798 84.1538 36.5049C84.3172 36.2119 84.5381 35.9837 84.8168 35.8204C85.1002 35.657 85.4173 35.5754 85.768 35.5754C86.1187 35.5754 86.4333 35.657 86.7119 35.8204C86.9906 35.9837 87.2092 36.2119 87.3677 36.5049C87.5262 36.7932 87.6055 37.1246 87.6055 37.4994L87.5983 37.6579ZM85.768 36.0149C85.4029 36.0149 85.0954 36.1326 84.8456 36.368C84.6006 36.5986 84.4613 36.9013 84.4276 37.276H87.1155C87.0819 36.9013 86.9401 36.5986 86.6903 36.368C86.4453 36.1326 86.1379 36.0149 85.768 36.0149ZM90.5997 35.5754C90.9552 35.5754 91.277 35.657 91.5653 35.8204C91.8535 35.9789 92.0793 36.2047 92.2426 36.4977C92.406 36.7908 92.4877 37.1246 92.4877 37.4994C92.4877 37.8789 92.406 38.2152 92.2426 38.5082C92.0793 38.8012 91.8535 39.0294 91.5653 39.1928C91.2819 39.3513 90.96 39.4306 90.5997 39.4306C90.2922 39.4306 90.0136 39.3681 89.7638 39.2432C89.5188 39.1135 89.317 38.9261 89.1585 38.6811V40.7925H88.6469V35.6042H89.1369V36.3536C89.2906 36.1038 89.4924 35.9116 89.7422 35.7771C89.9968 35.6426 90.2826 35.5754 90.5997 35.5754ZM90.5637 38.9766C90.8279 38.9766 91.0681 38.9165 91.2843 38.7964C91.5004 38.6715 91.6686 38.4962 91.7887 38.2704C91.9136 38.0446 91.976 37.7876 91.976 37.4994C91.976 37.2111 91.9136 36.9565 91.7887 36.7355C91.6686 36.5097 91.5004 36.3344 91.2843 36.2095C91.0681 36.0846 90.8279 36.0221 90.5637 36.0221C90.2946 36.0221 90.052 36.0846 89.8359 36.2095C89.6245 36.3344 89.4563 36.5097 89.3314 36.7355C89.2113 36.9565 89.1513 37.2111 89.1513 37.4994C89.1513 37.7876 89.2113 38.0446 89.3314 38.2704C89.4563 38.4962 89.6245 38.6715 89.8359 38.7964C90.052 38.9165 90.2946 38.9766 90.5637 38.9766Z" fill="white"/>
</g>
<defs>
<clipPath id="clip0_51_6751">
<rect width="116.099" height="44" fill="white" transform="translate(0.5)"/>
</clipPath>
</defs>
</svg>
