<svg width="117" height="44" viewBox="0 0 117 44" fill="none" xmlns="http://www.w3.org/2000/svg">
<g clip-path="url(#clip0_51_6751)">
<path d="M3.05887 23.6309V4.44947H4.73039L17.9655 21.1099H17.0887V4.44947H19.089V23.6309H17.4175L4.20975 6.97045H5.08662V23.6309H3.05887ZM33.954 23.6309V20.4522L33.8718 19.9316V14.6156C33.8718 13.3917 33.5247 12.4509 32.8305 11.7932C32.1546 11.1356 31.1407 10.8067 29.7889 10.8067C28.8572 10.8067 27.9712 10.962 27.1309 11.2726C26.2905 11.5831 25.5781 11.9942 24.9935 12.5057L24.1166 11.0534C24.8474 10.4322 25.7242 9.95727 26.7472 9.62845C27.7702 9.28136 28.8481 9.10781 29.9807 9.10781C31.844 9.10781 33.278 9.57364 34.2828 10.5053C35.3058 11.4187 35.8173 12.8162 35.8173 14.6978V23.6309H33.954ZM28.9942 23.7679C27.9164 23.7679 26.9756 23.5943 26.1718 23.2472C25.3863 22.8819 24.7834 22.3886 24.3633 21.7675C23.9431 21.1281 23.733 20.3974 23.733 19.5754C23.733 18.8264 23.9066 18.1505 24.2537 17.5476C24.619 16.9265 25.2036 16.4333 26.0074 16.0679C26.8294 15.6843 27.9255 15.4925 29.2956 15.4925H34.2554V16.9448H29.3504C27.9621 16.9448 26.9939 17.1914 26.4458 17.6846C25.916 18.1779 25.6512 18.7898 25.6512 19.5206C25.6512 20.3426 25.9708 21.0003 26.6102 21.4935C27.2496 21.9867 28.1447 22.2334 29.2956 22.2334C30.3917 22.2334 31.3325 21.9867 32.118 21.4935C32.9218 20.982 33.5064 20.2513 33.8718 19.3013L34.3102 20.644C33.9448 21.594 33.3054 22.3521 32.392 22.9184C31.4969 23.4847 30.3643 23.7679 28.9942 23.7679ZM48.5275 23.7679C47.2853 23.7679 46.1618 23.4847 45.1571 22.9184C44.1523 22.3338 43.3486 21.5026 42.7457 20.4248C42.1611 19.3287 41.8688 17.9952 41.8688 16.4241C41.8688 14.8531 42.1611 13.5287 42.7457 12.4509C43.3303 11.3548 44.1249 10.5236 45.1297 9.95727C46.1344 9.39096 47.267 9.10781 48.5275 9.10781C49.8976 9.10781 51.1216 9.41837 52.1994 10.0395C53.2955 10.6423 54.1541 11.5009 54.7752 12.6153C55.3963 13.7113 55.7068 14.981 55.7068 16.4241C55.7068 17.8856 55.3963 19.1643 54.7752 20.2604C54.1541 21.3565 53.2955 22.2151 52.1994 22.8362C51.1216 23.4573 49.8976 23.7679 48.5275 23.7679ZM41.1016 28.9468V9.24482H42.9649V13.5743L42.7731 16.4515L43.0471 19.3562V28.9468H41.1016ZM48.3905 22.0415C49.4135 22.0415 50.3269 21.8132 51.1307 21.3565C51.9345 20.8815 52.5739 20.2239 53.0489 19.3836C53.5238 18.525 53.7613 17.5385 53.7613 16.4241C53.7613 15.3098 53.5238 14.3325 53.0489 13.4921C52.5739 12.6518 51.9345 11.9942 51.1307 11.5192C50.3269 11.0442 49.4135 10.8067 48.3905 10.8067C47.3675 10.8067 46.445 11.0442 45.6229 11.5192C44.8191 11.9942 44.1797 12.6518 43.7048 13.4921C43.2481 14.3325 43.0197 15.3098 43.0197 16.4241C43.0197 17.5385 43.2481 18.525 43.7048 19.3836C44.1797 20.2239 44.8191 20.8815 45.6229 21.3565C46.445 21.8132 47.3675 22.0415 48.3905 22.0415ZM59.6729 23.6309V9.24482H61.6184V23.6309H59.6729ZM60.6593 6.06619C60.2574 6.06619 59.9195 5.92918 59.6455 5.65516C59.3714 5.38114 59.2344 5.05232 59.2344 4.66869C59.2344 4.28506 59.3714 3.96537 59.6455 3.70962C59.9195 3.4356 60.2574 3.29859 60.6593 3.29859C61.0612 3.29859 61.3992 3.42647 61.6732 3.68222C61.9472 3.93797 62.0842 4.25766 62.0842 4.64129C62.0842 5.04318 61.9472 5.38114 61.6732 5.65516C61.4174 5.92918 61.0795 6.06619 60.6593 6.06619ZM73.1424 23.7679C71.6445 23.7679 70.3292 23.4573 69.1965 22.8362C68.0639 22.1968 67.1779 21.3291 66.5386 20.233C65.8992 19.1187 65.5795 17.849 65.5795 16.4241C65.5795 14.9992 65.8809 13.7387 66.4837 12.6427C67.1049 11.5466 67.9452 10.688 69.0047 10.0669C70.0825 9.4275 71.2882 9.10781 72.6218 9.10781C73.9736 9.10781 75.1702 9.41837 76.2115 10.0395C77.271 10.6423 78.1022 11.5009 78.705 12.6153C79.3079 13.7113 79.6093 14.981 79.6093 16.4241C79.6093 16.5155 79.6002 16.616 79.5819 16.7256C79.5819 16.8169 79.5819 16.9174 79.5819 17.027H67.0592V15.5747H78.5406L77.7734 16.1501C77.7734 15.1088 77.545 14.1863 77.0883 13.3825C76.6499 12.5605 76.047 11.9211 75.2798 11.4644C74.5125 11.0077 73.6265 10.7793 72.6218 10.7793C71.6353 10.7793 70.7493 11.0077 69.9638 11.4644C69.1783 11.9211 68.5663 12.5605 68.1279 13.3825C67.6894 14.2046 67.4702 15.1454 67.4702 16.2049V16.5063C67.4702 17.6024 67.7077 18.5706 68.1827 19.411C68.6759 20.233 69.3518 20.8815 70.2104 21.3565C71.0873 21.8132 72.0829 22.0415 73.1972 22.0415C74.0741 22.0415 74.887 21.8863 75.636 21.5757C76.4033 21.2652 77.0609 20.7902 77.609 20.1508L78.705 21.4113C78.0657 22.1786 77.2619 22.7631 76.2937 23.165C75.3437 23.5669 74.2933 23.7679 73.1424 23.7679ZM89.5155 23.7679C88.2916 23.7679 87.2229 23.5395 86.3095 23.0828C85.3961 22.6261 84.6837 21.9411 84.1722 21.0277C83.6789 20.1143 83.4323 18.9725 83.4323 17.6024V9.24482H85.3778V17.3832C85.3778 18.9177 85.7523 20.0777 86.5013 20.8633C87.2686 21.6305 88.3373 22.0141 89.7074 22.0141C90.7121 22.0141 91.5798 21.8132 92.3105 21.4113C93.0595 20.9911 93.6258 20.3883 94.0095 19.6028C94.4114 18.8172 94.6123 17.8764 94.6123 16.7804V9.24482H96.5578V23.6309H94.6945V19.685L94.9959 20.3974C94.5392 21.457 93.8268 22.2882 92.8586 22.891C91.9086 23.4756 90.7943 23.7679 89.5155 23.7679ZM99.7879 23.6309L105.871 15.7391L105.844 16.6982L100.062 9.24482H102.254L106.995 15.4103L106.173 15.3829L110.913 9.24482H113.05L107.214 16.7804L107.241 15.7391L113.379 23.6309H111.16L106.145 17.0544L106.912 17.164L101.98 23.6309H99.7879Z" fill="white"/>
<path d="M22.9446 39.4378C22.5699 39.4378 22.2096 39.3777 21.8637 39.2576C21.5227 39.1327 21.2584 38.9742 21.0711 38.782L21.2801 38.3713C21.4578 38.5442 21.6956 38.6907 21.9935 38.8108C22.2961 38.9261 22.6132 38.9838 22.9446 38.9838C23.2617 38.9838 23.5187 38.9454 23.7157 38.8685C23.9175 38.7868 24.064 38.6787 24.1553 38.5442C24.2513 38.4097 24.2994 38.2608 24.2994 38.0975C24.2994 37.9005 24.2417 37.742 24.1264 37.6219C24.0159 37.5018 23.8694 37.4081 23.6869 37.3408C23.5043 37.2688 23.3025 37.2063 23.0816 37.1535C22.8606 37.1006 22.6396 37.0454 22.4186 36.9877C22.1976 36.9253 21.9935 36.8436 21.8061 36.7427C21.6236 36.6418 21.4746 36.5097 21.3593 36.3464C21.2488 36.1783 21.1936 35.9597 21.1936 35.6907C21.1936 35.4408 21.2584 35.2127 21.3882 35.0061C21.5227 34.7947 21.7268 34.6266 22.0007 34.5017C22.2745 34.372 22.6252 34.3071 23.0527 34.3071C23.3362 34.3071 23.6172 34.3479 23.8958 34.4296C24.1745 34.5065 24.4147 34.6146 24.6164 34.7539L24.4363 35.179C24.2201 35.0349 23.9895 34.9292 23.7445 34.862C23.5043 34.7947 23.2713 34.7611 23.0455 34.7611C22.7429 34.7611 22.4931 34.8019 22.2961 34.8836C22.0991 34.9653 21.9526 35.0757 21.8565 35.2151C21.7653 35.3496 21.7196 35.5033 21.7196 35.6762C21.7196 35.8732 21.7749 36.0317 21.8854 36.1518C22.0007 36.2719 22.1496 36.3656 22.3321 36.4329C22.5195 36.5001 22.7237 36.5602 22.9446 36.613C23.1656 36.6659 23.3842 36.7235 23.6004 36.786C23.8214 36.8484 24.0231 36.9301 24.2057 37.031C24.393 37.127 24.542 37.2568 24.6525 37.4201C24.7678 37.5834 24.8254 37.7972 24.8254 38.0614C24.8254 38.3064 24.7582 38.5346 24.6236 38.746C24.4891 38.9526 24.2826 39.1207 24.0039 39.2504C23.7301 39.3753 23.377 39.4378 22.9446 39.4378ZM27.4861 39.4306C27.0922 39.4306 26.7463 39.3489 26.4484 39.1856C26.1506 39.0174 25.9176 38.7892 25.7495 38.501C25.5813 38.2079 25.4973 37.8741 25.4973 37.4994C25.4973 37.1246 25.5765 36.7932 25.735 36.5049C25.8984 36.2167 26.1194 35.9909 26.398 35.8276C26.6814 35.6594 26.9985 35.5754 27.3492 35.5754C27.7047 35.5754 28.0193 35.657 28.2932 35.8204C28.5718 35.9789 28.7904 36.2047 28.9489 36.4977C29.1074 36.786 29.1867 37.1198 29.1867 37.4994C29.1867 37.5234 29.1843 37.5498 29.1795 37.5786C29.1795 37.6026 29.1795 37.6291 29.1795 37.6579H25.8864V37.276H28.9057L28.7039 37.4273C28.7039 37.1535 28.6439 36.9109 28.5238 36.6995C28.4085 36.4833 28.2499 36.3152 28.0482 36.1951C27.8464 36.075 27.6134 36.0149 27.3492 36.0149C27.0898 36.0149 26.8568 36.075 26.6502 36.1951C26.4436 36.3152 26.2827 36.4833 26.1674 36.6995C26.0521 36.9157 25.9945 37.1631 25.9945 37.4417V37.521C25.9945 37.8092 26.0569 38.0638 26.1818 38.2848C26.3115 38.501 26.4893 38.6715 26.7151 38.7964C26.9457 38.9165 27.2075 38.9766 27.5005 38.9766C27.7311 38.9766 27.9449 38.9358 28.1418 38.8541C28.3436 38.7724 28.5166 38.6475 28.6607 38.4794L28.9489 38.8108C28.7808 39.0126 28.5694 39.1663 28.3148 39.272C28.065 39.3777 27.7888 39.4306 27.4861 39.4306ZM30.2281 39.3945V35.6114H30.7181V36.6418L30.6677 36.4617C30.7733 36.1735 30.9511 35.9549 31.2009 35.806C31.4507 35.6522 31.7606 35.5754 32.1305 35.5754V36.0726C32.1113 36.0726 32.092 36.0726 32.0728 36.0726C32.0536 36.0678 32.0344 36.0654 32.0152 36.0654C31.6164 36.0654 31.3042 36.1879 31.0784 36.4329C30.8526 36.6731 30.7397 37.0166 30.7397 37.4633V39.3945H30.2281ZM33.064 39.3945V35.6114H33.5757V39.3945H33.064ZM33.3235 34.7755C33.2178 34.7755 33.1289 34.7395 33.0568 34.6674C32.9848 34.5953 32.9487 34.5089 32.9487 34.408C32.9487 34.3071 32.9848 34.223 33.0568 34.1558C33.1289 34.0837 33.2178 34.0477 33.3235 34.0477C33.4291 34.0477 33.518 34.0813 33.5901 34.1486C33.6621 34.2158 33.6982 34.2999 33.6982 34.4008C33.6982 34.5065 33.6621 34.5953 33.5901 34.6674C33.5228 34.7395 33.4339 34.7755 33.3235 34.7755ZM36.5413 39.4306C36.1762 39.4306 35.8471 39.3489 35.5541 39.1856C35.2659 39.0174 35.0377 38.7892 34.8695 38.501C34.7014 38.2079 34.6173 37.8741 34.6173 37.4994C34.6173 37.1198 34.7014 36.786 34.8695 36.4977C35.0377 36.2095 35.2659 35.9837 35.5541 35.8204C35.8423 35.657 36.1714 35.5754 36.5413 35.5754C36.916 35.5754 37.2475 35.657 37.5357 35.8204C37.8288 35.9837 38.057 36.2095 38.2203 36.4977C38.3885 36.786 38.4725 37.1198 38.4725 37.4994C38.4725 37.8741 38.3885 38.2079 38.2203 38.501C38.057 38.7892 37.8288 39.0174 37.5357 39.1856C37.2427 39.3489 36.9112 39.4306 36.5413 39.4306ZM36.5413 38.9766C36.8151 38.9766 37.0577 38.9165 37.2691 38.7964C37.4805 38.6715 37.6462 38.4986 37.7663 38.2776C37.8912 38.0518 37.9537 37.7924 37.9537 37.4994C37.9537 37.2015 37.8912 36.9421 37.7663 36.7211C37.6462 36.5001 37.4805 36.3296 37.2691 36.2095C37.0577 36.0846 36.8175 36.0221 36.5485 36.0221C36.2795 36.0221 36.0393 36.0846 35.8279 36.2095C35.6166 36.3296 35.4484 36.5001 35.3235 36.7211C35.1986 36.9421 35.1362 37.2015 35.1362 37.4994C35.1362 37.7924 35.1986 38.0518 35.3235 38.2776C35.4484 38.4986 35.6166 38.6715 35.8279 38.7964C36.0393 38.9165 36.2771 38.9766 36.5413 38.9766ZM41.0807 39.4306C40.7589 39.4306 40.4778 39.3705 40.2376 39.2504C39.9974 39.1303 39.8101 38.9502 39.6756 38.71C39.5459 38.4698 39.481 38.1695 39.481 37.8092V35.6114H39.9926V37.7516C39.9926 38.1551 40.0911 38.4602 40.2881 38.6667C40.4899 38.8685 40.7709 38.9694 41.1312 38.9694C41.3954 38.9694 41.6236 38.9165 41.8158 38.8108C42.0127 38.7004 42.1616 38.5418 42.2625 38.3353C42.3682 38.1287 42.4211 37.8813 42.4211 37.593V35.6114H42.9327V39.3945H42.4427V38.3569L42.5219 38.5442C42.4018 38.8229 42.2145 39.0414 41.9599 39.2C41.7101 39.3537 41.417 39.4306 41.0807 39.4306ZM45.3746 39.4306C45.0624 39.4306 44.7669 39.3873 44.4883 39.3009C44.2096 39.2096 43.9911 39.0967 43.8325 38.9622L44.0631 38.5586C44.2169 38.6739 44.4138 38.7748 44.654 38.8613C44.8942 38.943 45.1464 38.9838 45.4106 38.9838C45.7709 38.9838 46.0304 38.9285 46.1889 38.8181C46.3474 38.7028 46.4267 38.5514 46.4267 38.3641C46.4267 38.2248 46.381 38.1167 46.2898 38.0398C46.2033 37.9581 46.088 37.8981 45.9439 37.8597C45.7998 37.8164 45.6388 37.7804 45.4611 37.7516C45.2833 37.7227 45.1056 37.6891 44.9278 37.6507C44.7549 37.6123 44.5964 37.557 44.4522 37.4849C44.3081 37.4081 44.1904 37.3048 44.0992 37.1751C44.0127 37.0454 43.9694 36.8724 43.9694 36.6563C43.9694 36.4497 44.0271 36.2647 44.1424 36.1014C44.2577 35.9381 44.4258 35.8108 44.6468 35.7195C44.8726 35.6234 45.1464 35.5754 45.4683 35.5754C45.7133 35.5754 45.9583 35.609 46.2033 35.6762C46.4483 35.7387 46.6501 35.8228 46.8086 35.9285L46.5852 36.3392C46.4171 36.2239 46.2369 36.1422 46.0448 36.0942C45.8526 36.0413 45.6604 36.0149 45.4683 36.0149C45.1272 36.0149 44.875 36.075 44.7117 36.1951C44.5531 36.3104 44.4739 36.4593 44.4739 36.6418C44.4739 36.786 44.5171 36.8989 44.6036 36.9805C44.6948 37.0622 44.8125 37.127 44.9567 37.1751C45.1056 37.2183 45.2665 37.2544 45.4395 37.2832C45.6172 37.312 45.7926 37.348 45.9655 37.3913C46.1432 37.4297 46.3042 37.4849 46.4483 37.557C46.5972 37.6243 46.7149 37.7227 46.8014 37.8525C46.8927 37.9774 46.9383 38.1431 46.9383 38.3497C46.9383 38.5706 46.8759 38.7628 46.751 38.9261C46.6309 39.0847 46.4531 39.2096 46.2177 39.3009C45.9871 39.3873 45.7061 39.4306 45.3746 39.4306ZM52.1338 39.3945V38.5586L52.1122 38.4217V37.0238C52.1122 36.7019 52.0209 36.4545 51.8384 36.2815C51.6606 36.1086 51.394 36.0221 51.0385 36.0221C50.7935 36.0221 50.5605 36.063 50.3395 36.1446C50.1185 36.2263 49.9312 36.3344 49.7775 36.4689L49.5469 36.087C49.739 35.9237 49.9696 35.7987 50.2386 35.7123C50.5077 35.621 50.7911 35.5754 51.089 35.5754C51.579 35.5754 51.9561 35.6979 52.2203 35.9429C52.4893 36.1831 52.6238 36.5506 52.6238 37.0454V39.3945H52.1338ZM50.8295 39.4306C50.5461 39.4306 50.2987 39.3849 50.0873 39.2936C49.8808 39.1976 49.7222 39.0679 49.6117 38.9045C49.5012 38.7364 49.446 38.5442 49.446 38.328C49.446 38.1311 49.4916 37.9533 49.5829 37.7948C49.679 37.6315 49.8327 37.5018 50.0441 37.4057C50.2603 37.3048 50.5485 37.2544 50.9088 37.2544H52.2131V37.6363H50.9232C50.5581 37.6363 50.3035 37.7011 50.1594 37.8308C50.0201 37.9605 49.9504 38.1215 49.9504 38.3136C49.9504 38.5298 50.0345 38.7028 50.2026 38.8325C50.3708 38.9622 50.6062 39.027 50.9088 39.027C51.197 39.027 51.4444 38.9622 51.651 38.8325C51.8624 38.698 52.0161 38.5058 52.1122 38.256L52.2275 38.6091C52.1314 38.8589 51.9633 39.0583 51.7231 39.2072C51.4877 39.3561 51.1898 39.4306 50.8295 39.4306ZM55.9663 39.4306C55.6348 39.4306 55.337 39.3561 55.0727 39.2072C54.8085 39.0534 54.5995 38.8325 54.4458 38.5442C54.2921 38.256 54.2152 37.9077 54.2152 37.4994C54.2152 37.0862 54.2921 36.7379 54.4458 36.4545C54.6043 36.1663 54.8157 35.9477 55.0799 35.7987C55.3442 35.6498 55.6396 35.5754 55.9663 35.5754C56.3266 35.5754 56.6484 35.657 56.9319 35.8204C57.2201 35.9789 57.4459 36.2023 57.6092 36.4905C57.7726 36.7788 57.8542 37.115 57.8542 37.4994C57.8542 37.8789 57.7726 38.2152 57.6092 38.5082C57.4459 38.7964 57.2201 39.0222 56.9319 39.1856C56.6484 39.3489 56.3266 39.4306 55.9663 39.4306ZM54.0135 39.3945V34.0477H54.5251V36.7283L54.453 37.4922L54.5035 38.256V39.3945H54.0135ZM55.9302 38.9766C56.1993 38.9766 56.4395 38.9165 56.6508 38.7964C56.8622 38.6715 57.0304 38.4986 57.1553 38.2776C57.2802 38.0518 57.3426 37.7924 57.3426 37.4994C57.3426 37.2015 57.2802 36.9421 57.1553 36.7211C57.0304 36.5001 56.8622 36.3296 56.6508 36.2095C56.4395 36.0846 56.1993 36.0221 55.9302 36.0221C55.6612 36.0221 55.4186 36.0846 55.2024 36.2095C54.9911 36.3296 54.8229 36.5001 54.698 36.7211C54.5779 36.9421 54.5179 37.2015 54.5179 37.4994C54.5179 37.7924 54.5779 38.0518 54.698 38.2776C54.8229 38.4986 54.9911 38.6715 55.2024 38.7964C55.4186 38.9165 55.6612 38.9766 55.9302 38.9766ZM60.4393 39.4306C60.0742 39.4306 59.7451 39.3489 59.4521 39.1856C59.1638 39.0174 58.9356 38.7892 58.7675 38.501C58.5993 38.2079 58.5153 37.8741 58.5153 37.4994C58.5153 37.1198 58.5993 36.786 58.7675 36.4977C58.9356 36.2095 59.1638 35.9837 59.4521 35.8204C59.7403 35.657 60.0694 35.5754 60.4393 35.5754C60.814 35.5754 61.1455 35.657 61.4337 35.8204C61.7267 35.9837 61.9549 36.2095 62.1183 36.4977C62.2864 36.786 62.3705 37.1198 62.3705 37.4994C62.3705 37.8741 62.2864 38.2079 62.1183 38.501C61.9549 38.7892 61.7267 39.0174 61.4337 39.1856C61.1407 39.3489 60.8092 39.4306 60.4393 39.4306ZM60.4393 38.9766C60.7131 38.9766 60.9557 38.9165 61.1671 38.7964C61.3785 38.6715 61.5442 38.4986 61.6643 38.2776C61.7892 38.0518 61.8516 37.7924 61.8516 37.4994C61.8516 37.2015 61.7892 36.9421 61.6643 36.7211C61.5442 36.5001 61.3785 36.3296 61.1671 36.2095C60.9557 36.0846 60.7155 36.0221 60.4465 36.0221C60.1775 36.0221 59.9373 36.0846 59.7259 36.2095C59.5145 36.3296 59.3464 36.5001 59.2215 36.7211C59.0966 36.9421 59.0341 37.2015 59.0341 37.4994C59.0341 37.7924 59.0966 38.0518 59.2215 38.2776C59.3464 38.4986 59.5145 38.6715 59.7259 38.7964C59.9373 38.9165 60.1751 38.9766 60.4393 38.9766ZM64.9787 39.4306C64.6568 39.4306 64.3758 39.3705 64.1356 39.2504C63.8954 39.1303 63.708 38.9502 63.5735 38.71C63.4438 38.4698 63.379 38.1695 63.379 37.8092V35.6114H63.8906V37.7516C63.8906 38.1551 63.9891 38.4602 64.186 38.6667C64.3878 38.8685 64.6688 38.9694 65.0291 38.9694C65.2934 38.9694 65.5216 38.9165 65.7137 38.8108C65.9107 38.7004 66.0596 38.5418 66.1605 38.3353C66.2662 38.1287 66.319 37.8813 66.319 37.593V35.6114H66.8306V39.3945H66.3406V38.3569L66.4199 38.5442C66.2998 38.8229 66.1124 39.0414 65.8578 39.2C65.608 39.3537 65.315 39.4306 64.9787 39.4306ZM69.4527 39.4306C69.0972 39.4306 68.8234 39.3345 68.6312 39.1423C68.4391 38.9502 68.343 38.6787 68.343 38.328V34.7755H68.8546V38.2992C68.8546 38.5202 68.9099 38.6907 69.0204 38.8108C69.1357 38.9309 69.299 38.991 69.5104 38.991C69.7362 38.991 69.9235 38.9261 70.0724 38.7964L70.2526 39.1639C70.1517 39.2552 70.0292 39.3225 69.8851 39.3657C69.7458 39.4089 69.6016 39.4306 69.4527 39.4306ZM67.6656 36.0365V35.6114H70.0076V36.0365H67.6656ZM74.5687 39.4378C74.194 39.4378 73.8337 39.3777 73.4878 39.2576C73.1468 39.1327 72.8825 38.9742 72.6952 38.782L72.9042 38.3713C73.0819 38.5442 73.3197 38.6907 73.6175 38.8108C73.9202 38.9261 74.2373 38.9838 74.5687 38.9838C74.8858 38.9838 75.1428 38.9454 75.3398 38.8685C75.5415 38.7868 75.6881 38.6787 75.7793 38.5442C75.8754 38.4097 75.9235 38.2608 75.9235 38.0975C75.9235 37.9005 75.8658 37.742 75.7505 37.6219C75.64 37.5018 75.4935 37.4081 75.311 37.3408C75.1284 37.2688 74.9266 37.2063 74.7057 37.1535C74.4847 37.1006 74.2637 37.0454 74.0427 36.9877C73.8217 36.9253 73.6175 36.8436 73.4302 36.7427C73.2476 36.6418 73.0987 36.5097 72.9834 36.3464C72.8729 36.1783 72.8177 35.9597 72.8177 35.6907C72.8177 35.4408 72.8825 35.2127 73.0122 35.0061C73.1468 34.7947 73.3509 34.6266 73.6248 34.5017C73.8986 34.372 74.2493 34.3071 74.6768 34.3071C74.9603 34.3071 75.2413 34.3479 75.5199 34.4296C75.7986 34.5065 76.0388 34.6146 76.2405 34.7539L76.0604 35.179C75.8442 35.0349 75.6136 34.9292 75.3686 34.862C75.1284 34.7947 74.8954 34.7611 74.6696 34.7611C74.367 34.7611 74.1172 34.8019 73.9202 34.8836C73.7232 34.9653 73.5767 35.0757 73.4806 35.2151C73.3894 35.3496 73.3437 35.5033 73.3437 35.6762C73.3437 35.8732 73.399 36.0317 73.5095 36.1518C73.6248 36.2719 73.7737 36.3656 73.9562 36.4329C74.1436 36.5001 74.3478 36.5602 74.5687 36.613C74.7897 36.6659 75.0083 36.7235 75.2245 36.786C75.4455 36.8484 75.6472 36.9301 75.8298 37.031C76.0171 37.127 76.1661 37.2568 76.2766 37.4201C76.3919 37.5834 76.4495 37.7972 76.4495 38.0614C76.4495 38.3064 76.3822 38.5346 76.2477 38.746C76.1132 38.9526 75.9066 39.1207 75.628 39.2504C75.3542 39.3753 75.0011 39.4378 74.5687 39.4378ZM77.5033 39.3945V34.0477H78.0149V39.3945H77.5033ZM81.0454 39.4306C80.6515 39.4306 80.3056 39.3489 80.0077 39.1856C79.7099 39.0174 79.4769 38.7892 79.3088 38.501C79.1406 38.2079 79.0565 37.8741 79.0565 37.4994C79.0565 37.1246 79.1358 36.7932 79.2943 36.5049C79.4577 36.2167 79.6787 35.9909 79.9573 35.8276C80.2407 35.6594 80.5578 35.5754 80.9085 35.5754C81.264 35.5754 81.5786 35.657 81.8525 35.8204C82.1311 35.9789 82.3497 36.2047 82.5082 36.4977C82.6667 36.786 82.746 37.1198 82.746 37.4994C82.746 37.5234 82.7436 37.5498 82.7388 37.5786C82.7388 37.6026 82.7388 37.6291 82.7388 37.6579H79.4457V37.276H82.465L82.2632 37.4273C82.2632 37.1535 82.2032 36.9109 82.0831 36.6995C81.9678 36.4833 81.8092 36.3152 81.6075 36.1951C81.4057 36.075 81.1727 36.0149 80.9085 36.0149C80.6491 36.0149 80.4161 36.075 80.2095 36.1951C80.0029 36.3152 79.842 36.4833 79.7267 36.6995C79.6114 36.9157 79.5538 37.1631 79.5538 37.4417V37.521C79.5538 37.8092 79.6162 38.0638 79.7411 38.2848C79.8708 38.501 80.0486 38.6715 80.2744 38.7964C80.5049 38.9165 80.7668 38.9766 81.0598 38.9766C81.2904 38.9766 81.5042 38.9358 81.7011 38.8541C81.9029 38.7724 82.0759 38.6475 82.22 38.4794L82.5082 38.8108C82.3401 39.0126 82.1287 39.1663 81.8741 39.272C81.6243 39.3777 81.348 39.4306 81.0454 39.4306ZM85.3943 39.4306C85.0004 39.4306 84.6545 39.3489 84.3567 39.1856C84.0588 39.0174 83.8258 38.7892 83.6577 38.501C83.4895 38.2079 83.4055 37.8741 83.4055 37.4994C83.4055 37.1246 83.4847 36.7932 83.6433 36.5049C83.8066 36.2167 84.0276 35.9909 84.3062 35.8276C84.5896 35.6594 84.9067 35.5754 85.2574 35.5754C85.6129 35.5754 85.9276 35.657 86.2014 35.8204C86.48 35.9789 86.6986 36.2047 86.8571 36.4977C87.0157 36.786 87.0949 37.1198 87.0949 37.4994C87.0949 37.5234 87.0925 37.5498 87.0877 37.5786C87.0877 37.6026 87.0877 37.6291 87.0877 37.6579H83.7946V37.276H86.8139L86.6121 37.4273C86.6121 37.1535 86.5521 36.9109 86.432 36.6995C86.3167 36.4833 86.1581 36.3152 85.9564 36.1951C85.7546 36.075 85.5216 36.0149 85.2574 36.0149C84.998 36.0149 84.765 36.075 84.5584 36.1951C84.3519 36.3152 84.1909 36.4833 84.0756 36.6995C83.9603 36.9157 83.9027 37.1631 83.9027 37.4417V37.521C83.9027 37.8092 83.9651 38.0638 84.09 38.2848C84.2197 38.501 84.3975 38.6715 84.6233 38.7964C84.8539 38.9165 85.1157 38.9766 85.4087 38.9766C85.6393 38.9766 85.8531 38.9358 86.0501 38.8541C86.2518 38.7724 86.4248 38.6475 86.5689 38.4794L86.8571 38.8108C86.689 39.0126 86.4776 39.1663 86.223 39.272C85.9732 39.3777 85.697 39.4306 85.3943 39.4306ZM90.0891 39.4306C89.7625 39.4306 89.467 39.3561 89.2028 39.2072C88.9386 39.0534 88.7272 38.8349 88.5687 38.5514C88.4149 38.2632 88.3381 37.9125 88.3381 37.4994C88.3381 37.0862 88.4149 36.7379 88.5687 36.4545C88.7224 36.1663 88.9314 35.9477 89.1956 35.7987C89.4598 35.6498 89.7577 35.5754 90.0891 35.5754C90.4494 35.5754 90.7713 35.657 91.0547 35.8204C91.343 35.9789 91.5688 36.2047 91.7321 36.4977C91.8954 36.786 91.9771 37.1198 91.9771 37.4994C91.9771 37.8837 91.8954 38.22 91.7321 38.5082C91.5688 38.7964 91.343 39.0222 91.0547 39.1856C90.7713 39.3489 90.4494 39.4306 90.0891 39.4306ZM88.1363 40.7925V35.6114H88.6263V36.7499L88.5759 37.5066L88.6479 38.2704V40.7925H88.1363ZM90.0531 38.9766C90.3221 38.9766 90.5623 38.9165 90.7737 38.7964C90.9851 38.6715 91.1532 38.4986 91.2781 38.2776C91.403 38.0518 91.4655 37.7924 91.4655 37.4994C91.4655 37.2063 91.403 36.9493 91.2781 36.7283C91.1532 36.5073 90.9851 36.3344 90.7737 36.2095C90.5623 36.0846 90.3221 36.0221 90.0531 36.0221C89.7841 36.0221 89.5415 36.0846 89.3253 36.2095C89.1139 36.3344 88.9458 36.5073 88.8209 36.7283C88.7008 36.9493 88.6407 37.2063 88.6407 37.4994C88.6407 37.7924 88.7008 38.0518 88.8209 38.2776C88.9458 38.4986 89.1139 38.6715 89.3253 38.7964C89.5415 38.9165 89.7841 38.9766 90.0531 38.9766Z" fill="white"/>
</g>
<defs>
<clipPath id="clip0_51_6751">
<rect width="116.099" height="44" fill="white"/>
</clipPath>
</defs>
</svg>
