<svg width="44" height="44" viewBox="0 0 44 44" fill="none" xmlns="http://www.w3.org/2000/svg">
<g clip-path="url(#clip0_39_5399)">
<g clip-path="url(#clip1_39_5399)">
<path d="M37.8265 7.39648H5.55065C2.9511 7.39648 0.84375 9.50383 0.84375 12.1034V30.931C0.84375 33.5305 2.9511 35.6379 5.55065 35.6379H37.8265C40.4261 35.6379 42.5334 33.5305 42.5334 30.931V12.1034C42.5334 9.50383 40.4261 7.39648 37.8265 7.39648Z" fill="white"/>
<path d="M25.8152 14.1133H17.5781V28.9155H25.8152V14.1133Z" fill="#FF5F00"/>
<path d="M18.0908 21.5154C18.0896 20.0897 18.4126 18.6826 19.0355 17.4003C19.6584 16.1182 20.5648 14.9944 21.6863 14.1142C20.2976 13.0227 18.6298 12.3438 16.8734 12.1553C15.1172 11.9668 13.3433 12.2762 11.7546 13.0482C10.1658 13.8203 8.8263 15.0236 7.88917 16.5209C6.95203 18.0183 6.45508 19.7489 6.45508 21.5154C6.45508 23.2818 6.95203 25.0124 7.88917 26.5098C8.8263 28.007 10.1658 29.2105 11.7546 29.9825C13.3433 30.7545 15.1172 31.0639 16.8734 30.8753C18.6298 30.6868 20.2976 30.0081 21.6863 28.9165C20.565 28.0364 19.6584 26.9127 19.0355 25.6304C18.4126 24.3481 18.0896 22.941 18.0908 21.5154Z" fill="#EB001B"/>
<path d="M36.9185 21.5154C36.9185 23.2818 36.4217 25.0124 35.4845 26.5098C34.5474 28.007 33.208 29.2105 31.6193 29.9825C30.0305 30.7544 28.2567 31.0639 26.5004 30.8753C24.7442 30.6868 23.0762 30.0081 21.6875 28.9165C22.808 28.0355 23.7139 26.9115 24.3367 25.6296C24.9596 24.3474 25.2832 22.9407 25.2832 21.5154C25.2832 20.09 24.9596 18.6833 24.3367 17.4013C23.7139 16.1192 22.808 14.9952 21.6875 14.1142C23.0762 13.0227 24.7442 12.3438 26.5004 12.1553C28.2567 11.9668 30.0305 12.2763 31.6193 13.0483C33.208 13.8203 34.5474 15.0237 35.4845 16.5209C36.4217 18.0183 36.9185 19.7491 36.9185 21.5154Z" fill="#F79E1B"/>
<path d="M36.0192 27.3496V27.0466H36.1414V26.9849H35.8301V27.0466H35.9525V27.3496H36.0192ZM36.6234 27.3496V26.9844H36.5279L36.4182 27.2357L36.3086 26.9844H36.213V27.3496H36.2803V27.0741L36.3833 27.3117H36.4531L36.556 27.0735V27.3496H36.6234Z" fill="#F79E1B"/>
<path d="M37.8265 7.39648H5.55065C2.9511 7.39648 0.84375 9.50383 0.84375 12.1034V30.931C0.84375 33.5305 2.9511 35.6379 5.55065 35.6379H37.8265C40.4261 35.6379 42.5334 33.5305 42.5334 30.931V12.1034C42.5334 9.50383 40.4261 7.39648 37.8265 7.39648Z" stroke="#EFEFF3" stroke-width="1.34483"/>
</g>
</g>
<defs>
<clipPath id="clip0_39_5399">
<rect width="43.0345" height="43.0345" fill="white" transform="translate(0.171875)"/>
</clipPath>
<clipPath id="clip1_39_5399">
<rect width="43.0345" height="43.0345" fill="white" transform="translate(0.171875)"/>
</clipPath>
</defs>
</svg>
