<svg width="178" height="29" viewBox="0 0 178 29" fill="none" xmlns="http://www.w3.org/2000/svg">
<path fill-rule="evenodd" clip-rule="evenodd" d="M12.3341 0.353341C12.3341 0.411288 11.901 0.478304 11.3716 0.502331C10.7462 0.530716 10.3922 0.597025 10.3607 0.691483C10.332 0.77758 10.1001 0.83694 9.7921 0.83694C9.5059 0.83694 9.27187 0.88994 9.27187 0.954719C9.27187 1.0195 9.1356 1.0725 8.96906 1.0725C8.80241 1.0725 8.58664 1.152 8.48947 1.24917C8.3923 1.34633 8.21057 1.42583 8.08573 1.42583C7.96076 1.42583 7.85853 1.47883 7.85853 1.54361C7.85853 1.60839 7.75253 1.66139 7.62297 1.66139C7.49212 1.66139 7.38742 1.73995 7.38742 1.83806C7.38742 1.93523 7.29025 2.01473 7.17141 2.01473C6.93621 2.01473 5.38518 3.43396 5.38518 3.64914C5.38518 3.72193 5.32841 3.78141 5.25904 3.78141C5.12171 3.78141 4.79629 4.07138 4.79629 4.19363C4.79629 4.23532 4.73009 4.34321 4.64906 4.43355C4.28159 4.8433 4.20739 4.96143 4.20739 5.13657C4.20739 5.2395 4.07489 5.44656 3.91295 5.59661C3.71955 5.77599 3.6185 5.99623 3.6185 6.23886C3.6185 6.44191 3.57127 6.60809 3.51344 6.60809C3.45573 6.60809 3.37517 6.74059 3.33454 6.90254C3.2939 7.06448 3.20863 7.19699 3.14515 7.19699C3.08155 7.19699 3.02961 7.40899 3.02961 7.6681C3.02961 7.92721 2.98791 8.13921 2.93691 8.13921C2.88592 8.13921 2.83315 8.31152 2.81973 8.52199C2.77579 9.20782 2.65801 9.78552 2.54825 9.85336C2.48912 9.88988 2.44071 10.3671 2.44071 10.914C2.44071 11.8959 2.43706 11.9081 2.14627 11.9081C1.98432 11.9081 1.85182 11.9611 1.85182 12.0259C1.85182 12.0907 1.78045 12.1437 1.69317 12.1437C1.4986 12.1437 1.02737 12.5392 1.02737 12.7025C1.02737 12.7679 0.947869 12.8875 0.850702 12.9681C0.73787 13.0618 0.674034 13.3223 0.674034 13.6892C0.674034 14.0052 0.621033 14.2637 0.556255 14.2637C0.491477 14.2637 0.438477 14.3697 0.438477 14.4993C0.438477 14.6288 0.491477 14.7348 0.556255 14.7348C0.621033 14.7348 0.674034 14.8087 0.674034 14.8989C0.674034 14.9891 0.753534 15.0935 0.850702 15.1308C0.947869 15.168 1.02737 15.3086 1.02737 15.4431C1.02737 15.8613 1.49978 16.2061 2.26087 16.3437C2.96235 16.4705 3.6185 16.3704 3.6185 16.1366C3.6185 16.0782 3.73922 16.0304 3.88668 16.0304C4.14085 16.0304 4.55979 15.8011 4.88462 15.4841C5.05905 15.3139 5.08449 14.2637 4.91406 14.2637C4.84929 14.2637 4.79629 13.9987 4.79629 13.6748C4.79629 13.3509 4.74906 13.0859 4.69123 13.0859C4.63352 13.0859 4.55296 12.9534 4.51232 12.7915C4.47169 12.6295 4.38642 12.497 4.32293 12.497C4.25933 12.497 4.20739 12.4175 4.20739 12.3204C4.20739 12.2105 4.09621 12.1437 3.91295 12.1437C3.52899 12.1437 3.52899 11.8621 3.91295 11.5063C4.07489 11.3561 4.20739 11.1972 4.20739 11.1532C4.20739 11.109 4.3267 10.9445 4.47239 10.7875C4.61809 10.6305 4.88309 10.3447 5.06129 10.1525C5.23937 9.96043 5.38518 9.74678 5.38518 9.67787C5.38518 9.60897 5.46468 9.55256 5.56185 9.55256C5.65901 9.55256 5.73934 9.48637 5.74028 9.40533C5.74158 9.30723 5.78021 9.317 5.85629 9.43478C6.0279 9.70037 5.99692 10.5292 5.7974 11.0067C5.70024 11.2391 5.62074 11.6166 5.62074 11.8455C5.62074 12.0988 5.56314 12.2622 5.47351 12.2632C5.35833 12.2646 5.35891 12.2858 5.47669 12.3605C5.58835 12.4314 5.63793 13.0758 5.66891 14.8615C5.69317 16.2536 5.76619 17.4067 5.8424 17.5986C5.91483 17.7809 5.97407 18.1387 5.97407 18.3936C5.97407 18.6485 6.02707 18.8571 6.09185 18.8571C6.15663 18.8571 6.21128 18.9763 6.2134 19.1221C6.2154 19.2679 6.2949 19.49 6.39007 19.6157C6.48511 19.7415 6.56297 19.9667 6.56297 20.1162C6.56297 20.2658 6.6076 20.3882 6.66225 20.3882C6.71678 20.3882 6.8613 20.5737 6.98344 20.8004C7.10557 21.0271 7.24066 21.2126 7.28365 21.2126C7.32664 21.2126 7.39519 21.3451 7.43582 21.5071C7.47646 21.669 7.56173 21.8015 7.62521 21.8015C7.68881 21.8015 7.74075 21.8583 7.74075 21.9277C7.74075 22.0908 8.04038 22.3904 8.2035 22.3904C8.27288 22.3904 8.32964 22.4472 8.32964 22.5166C8.32964 22.6797 8.62927 22.9793 8.7924 22.9793C8.86177 22.9793 8.91854 23.0361 8.91854 23.1055C8.91854 23.2408 9.2078 23.5682 9.32735 23.5682C9.39802 23.5682 9.56974 23.6984 9.93132 24.0259C10.0697 24.1513 10.079 24.2194 9.97136 24.3203C9.86795 24.4172 9.81719 24.413 9.77738 24.3043C9.68186 24.0439 9.04527 24.1353 8.75223 24.4516C8.50419 24.7191 8.39195 24.746 7.52109 24.746C6.56296 24.746 6.56297 24.746 6.56297 25.4401C6.56297 26.2587 6.58899 26.2771 7.75041 26.2771C8.21505 26.2771 8.5652 26.3278 8.5652 26.3949C8.5652 26.4597 8.6447 26.5127 8.74187 26.5127C8.83904 26.5127 8.91854 26.5657 8.91854 26.6305C8.91854 26.8018 9.71083 26.7751 9.7921 26.601C9.84699 26.4832 9.87455 26.4832 9.92943 26.601C10.0188 26.7925 10.8805 26.7925 10.9699 26.601C11.0248 26.4832 11.0523 26.4832 11.1072 26.601C11.2165 26.8352 11.9593 26.7774 12.2434 26.5127C12.4309 26.338 12.6591 26.2771 13.1256 26.2771C13.8272 26.2771 14.035 26.4834 13.7028 26.8502C13.5979 26.9662 13.5119 27.1234 13.5119 27.1992C13.5119 27.2751 13.4589 27.3371 13.3941 27.3371C13.3293 27.3371 13.2763 27.4696 13.2763 27.6316C13.2763 27.8148 13.2096 27.926 13.0997 27.926C13.0025 27.926 12.923 28.0055 12.923 28.1027C12.923 28.1999 12.8662 28.2794 12.7969 28.2794C12.7274 28.2794 12.7526 28.3613 12.8528 28.4616C13.045 28.6537 18.1377 28.7487 18.6058 28.5689C18.8581 28.472 18.8777 28.2794 18.6353 28.2794C18.5254 28.2794 18.4586 28.1682 18.4586 27.9849C18.4586 27.823 18.4056 27.6905 18.3408 27.6905C18.2761 27.6905 18.223 27.611 18.223 27.5138C18.223 27.4166 18.1711 27.3371 18.1075 27.3371C18.044 27.3371 17.9588 27.2046 17.9181 27.0427C17.8775 26.8807 17.7969 26.7482 17.7392 26.7482C17.5587 26.7482 17.6246 26.4238 17.8205 26.3486C18.2431 26.1864 19.047 26.2767 19.2831 26.5127C19.5251 26.7547 20.2253 26.8422 20.2253 26.6305C20.2253 26.5657 20.3048 26.5127 20.402 26.5127C20.4991 26.5127 20.5786 26.5657 20.5786 26.6305C20.5786 26.6952 20.7641 26.7482 20.9908 26.7482C21.2176 26.7482 21.4031 26.6952 21.4031 26.6305C21.4031 26.4614 21.6281 26.4854 21.8171 26.6743C21.9864 26.8436 22.5809 26.7989 22.5809 26.6167C22.5809 26.5596 22.6604 26.5127 22.7575 26.5127C22.8547 26.5127 22.9342 26.4597 22.9342 26.3949C22.9342 26.3278 23.2844 26.2771 23.749 26.2771C24.9104 26.2771 24.9364 26.2587 24.9364 25.4401C24.9364 24.746 24.9364 24.746 23.8963 24.746C22.9075 24.746 22.8485 24.7315 22.6986 24.4516C22.5382 24.1518 21.7564 24.0053 21.7564 24.2749C21.7564 24.3397 21.6769 24.3927 21.5797 24.3927C21.355 24.3927 21.3531 24.2191 21.5756 24.0182C21.9345 23.6947 22.1021 23.5682 22.1721 23.5682C22.2916 23.5682 22.5809 23.2408 22.5809 23.1055C22.5809 23.0361 22.6376 22.9793 22.707 22.9793C22.8701 22.9793 23.1698 22.6797 23.1698 22.5166C23.1698 22.4472 23.2265 22.3904 23.2959 22.3904C23.4312 22.3904 23.7586 22.1012 23.7586 21.9816C23.7586 21.9125 23.8804 21.7503 24.2003 21.3937C24.2813 21.3033 24.3475 21.1727 24.3475 21.1032C24.3475 21.0339 24.4005 20.9771 24.4653 20.9771C24.5301 20.9771 24.5831 20.8446 24.5831 20.6826C24.5831 20.4994 24.6499 20.3882 24.7598 20.3882C24.8697 20.3882 24.9364 20.277 24.9364 20.0937C24.9364 19.9318 24.9894 19.7993 25.0542 19.7993C25.119 19.7993 25.172 19.6769 25.172 19.5273C25.172 19.3778 25.2498 19.1526 25.3449 19.0268C25.4401 18.9011 25.5196 18.5773 25.5216 18.3074C25.5237 18.0376 25.5808 17.7982 25.6486 17.7756C25.7271 17.7495 25.7704 17.1342 25.7677 16.0874C25.763 14.2993 25.843 13.547 26.01 13.8104C26.0696 13.9045 26.1106 13.4887 26.1106 12.7915C26.1106 12.0749 26.0703 11.6773 26.0077 11.7761C25.9377 11.8867 25.8784 11.7461 25.8219 11.3344C25.7762 11.0022 25.6923 10.7303 25.6357 10.7303C25.5789 10.7303 25.5177 10.0811 25.4995 9.28756C25.4664 7.84477 25.4664 7.84477 25.0837 7.8079C24.7461 7.77528 24.5145 7.55032 24.8187 7.55032C24.9817 7.55032 24.9661 7.33102 24.7892 7.13374C24.7083 7.04352 24.5758 6.89053 24.4948 6.79383C24.4138 6.69713 24.3475 6.37348 24.3475 6.07467C24.3475 5.41806 24.1554 5.19475 23.5903 5.19475C23.359 5.19475 23.1698 5.13798 23.1698 5.06861C23.1698 4.99912 23.1036 4.8685 23.0225 4.77817C22.673 4.38844 22.5809 4.25523 22.5809 4.13969C22.5809 4.0722 22.5368 4.01696 22.483 4.01696C22.4292 4.01696 22.3142 3.88446 22.2275 3.72252C22.1408 3.56057 22.034 3.42807 21.9901 3.42807C21.9461 3.42807 21.576 3.11007 21.1675 2.7214C20.7591 2.33273 20.3599 2.01473 20.2806 2.01473C20.2013 2.01473 20.0704 1.93523 19.9897 1.83806C19.909 1.74089 19.7436 1.66139 19.622 1.66139C19.5004 1.66139 19.4008 1.60839 19.4008 1.54361C19.4008 1.47883 19.2911 1.42583 19.1569 1.42583C19.0226 1.42583 18.8334 1.34633 18.7362 1.24917C18.639 1.152 18.4308 1.0725 18.2736 1.0725C18.1162 1.0725 17.9875 1.0195 17.9875 0.954719C17.9875 0.88994 17.8003 0.83694 17.5715 0.83694C17.3427 0.83694 16.9652 0.757439 16.7327 0.660272C16.4958 0.561338 15.9533 0.483604 15.4998 0.483604C15.0382 0.483604 14.6897 0.432959 14.6897 0.365825C14.6897 0.295158 14.2186 0.248047 13.5119 0.248047C12.8641 0.248047 12.3341 0.295394 12.3341 0.353341ZM139.888 7.32171C139.888 7.39026 139.835 7.4137 139.771 7.37365C139.693 7.32536 139.653 9.80649 139.653 14.7279C139.653 22.1549 139.653 22.1549 139.947 22.1549C140.235 22.1549 140.242 22.1346 140.242 21.2813C140.242 20.6928 140.29 20.3884 140.389 20.3484C140.507 20.3009 140.507 20.2871 140.389 20.2797C140.284 20.2731 140.242 20.0005 140.242 19.338C140.242 18.7023 140.289 18.3867 140.389 18.3461C140.507 18.2987 140.507 18.2849 140.389 18.2775C140.284 18.2709 140.242 17.9982 140.242 17.3357C140.242 16.7001 140.289 16.3844 140.389 16.3439C140.507 16.2964 140.507 16.2827 140.389 16.2752C140.209 16.2638 140.179 14.8526 140.359 14.8526C140.424 14.8526 140.477 14.7816 140.477 14.6949C140.477 14.5148 141.346 13.6748 141.533 13.6748C141.6 13.6748 141.655 13.5953 141.655 13.4981C141.655 13.401 141.735 13.3215 141.832 13.3215C141.928 13.3215 142.008 13.2685 142.008 13.2037C142.008 13.1389 142.101 13.0843 142.215 13.0821C142.328 13.0801 142.523 13.0006 142.649 12.9055C142.973 12.6603 144.749 12.6632 144.953 12.9092C145.034 13.0064 145.146 13.0859 145.203 13.0859C145.367 13.0859 145.777 13.5409 145.777 13.7239C145.777 13.8157 145.827 13.9084 145.887 13.93C145.947 13.9516 146.051 14.3138 146.115 14.7348C146.181 15.1559 146.272 15.6517 146.317 15.8368C146.373 16.0682 146.347 16.2055 146.235 16.2767C146.118 16.3511 146.113 16.3807 146.219 16.382C146.324 16.3832 146.366 16.6497 146.366 17.3162C146.366 17.9518 146.319 18.2675 146.219 18.308C146.101 18.3554 146.101 18.3692 146.219 18.3766C146.324 18.3832 146.366 18.6559 146.366 19.3184C146.366 19.9541 146.319 20.2697 146.219 20.3102C146.101 20.3577 146.101 20.3715 146.219 20.3789C146.323 20.3855 146.366 20.6484 146.366 21.2715C146.366 22.1352 146.373 22.1549 146.661 22.1549C146.955 22.1549 146.955 22.1549 146.955 18.6313C146.955 16.6219 146.909 15.0909 146.848 15.0685C146.789 15.0469 146.704 14.7378 146.661 14.3815C146.617 14.0252 146.532 13.716 146.473 13.6945C146.414 13.6728 146.366 13.5271 146.366 13.3706C146.366 13.196 146.298 13.0859 146.19 13.0859C146.093 13.0859 146.013 13.0291 146.013 12.9598C146.013 12.769 145.702 12.497 145.483 12.497C145.377 12.497 145.217 12.4239 145.127 12.3346C144.862 12.0697 142.382 12.1254 142.547 12.3927C142.582 12.45 142.476 12.497 142.31 12.497C142.144 12.497 142.008 12.55 142.008 12.6148C142.008 12.6796 141.928 12.7326 141.832 12.7326C141.735 12.7326 141.655 12.7845 141.655 12.8481C141.655 12.9116 141.523 12.9969 141.361 13.0375C141.198 13.0781 141.066 13.1884 141.066 13.2823C141.066 13.3762 141.013 13.4204 140.948 13.3804C140.884 13.3403 140.831 13.3903 140.831 13.4912C140.831 13.6085 140.725 13.6748 140.536 13.6748C140.258 13.6748 140.242 13.6388 140.242 13.0368C140.242 12.6367 140.297 12.3768 140.389 12.3394C140.507 12.292 140.507 12.2782 140.389 12.2708C140.284 12.2641 140.242 11.9797 140.242 11.2701C140.242 10.5874 140.288 10.2604 140.389 10.2194C140.507 10.172 140.507 10.1582 140.389 10.1508C140.284 10.1442 140.242 9.8715 140.242 9.209C140.242 8.57335 140.289 8.2577 140.389 8.21718C140.507 8.16972 140.507 8.15594 140.389 8.14852C140.297 8.14275 140.242 7.96149 140.242 7.6681C140.242 7.32784 140.192 7.19699 140.065 7.19699C139.968 7.19699 139.888 7.25317 139.888 7.32171ZM170.275 14.6759C170.275 22.1549 170.275 22.1549 170.57 22.1549C170.864 22.1549 170.864 22.1549 170.864 20.6826C170.864 19.7143 170.908 19.2104 170.99 19.2104C171.127 19.2104 171.453 18.9206 171.453 18.7987C171.453 18.7573 171.639 18.5485 171.865 18.3347C172.091 18.1208 172.277 17.9086 172.277 17.863C172.277 17.8176 172.343 17.7104 172.425 17.625C172.506 17.5397 172.672 17.3315 172.795 17.1624C173.078 16.7699 173.407 16.7638 173.504 17.1493C173.545 17.3112 173.63 17.4437 173.693 17.4437C173.757 17.4437 173.809 17.5232 173.809 17.6204C173.809 17.7176 173.862 17.7971 173.926 17.7971C173.991 17.7971 174.044 17.9047 174.044 18.0363C174.044 18.1679 174.124 18.3061 174.221 18.3433C174.317 18.3807 174.398 18.5115 174.398 18.6341C174.398 18.7567 174.451 18.8571 174.515 18.8571C174.58 18.8571 174.633 18.9366 174.633 19.0337C174.633 19.1309 174.713 19.2104 174.81 19.2104C174.919 19.2104 174.986 19.3216 174.986 19.5049C174.986 19.6668 175.039 19.7993 175.104 19.7993C175.169 19.7993 175.222 19.8788 175.222 19.976C175.222 20.0731 175.279 20.1526 175.347 20.1526C175.415 20.1526 175.445 20.196 175.412 20.249C175.38 20.302 175.455 20.4196 175.581 20.5106C175.707 20.6014 175.811 20.7965 175.811 20.9442C175.811 21.1043 175.883 21.2126 175.988 21.2126C176.084 21.2126 176.164 21.2921 176.164 21.3893C176.164 21.4865 176.214 21.566 176.274 21.566C176.334 21.566 176.401 21.6852 176.421 21.831C176.449 22.0261 176.552 22.1074 176.812 22.1393C177.121 22.1774 177.136 22.1947 176.93 22.2783C176.706 22.3691 176.707 22.3743 176.959 22.3822C177.165 22.3885 177.224 22.3253 177.224 22.096C177.224 21.934 177.171 21.8015 177.106 21.8015C177.042 21.8015 176.989 21.7448 176.989 21.6754C176.989 21.6059 176.923 21.4753 176.841 21.385C176.536 21.0455 176.446 20.9065 176.243 20.4765C176.129 20.2337 175.985 20.0349 175.923 20.0349C175.861 20.0349 175.811 19.9289 175.811 19.7993C175.811 19.6697 175.758 19.5637 175.693 19.5637C175.628 19.5637 175.575 19.4899 175.575 19.3997C175.575 19.3095 175.495 19.2051 175.399 19.1678C175.302 19.1306 175.222 18.9924 175.222 18.8607C175.222 18.7292 175.169 18.6215 175.104 18.6215C175.039 18.6215 174.986 18.542 174.986 18.4448C174.986 18.3477 174.937 18.2682 174.877 18.2682C174.816 18.2682 174.73 18.1513 174.685 18.0087C174.639 17.866 174.542 17.6822 174.471 17.6005C174.133 17.2194 174.044 17.0922 174.044 16.9875C174.044 16.9253 173.982 16.8537 173.905 16.8281C173.525 16.7011 173.857 15.4415 174.271 15.4415C174.341 15.4415 174.398 15.3806 174.398 15.3062C174.398 15.2317 174.584 14.9906 174.81 14.7705C175.036 14.5503 175.222 14.3006 175.222 14.2156C175.222 14.1306 175.354 13.9616 175.516 13.8401C175.679 13.7184 175.811 13.5747 175.811 13.5206C175.811 13.3802 176.124 13.0859 176.274 13.0859C176.389 13.0859 176.413 13.0196 176.447 12.5854C176.454 12.5044 176.512 12.3991 176.576 12.3516C176.641 12.304 176.575 12.2643 176.429 12.2632C176.283 12.2623 176.164 12.3145 176.164 12.3792C176.164 12.444 176.108 12.497 176.038 12.497C175.874 12.497 175.575 12.7967 175.575 12.9598C175.575 13.0291 175.495 13.0859 175.399 13.0859C175.302 13.0859 175.222 13.1654 175.222 13.2626C175.222 13.3598 175.169 13.4393 175.104 13.4393C175.039 13.4393 174.986 13.5453 174.986 13.6748C174.986 13.8057 174.907 13.9104 174.81 13.9104C174.713 13.9104 174.633 13.9669 174.633 14.036C174.633 14.1052 174.447 14.3367 174.221 14.5505C173.995 14.7644 173.807 14.986 173.806 15.0432C173.805 15.1003 173.619 15.3585 173.394 15.6169C173.169 15.8753 172.984 16.1271 172.984 16.1763C172.984 16.2257 172.904 16.2659 172.807 16.2659C172.711 16.2659 172.631 16.3212 172.631 16.3887C172.631 16.5042 172.539 16.6374 172.189 17.0271C172.108 17.1175 172.042 17.2258 172.042 17.2679C172.042 17.3099 171.83 17.5543 171.571 17.8108C171.312 18.0674 171.1 18.3547 171.1 18.4494C171.1 18.544 171.047 18.6215 170.982 18.6215C170.905 18.6215 170.864 16.6389 170.864 12.9092C170.864 7.19699 170.864 7.19699 170.57 7.19699C170.275 7.19699 170.275 7.19699 170.275 14.6759ZM36.0076 15.4415C36.0076 22.1549 36.0076 22.1549 37.0971 22.1764C38.1865 22.1981 38.1865 22.1981 37.2443 22.2726C36.3021 22.3472 36.3021 22.3472 37.4799 22.3605C38.2295 22.369 38.572 22.3371 38.4221 22.2726C38.1974 22.1761 38.1987 22.171 38.4515 22.1631C38.7441 22.154 38.7238 22.3768 38.7305 19.0926C38.7348 17.034 38.5753 13.9104 38.4659 13.9104C38.4094 13.9104 38.3632 13.7249 38.3632 13.4981C38.3632 13.2714 38.4162 13.0859 38.481 13.0859C38.5458 13.0859 38.5988 13.1936 38.5988 13.3251C38.5988 13.4568 38.6783 13.595 38.7754 13.6322C38.8845 13.6741 38.9521 13.853 38.9521 14.0996C38.9521 14.3194 38.9983 14.4993 39.0548 14.4993C39.1113 14.4993 39.1914 14.7113 39.2329 14.9704C39.2743 15.2295 39.3605 15.4415 39.4246 15.4415C39.4886 15.4415 39.541 15.627 39.541 15.8537C39.541 16.0804 39.594 16.2659 39.6588 16.2659C39.7235 16.2659 39.7765 16.3757 39.7765 16.5099C39.7765 16.6441 39.856 16.8334 39.9532 16.9306C40.0504 17.0277 40.1299 17.2625 40.1299 17.4521C40.1299 17.6418 40.1829 17.7971 40.2477 17.7971C40.3124 17.7971 40.3654 17.9258 40.3654 18.0831C40.3654 18.2404 40.4449 18.4486 40.5421 18.5458C40.6393 18.6429 40.7188 18.8322 40.7188 18.9665C40.7188 19.1006 40.7718 19.2104 40.8365 19.2104C40.9013 19.2104 40.956 19.3827 40.9581 19.5932C40.9601 19.8037 41.0396 20.0789 41.1348 20.2046C41.2298 20.3304 41.3077 20.5556 41.3077 20.7051C41.3077 20.9679 41.3416 20.9771 42.3088 20.9771C43.2981 20.9771 43.3099 20.9737 43.3099 20.6826C43.3099 20.5207 43.3561 20.3882 43.4126 20.3882C43.4691 20.3882 43.5492 20.1762 43.5907 19.9171C43.6321 19.658 43.7184 19.446 43.7824 19.446C43.8464 19.446 43.8988 19.2832 43.8988 19.0843C43.8988 18.8852 43.9783 18.6429 44.0755 18.5458C44.1726 18.4486 44.2521 18.2404 44.2521 18.0831C44.2521 17.9258 44.3051 17.7971 44.3699 17.7971C44.4347 17.7971 44.4877 17.6381 44.4877 17.4437C44.4877 17.2494 44.5407 17.0904 44.6055 17.0904C44.6702 17.0904 44.7232 16.9617 44.7232 16.8043C44.7232 16.6471 44.8027 16.4388 44.8999 16.3417C44.9971 16.2445 45.0766 16.0022 45.0766 15.8032C45.0766 15.6043 45.1296 15.4415 45.1944 15.4415C45.2591 15.4415 45.3121 15.3191 45.3121 15.1695C45.3121 15.02 45.39 14.7948 45.485 14.669C45.5802 14.5433 45.6597 14.2681 45.6617 14.0576C45.6638 13.8471 45.7127 13.6748 45.7705 13.6748C45.8282 13.6748 45.9137 13.529 45.9605 13.3509C46.0455 13.027 46.0455 13.027 46.169 13.2944C46.2584 13.488 46.2507 13.6828 46.1412 14.0011C45.9311 14.6113 45.8123 22.1549 46.0128 22.1549C46.0885 22.1549 46.1177 22.2079 46.0777 22.2726C46.0308 22.3484 46.4588 22.3898 47.278 22.3887C48.1434 22.3874 48.4945 22.3503 48.3744 22.2726C48.2234 22.1751 48.2276 22.1582 48.4038 22.1566C48.5977 22.155 48.6099 21.756 48.6099 15.4415C48.6099 8.72811 48.6099 8.72811 47.0116 8.72811C45.2393 8.72811 45.0766 8.78759 45.0766 9.43478C45.0766 9.63842 44.9971 9.88446 44.8999 9.98163C44.8027 10.0788 44.7232 10.287 44.7232 10.4443C44.7232 10.6016 44.6702 10.7303 44.6055 10.7303C44.5407 10.7303 44.4877 10.9158 44.4877 11.1426C44.4877 11.3693 44.4389 11.5548 44.3792 11.5548C44.3196 11.5548 44.2359 11.7138 44.1932 11.9081C44.1506 12.1025 44.0669 12.2615 44.0073 12.2615C43.9476 12.2615 43.8988 12.447 43.8988 12.6737C43.8988 12.9004 43.8458 13.0859 43.781 13.0859C43.7162 13.0859 43.6632 13.2083 43.6632 13.3579C43.6632 13.5074 43.5854 13.7326 43.4903 13.8584C43.3952 13.9841 43.3157 14.2593 43.3137 14.4698C43.3115 14.6803 43.2569 14.8526 43.1921 14.8526C43.1273 14.8526 43.0725 14.9718 43.0702 15.1176C43.0679 15.2634 42.9902 15.5151 42.8977 15.677C42.8051 15.839 42.7275 16.1575 42.7251 16.3848C42.7224 16.661 42.6463 16.8448 42.4959 16.9387C42.2505 17.092 42.1321 16.9467 42.1321 16.4918C42.1321 16.3676 42.0791 16.2659 42.0143 16.2659C41.9496 16.2659 41.8966 16.0906 41.8966 15.8762C41.8966 15.6619 41.8187 15.3837 41.7237 15.2579C41.6285 15.1322 41.549 14.857 41.547 14.6465C41.5449 14.436 41.4902 14.2637 41.4254 14.2637C41.3607 14.2637 41.3077 14.1539 41.3077 14.0198C41.3077 13.8855 41.2282 13.6962 41.131 13.5991C41.0338 13.5019 40.9543 13.2672 40.9543 13.0776C40.9543 12.8878 40.9013 12.7326 40.8365 12.7326C40.7718 12.7326 40.7188 12.6038 40.7188 12.4465C40.7188 12.2893 40.6393 12.081 40.5421 11.9839C40.4449 11.8867 40.3654 11.6444 40.3654 11.4454C40.3654 11.2465 40.3124 11.0837 40.2477 11.0837C40.1829 11.0837 40.1282 10.9644 40.1261 10.8187C40.1241 10.673 40.0446 10.4507 39.9494 10.3251C39.8544 10.1993 39.7765 9.97409 39.7765 9.82451C39.7765 9.67493 39.7235 9.55256 39.6588 9.55256C39.594 9.55256 39.541 9.45092 39.541 9.32666C39.541 8.73965 39.5055 8.72811 37.7028 8.72811C36.0076 8.72811 36.0076 8.72811 36.0076 15.4415ZM63.7275 9.29333C63.0237 9.33408 62.9979 9.3872 62.8992 10.9953C62.8432 11.9081 62.8433 11.9081 62.2633 11.9081C61.9444 11.9081 61.6834 11.9575 61.6834 12.0177C61.6834 12.078 61.5641 12.1443 61.4184 12.1649C61.1697 12.2002 61.1512 12.2661 61.1193 13.2331C61.0853 14.2637 61.0853 14.2637 61.6788 14.2637C62.0051 14.2637 62.2723 14.3167 62.2723 14.3815C62.2723 14.4463 62.3386 14.4861 62.4195 14.4698C62.5334 14.4471 62.5727 15.0677 62.5931 17.2071C62.6098 18.9712 62.6632 19.9885 62.7403 20.0142C62.8067 20.0364 62.8611 20.1963 62.8611 20.3698C62.8611 20.5432 62.9937 20.828 63.1556 21.0026C63.3175 21.1772 63.45 21.3527 63.45 21.3926C63.45 21.5123 63.7774 21.8015 63.9128 21.8015C63.9822 21.8015 64.0389 21.881 64.0389 21.9782C64.0389 22.0881 64.1501 22.1549 64.3334 22.1549C64.4953 22.1549 64.6278 22.2079 64.6278 22.2726C64.6278 22.3459 65.2842 22.3897 66.3651 22.3887C67.5303 22.3874 68.0441 22.3492 67.9256 22.2726C67.7879 22.1837 67.8205 22.1581 68.0729 22.1566C68.3552 22.1551 68.3967 22.1087 68.3967 21.7946C68.3967 21.5965 68.3503 21.4629 68.2937 21.4979C68.237 21.533 68.1656 21.2993 68.1347 20.9789C68.0563 20.1619 67.9151 20.0349 67.0868 20.0349C66.6124 20.0349 66.3939 19.9885 66.3927 19.8876C66.3914 19.7895 66.3528 19.7993 66.2767 19.9171C66.2006 20.0349 66.162 20.0446 66.1607 19.9465C66.1598 19.8656 66.0855 19.7993 65.9956 19.7993C65.7373 19.7993 65.6579 19.1906 65.6074 16.822C65.55 14.1372 65.4829 14.2637 66.9663 14.2637C68.0261 14.2637 68.0261 14.2637 68.0643 13.2757C68.1209 11.8035 68.2177 11.9081 66.7981 11.9081C65.5701 11.9081 65.5701 11.9081 65.5701 10.6235C65.5701 9.33879 65.5701 9.33879 64.9517 9.29851C64.6116 9.27625 64.0607 9.27389 63.7275 9.29333ZM55.2055 11.7904C55.2055 11.8558 54.8914 11.9081 54.4989 11.9081C54.1102 11.9081 53.7922 11.9564 53.7922 12.0155C53.7922 12.0747 53.58 12.1589 53.3206 12.2027C53.0611 12.2465 52.8788 12.3306 52.9153 12.3897C52.9518 12.4487 52.846 12.497 52.6802 12.497C52.5145 12.497 52.378 12.5633 52.3771 12.6442C52.3758 12.7424 52.3372 12.7326 52.2611 12.6148C52.185 12.497 52.1464 12.4872 52.1451 12.5854C52.1441 12.6664 52.0638 12.7326 51.9666 12.7326C51.8695 12.7326 51.79 12.8077 51.79 12.8995C51.79 12.9912 51.7238 13.0972 51.6427 13.135C51.525 13.1899 51.525 13.2175 51.6427 13.2724C51.7238 13.3102 51.79 13.4692 51.79 13.6257C51.79 13.7822 51.8372 13.9104 51.895 13.9104C51.9527 13.9104 52.0333 14.0429 52.0739 14.2048C52.1146 14.3668 52.1998 14.4993 52.2633 14.4993C52.3269 14.4993 52.3789 14.5788 52.3789 14.6759C52.3789 14.9074 53.152 14.9206 53.2403 14.6906C53.2744 14.6016 53.4523 14.4983 53.6357 14.461C55.3761 14.1074 55.639 14.1087 56.3539 14.4746C56.6954 14.6495 56.7367 14.7248 56.7367 15.1738C56.7367 15.677 56.7367 15.677 56.1478 15.677C55.8239 15.677 55.5589 15.7275 55.5589 15.7889C55.5589 15.8505 55.2409 15.9369 54.8522 15.9809C54.4635 16.0248 54.1455 16.1069 54.1455 16.1634C54.1455 16.2198 53.9335 16.2659 53.6744 16.2659C53.3649 16.2659 53.2134 16.3155 53.2327 16.4103C53.2489 16.4898 53.143 16.573 52.9972 16.5952C52.8514 16.6175 52.7322 16.685 52.7322 16.7453C52.7322 16.8055 52.6767 16.8548 52.6089 16.8548C52.4101 16.8548 51.4366 17.871 51.4366 18.0786C51.4366 18.1828 51.3836 18.2682 51.3188 18.2682C51.2482 18.2682 51.2011 18.7393 51.2011 19.446C51.2011 20.0937 51.2483 20.6237 51.3061 20.6237C51.3638 20.6237 51.4444 20.7562 51.485 20.9182C51.5257 21.0801 51.6109 21.2126 51.6744 21.2126C51.738 21.2126 51.79 21.2694 51.79 21.3388C51.79 21.5019 52.0896 21.8015 52.2527 21.8015C52.3221 21.8015 52.3789 21.881 52.3789 21.9782C52.3789 22.0881 52.49 22.1549 52.6733 22.1549C52.8352 22.1549 52.9677 22.2079 52.9677 22.2726C52.9677 22.344 53.4781 22.3904 54.2633 22.3904C54.9759 22.3904 55.5589 22.3432 55.5589 22.2854C55.5589 22.2277 55.6914 22.1471 55.8533 22.1065C56.0153 22.0658 56.1478 21.9806 56.1478 21.9171C56.1478 21.8535 56.2273 21.8015 56.3244 21.8015C56.4216 21.8015 56.5011 21.757 56.5011 21.7027C56.5011 21.619 56.6663 21.5142 57.2372 21.2361C57.2859 21.2124 57.3256 21.4095 57.3256 21.674C57.3256 22.1549 57.3256 22.1549 57.8261 22.1688C58.2959 22.1818 58.3049 22.1883 57.9733 22.2726C57.7375 22.3326 57.9725 22.3606 58.68 22.3567C59.675 22.3512 59.6967 22.346 59.0333 22.2726C58.3267 22.1944 58.3267 22.1944 59.1217 22.1747C59.9167 22.1549 59.9167 22.1549 59.9167 18.5037C59.9167 16.1482 59.8749 14.8526 59.7989 14.8526C59.7341 14.8526 59.6811 14.6406 59.6811 14.3815C59.6811 14.1224 59.6292 13.9104 59.5656 13.9104C59.5021 13.9104 59.4168 13.7779 59.3762 13.6159C59.3356 13.454 59.255 13.3215 59.1973 13.3215C59.1395 13.3215 59.0922 13.2403 59.0922 13.1412C59.0922 13.0419 59.0127 12.9302 58.9156 12.893C58.8184 12.8557 58.7389 12.7621 58.7389 12.6852C58.7389 12.6083 58.5004 12.447 58.2089 12.3267C57.9174 12.2066 57.6789 12.0631 57.6789 12.0081C57.6789 11.9531 57.4139 11.9081 57.09 11.9081C56.7661 11.9081 56.5011 11.8551 56.5011 11.7904C56.5011 11.7256 56.2096 11.6726 55.8533 11.6726C55.497 11.6726 55.2055 11.7256 55.2055 11.7904ZM75.4635 11.7904C75.4635 11.8551 75.2515 11.9081 74.9923 11.9081C74.7332 11.9081 74.5212 11.9601 74.5212 12.0237C74.5212 12.0872 74.3891 12.1723 74.2276 12.2129C74.0661 12.2535 73.9632 12.3339 73.999 12.3918C74.0348 12.4497 74.0097 12.497 73.9433 12.497C73.721 12.497 73.1079 13.1929 73.1079 13.4451C73.1079 13.8734 72.8159 13.6264 72.7769 13.1652C72.7568 12.9273 72.6905 12.7326 72.6297 12.7326C72.5688 12.7326 72.519 12.5471 72.519 12.3204C72.519 11.9081 72.519 11.9081 71.339 11.9081C70.159 11.9081 70.159 11.9081 70.1659 17.1493C70.1727 22.3904 70.1727 22.3904 71.6108 22.3765C72.5284 22.3676 72.9211 22.33 72.6957 22.2726C72.3423 22.1828 72.3423 22.1828 72.7251 22.1688C73.1079 22.1549 73.1079 22.1549 73.1079 19.0926C73.1079 17.3779 73.1541 16.0304 73.213 16.0304C73.2707 16.0304 73.3512 15.8979 73.3919 15.7359C73.4325 15.574 73.5178 15.4415 73.5812 15.4415C73.6448 15.4415 73.6968 15.3847 73.6968 15.3153C73.6968 15.1522 73.9964 14.8526 74.1595 14.8526C74.2289 14.8526 74.2857 14.7964 74.2857 14.7279C74.2857 14.6593 74.3342 14.6331 74.3934 14.6697C74.4527 14.7063 74.5221 14.6736 74.5475 14.597C74.5786 14.5039 74.9121 14.4612 75.556 14.4682C76.5181 14.4785 76.5181 14.4785 76.5948 13.9C76.637 13.5818 76.7178 13.3215 76.7742 13.3215C76.8306 13.3215 76.8768 13.0035 76.8768 12.6148C76.8768 12.0651 76.8376 11.9081 76.7001 11.9081C76.603 11.9081 76.5226 11.8419 76.5217 11.7609C76.5204 11.6628 76.4818 11.6726 76.4057 11.7904C76.3296 11.9081 76.291 11.9179 76.2897 11.8198C76.2886 11.7304 76.126 11.6726 75.8757 11.6726C75.649 11.6726 75.4635 11.7256 75.4635 11.7904ZM81.3524 11.7904C81.3524 11.8568 81.0187 11.9081 80.5868 11.9081C80.1658 11.9081 79.8213 11.9588 79.8213 12.0206C79.8213 12.0824 79.6358 12.1678 79.409 12.2104C79.1823 12.2529 78.9968 12.3348 78.9968 12.3923C78.9968 12.4499 78.8643 12.497 78.7024 12.497C78.5404 12.497 78.4079 12.5443 78.4079 12.6021C78.4079 12.6598 78.2813 12.7388 78.1264 12.7777C77.7282 12.8776 77.5739 13.557 77.9494 13.557C78.0072 13.557 78.0546 13.663 78.0546 13.7926C78.0546 13.9221 78.1076 14.0281 78.1724 14.0281C78.2372 14.0281 78.2902 14.1358 78.2902 14.2674C78.2902 14.399 78.3697 14.5372 78.4668 14.5744C78.564 14.6117 78.6435 14.7426 78.6435 14.8652C78.6435 15.0827 78.8204 15.176 78.8987 14.9998C78.9203 14.9513 79.1234 14.8262 79.3502 14.7219C79.5769 14.6176 79.9089 14.4625 80.088 14.3771C80.5204 14.1712 82.3163 14.152 82.3832 14.3526C82.41 14.4333 82.5071 14.4993 82.5988 14.4993C82.6906 14.4993 82.7657 14.5788 82.7657 14.6759C82.7657 14.7731 82.8187 14.8526 82.8835 14.8526C82.9483 14.8526 83.0013 15.0381 83.0013 15.2648C83.0013 15.6732 82.9965 15.677 82.4857 15.677C82.202 15.677 81.7798 15.7565 81.5472 15.8537C81.3147 15.9509 80.9637 16.0304 80.7673 16.0304C80.5708 16.0304 80.4102 16.0834 80.4102 16.1482C80.4102 16.2129 80.1982 16.2659 79.939 16.2659C79.6799 16.2659 79.4679 16.3179 79.4679 16.3815C79.4679 16.445 79.3354 16.5302 79.1735 16.5709C79.0115 16.6115 78.879 16.6921 78.879 16.7498C78.879 16.8076 78.8014 16.8548 78.7064 16.8548C78.4807 16.8548 77.8679 17.4574 77.7656 17.7801C77.7214 17.919 77.636 18.0326 77.5756 18.0326C77.5152 18.0326 77.4657 18.2446 77.4657 18.5037C77.4657 18.7628 77.4127 18.9748 77.3479 18.9748C77.2831 18.9748 77.2301 19.1603 77.2301 19.3871C77.2301 19.6138 77.2831 19.7993 77.3479 19.7993C77.4127 19.7993 77.4657 20.0138 77.4657 20.2761C77.4657 20.6333 77.5396 20.8211 77.7601 21.0256C77.9221 21.1758 78.0546 21.3316 78.0546 21.372C78.0546 21.5205 78.4529 21.9054 78.5467 21.8475C78.5999 21.8145 78.6435 21.8703 78.6435 21.9713C78.6435 22.0926 78.7534 22.1555 78.9674 22.1566C79.2198 22.1581 79.2523 22.1837 79.1146 22.2726C78.9954 22.3497 79.4167 22.3868 80.4102 22.3868C81.4036 22.3868 81.8249 22.3497 81.7057 22.2726C81.568 22.1837 81.6006 22.1581 81.853 22.1566C82.0312 22.1557 82.1768 22.1029 82.1768 22.0393C82.1768 21.9758 82.2992 21.893 82.4487 21.8556C82.5981 21.818 82.8132 21.6639 82.9266 21.5129C83.2304 21.1084 83.5902 21.2404 83.5902 21.7564C83.5902 22.1363 83.6108 22.1555 84.0319 22.1666C84.4261 22.1771 84.4418 22.1884 84.1791 22.2726C83.9885 22.3337 84.2585 22.3639 84.9446 22.3584C85.9997 22.3498 86.0011 22.3494 85.2391 22.2726C84.4735 22.1955 84.4735 22.1955 85.3274 22.1752C86.1813 22.1549 86.1813 22.1549 86.1813 18.7982C86.1813 16.6389 86.1393 15.4415 86.0635 15.4415C85.9988 15.4415 85.9441 15.1898 85.942 14.882C85.94 14.5743 85.8605 14.2197 85.7653 14.094C85.6703 13.9682 85.5924 13.7695 85.5924 13.6523C85.5924 13.5351 85.5394 13.4393 85.4746 13.4393C85.4099 13.4393 85.3569 13.3821 85.3569 13.3123C85.3569 13.125 84.4926 12.3021 84.1977 12.2085C84.0579 12.1641 83.9435 12.0784 83.9435 12.018C83.9435 11.9576 83.652 11.9081 83.2957 11.9081C82.9395 11.9081 82.648 11.8551 82.648 11.7904C82.648 11.7256 82.3565 11.6726 82.0002 11.6726C81.6439 11.6726 81.3524 11.7256 81.3524 11.7904ZM91.4814 11.7904C91.4814 11.8551 91.2164 11.9081 90.8925 11.9081C90.5686 11.9081 90.3036 11.9601 90.3036 12.0237C90.3036 12.0872 90.1711 12.1724 90.0091 12.2131C89.8472 12.2537 89.7147 12.3343 89.7147 12.392C89.7147 12.4498 89.6579 12.497 89.5885 12.497C89.4471 12.497 89.1258 12.7884 89.1258 12.9168C89.1258 12.9626 88.9933 13.1228 88.8313 13.2729C88.6694 13.423 88.5369 13.6511 88.5369 13.78C88.5369 13.9088 88.4839 14.047 88.4191 14.087C88.3543 14.1271 88.3013 14.5011 88.3013 14.9184C88.3013 15.3456 88.3528 15.677 88.4191 15.677C88.4839 15.677 88.5369 15.7807 88.5369 15.9073C88.5369 16.2114 89.7467 17.4437 90.0452 17.4437C90.1734 17.4437 90.3089 17.5232 90.3462 17.6204C90.3834 17.7176 90.5216 17.7971 90.6533 17.7971C90.7848 17.7971 90.8925 17.8501 90.8925 17.9148C90.8925 17.9796 91.0811 18.0326 91.3116 18.0326C91.5644 18.0326 91.7016 18.08 91.6572 18.1518C91.6162 18.218 91.744 18.303 91.9447 18.3432C92.1433 18.3829 92.3058 18.4618 92.3058 18.5185C92.3058 18.5751 92.366 18.6215 92.4395 18.6215C92.5939 18.6215 93.1303 19.1707 93.1303 19.3287C93.1303 19.6661 92.824 20.0205 92.4163 20.155C91.9171 20.3198 90.6863 20.1553 90.5305 19.9031C90.4749 19.8132 90.4301 19.8226 90.386 19.9332C90.3407 20.0472 90.3195 20.0511 90.3129 19.9465C90.3078 19.8656 90.2368 19.7993 90.1552 19.7993C90.0735 19.7993 89.8638 19.6668 89.6891 19.5049C89.5146 19.3429 89.3391 19.2104 89.2992 19.2104C89.1795 19.2104 88.8902 19.5377 88.8902 19.6732C88.8902 19.7425 88.8107 19.7993 88.7136 19.7993C88.6164 19.7993 88.5369 19.8545 88.5369 19.922C88.5369 20.0376 88.4448 20.1708 88.0952 20.5605C87.8058 20.8832 88.1392 21.566 88.586 21.566C88.6777 21.566 88.7704 21.6058 88.7921 21.6543C88.8734 21.8373 89.6303 22.155 89.9892 22.1566C90.2735 22.1581 90.3204 22.1857 90.1858 22.2726C90.0673 22.3492 90.5812 22.3874 91.7464 22.3887C92.8272 22.3897 93.4836 22.3459 93.4836 22.2726C93.4836 22.2079 93.6096 22.1549 93.7637 22.1549C93.9176 22.1549 94.1096 22.0754 94.1903 21.9782C94.2709 21.881 94.4099 21.8015 94.4991 21.8015C94.5884 21.8015 94.6614 21.7485 94.6614 21.6838C94.6614 21.619 94.7409 21.566 94.8381 21.566C94.9352 21.566 95.0147 21.5106 95.0147 21.4429C95.0147 21.3752 95.1472 21.1872 95.3092 21.0253C95.4711 20.8633 95.6036 20.6538 95.6036 20.5596C95.6036 20.4653 95.6566 20.3882 95.7214 20.3882C95.7921 20.3882 95.8392 19.9171 95.8392 19.2104C95.8392 18.5037 95.7921 18.0326 95.7214 18.0326C95.6566 18.0326 95.6036 17.9579 95.6036 17.8668C95.6036 17.6231 94.5728 16.597 94.5025 16.7706C94.4581 16.88 94.4422 16.8791 94.4351 16.7665C94.4301 16.6856 94.3463 16.6193 94.2492 16.6193C94.152 16.6193 94.0725 16.5398 94.0725 16.4426C94.0725 16.3192 93.9481 16.2659 93.6603 16.2659C93.4335 16.2659 93.248 16.2129 93.248 16.1482C93.248 16.0834 93.1155 16.0304 92.9536 16.0304C92.7916 16.0304 92.6591 15.9742 92.6591 15.9057C92.6591 15.8371 92.6061 15.8137 92.5414 15.8537C92.4766 15.8938 92.4236 15.8703 92.4236 15.8018C92.4236 15.7332 92.2906 15.677 92.1281 15.677C91.7632 15.677 91.128 15.0925 91.128 14.7568C91.128 14.2768 91.6594 13.9104 92.3556 13.9104C92.7702 13.9104 93.0334 13.9704 93.1303 14.087C93.2109 14.1842 93.3418 14.2637 93.4211 14.2637C93.6122 14.2637 94.2852 14.6026 94.3715 14.7422C94.4778 14.9141 94.6614 14.872 94.6614 14.6759C94.6614 14.5788 94.7108 14.4993 94.7713 14.4993C94.8317 14.4993 94.9184 14.3818 94.9638 14.2384C95.0094 14.0949 95.225 13.8044 95.443 13.5927C95.9143 13.1348 95.9461 12.8817 95.5447 12.781C95.3828 12.7404 95.2503 12.6598 95.2503 12.6021C95.2503 12.5443 95.1411 12.497 95.0078 12.497C94.8744 12.497 94.798 12.444 94.8381 12.3792C94.8781 12.3145 94.868 12.2576 94.8156 12.2528C94.4352 12.2178 94.1253 12.1192 94.0922 12.0225C94.0705 11.9596 93.7923 11.9081 93.4738 11.9081C93.1552 11.9081 92.8947 11.8551 92.8947 11.7904C92.8947 11.7249 92.5806 11.6726 92.188 11.6726C91.7955 11.6726 91.4814 11.7249 91.4814 11.7904ZM100.552 11.7609C100.551 11.8509 100.387 11.9081 100.13 11.9081C99.8983 11.9081 99.6295 11.9876 99.5323 12.0848C99.4352 12.182 99.2138 12.2623 99.0403 12.2632C98.7933 12.2646 98.7631 12.2899 98.9014 12.3792C99.0531 12.4772 99.0496 12.4937 98.876 12.4953C98.6255 12.4975 98.0137 13.0819 97.9057 13.4223C97.8615 13.5612 97.7762 13.6748 97.7157 13.6748C97.5448 13.6748 97.579 15.8906 97.7531 16.0983C97.8341 16.195 97.9666 16.348 98.0475 16.4382C98.1285 16.5286 98.1947 16.6309 98.1947 16.6657C98.1947 16.8389 98.9241 17.4437 99.133 17.4437C99.2648 17.4437 99.3725 17.491 99.3725 17.5488C99.3725 17.6065 99.505 17.6871 99.667 17.7277C99.8289 17.7683 99.9614 17.8536 99.9614 17.9171C99.9614 17.9807 100.147 18.0326 100.374 18.0326C100.6 18.0326 100.786 18.0814 100.786 18.1411C100.786 18.2007 100.945 18.2844 101.139 18.3271C101.334 18.3697 101.493 18.4534 101.493 18.513C101.493 18.5728 101.572 18.6215 101.669 18.6215C101.766 18.6215 101.952 18.7275 102.081 18.8571C102.364 19.1391 102.405 19.7993 102.14 19.7993C102.043 19.7993 101.964 19.8482 101.964 19.9079C101.964 19.9677 101.775 20.0788 101.544 20.1549C101.103 20.3008 99.6081 20.1006 99.6081 19.8955C99.6081 19.8425 99.4949 19.7993 99.3566 19.7993C99.2182 19.7993 98.9823 19.6668 98.8322 19.5049C98.5535 19.2042 98.1947 19.1095 98.1947 19.3365C98.1947 19.406 98.1285 19.5367 98.0475 19.627C97.7215 19.9905 97.6058 20.1464 97.6058 20.2225C97.6058 20.2664 97.4733 20.4251 97.3114 20.5752C96.9837 20.8789 96.9221 21.2126 97.1936 21.2126C97.2908 21.2126 97.3703 21.2646 97.3703 21.3282C97.3703 21.3917 97.5028 21.4769 97.6647 21.5176C97.8267 21.5582 97.9592 21.6388 97.9592 21.6965C97.9592 21.7543 98.0668 21.8015 98.1984 21.8015C98.3301 21.8015 98.4639 21.8698 98.496 21.9534C98.5281 22.0369 98.7251 22.1181 98.9339 22.1338C99.1427 22.1495 99.3313 22.2136 99.3529 22.2764C99.3758 22.3428 100.103 22.3904 101.097 22.3904C102.204 22.3904 102.776 22.3491 102.729 22.2726C102.689 22.207 102.778 22.1549 102.93 22.1549C103.08 22.1549 103.346 22.0224 103.52 21.8604C103.695 21.6985 103.891 21.566 103.955 21.566C104.135 21.566 104.673 20.9885 104.673 20.7951C104.673 20.7009 104.726 20.6237 104.79 20.6237C104.855 20.6237 104.908 20.4912 104.908 20.3293C104.908 20.1674 104.961 20.0349 105.026 20.0349C105.094 20.0349 105.144 19.6618 105.144 19.1515C105.144 18.6412 105.094 18.2682 105.026 18.2682C104.961 18.2682 104.908 18.1584 104.908 18.0243C104.908 17.7635 104.653 17.4437 104.445 17.4437C104.376 17.4437 104.319 17.387 104.319 17.3176C104.319 17.1545 104.02 16.8548 103.856 16.8548C103.787 16.8548 103.73 16.8076 103.73 16.7498C103.73 16.6921 103.598 16.6115 103.436 16.5709C103.274 16.5302 103.141 16.445 103.141 16.3815C103.141 16.3179 103.009 16.2659 102.847 16.2659C102.685 16.2659 102.553 16.2129 102.553 16.1482C102.553 16.0834 102.43 16.0304 102.281 16.0304C102.131 16.0304 101.906 15.9525 101.78 15.8575C101.654 15.7623 101.432 15.6828 101.286 15.6808C101.141 15.6787 101.021 15.624 101.021 15.5593C101.021 15.4945 100.915 15.4415 100.786 15.4415C100.655 15.4415 100.55 15.3629 100.55 15.2648C100.55 15.1677 100.497 15.0882 100.433 15.0882C100.196 15.0882 100.324 14.6056 100.651 14.2626C100.929 13.9722 101.082 13.9104 101.525 13.9104C102.016 13.9104 102.79 14.1953 102.886 14.4109C102.908 14.4595 103.029 14.4993 103.155 14.4993C103.281 14.4993 103.415 14.5788 103.452 14.6759C103.536 14.8948 103.73 14.9087 103.73 14.6958C103.73 14.6096 103.863 14.4682 104.025 14.3815C104.21 14.2825 104.319 14.1217 104.319 13.9494C104.319 13.7839 104.389 13.6748 104.496 13.6748C104.593 13.6748 104.673 13.5953 104.673 13.4981C104.673 13.401 104.726 13.3215 104.79 13.3215C104.855 13.3215 104.908 13.189 104.908 13.027C104.908 12.8438 104.841 12.7326 104.731 12.7326C104.634 12.7326 104.555 12.6796 104.555 12.6148C104.555 12.55 104.419 12.497 104.253 12.497C104.088 12.497 103.982 12.4484 104.019 12.3888C104.056 12.3293 103.926 12.2456 103.731 12.2028C103.536 12.1599 103.377 12.0762 103.377 12.0166C103.377 11.9569 103.059 11.9081 102.67 11.9081C102.278 11.9081 101.964 11.8558 101.964 11.7904C101.964 11.7256 101.699 11.6726 101.375 11.6726C100.983 11.6726 100.785 11.7219 100.784 11.8198C100.783 11.9179 100.744 11.9081 100.668 11.7904C100.592 11.6726 100.553 11.6628 100.552 11.7609ZM110.563 11.7609C110.562 11.8538 110.388 11.9081 110.09 11.9081C109.831 11.9081 109.619 11.9554 109.619 12.0132C109.619 12.0709 109.487 12.1515 109.325 12.1921C109.163 12.2327 109.03 12.318 109.03 12.3815C109.03 12.4451 108.948 12.497 108.848 12.497C108.748 12.497 108.543 12.6295 108.393 12.7915C108.243 12.9534 108.06 13.0859 107.986 13.0859C107.913 13.0859 107.853 13.1412 107.853 13.2086C107.853 13.3242 107.76 13.4574 107.411 13.8471C107.33 13.9375 107.264 14.0681 107.264 14.1376C107.264 14.2069 107.208 14.2637 107.139 14.2637C107.07 14.2637 107.047 14.3167 107.087 14.3815C107.127 14.4463 107.104 14.4993 107.035 14.4993C106.967 14.4993 106.91 14.6318 106.91 14.7937C106.91 14.9557 106.864 15.0882 106.808 15.0882C106.752 15.0882 106.675 15.3133 106.637 15.5887C106.6 15.8641 106.534 16.2748 106.491 16.5015C106.4 16.9779 106.665 19.2104 106.812 19.2104C106.866 19.2104 106.91 19.3429 106.91 19.5049C106.91 19.6668 106.96 19.7993 107.02 19.7993C107.081 19.7993 107.165 19.9084 107.207 20.0416C107.329 20.4255 108.748 21.8015 109.023 21.8015C109.16 21.8015 109.266 21.8782 109.266 21.9782C109.266 22.1035 109.394 22.1553 109.708 22.1566C110.036 22.1581 110.104 22.1877 109.973 22.2726C109.854 22.3491 110.391 22.3874 111.599 22.3887C112.771 22.3898 113.377 22.3492 113.329 22.2726C113.287 22.2042 113.404 22.1549 113.608 22.1549C113.802 22.1549 114.04 22.0754 114.137 21.9782C114.234 21.881 114.423 21.8015 114.558 21.8015C114.692 21.8015 114.802 21.7485 114.802 21.6838C114.802 21.619 114.888 21.566 114.994 21.566C115.212 21.566 115.147 20.7191 114.922 20.6444C114.856 20.6222 114.802 20.4729 114.802 20.3126C114.802 20.1482 114.75 20.0528 114.684 20.0937C114.619 20.1338 114.566 20.0857 114.566 19.987C114.566 19.7554 114.067 19.47 114.002 19.6647C113.978 19.7386 113.834 19.7993 113.683 19.7993C113.532 19.7993 113.386 19.8643 113.36 19.9437C113.291 20.1499 110.895 20.1525 110.826 19.9465C110.8 19.8656 110.725 19.7993 110.66 19.7993C110.508 19.7993 109.855 19.1459 109.855 18.9937C109.855 18.9294 109.81 18.8591 109.756 18.8374C109.701 18.8158 109.623 18.6259 109.582 18.4154C109.507 18.0326 109.507 18.0326 112.558 18.0326C115.609 18.0326 115.609 18.0326 115.69 17.3842C115.782 16.6479 115.662 15.2423 115.499 15.1414C115.439 15.1044 115.39 14.8919 115.39 14.669C115.39 14.446 115.343 14.2637 115.285 14.2637C115.228 14.2637 115.147 14.1312 115.106 13.9693C115.066 13.8073 114.981 13.6748 114.917 13.6748C114.853 13.6748 114.801 13.529 114.8 13.3509C114.798 13.1198 114.768 13.0737 114.695 13.1898C114.614 13.3177 114.575 13.2987 114.512 13.1015C114.468 12.9633 114.383 12.8504 114.323 12.8504C114.262 12.8504 114.213 12.7709 114.213 12.6737C114.213 12.5756 114.108 12.497 113.977 12.497C113.848 12.497 113.742 12.4498 113.742 12.392C113.742 12.3343 113.609 12.2537 113.447 12.2131C113.285 12.1724 113.153 12.0872 113.153 12.0237C113.153 11.9601 112.861 11.9081 112.505 11.9081C112.149 11.9081 111.857 11.8551 111.857 11.7904C111.857 11.7256 111.619 11.6726 111.327 11.6726C110.983 11.6726 110.796 11.724 110.795 11.8198C110.794 11.9179 110.755 11.9081 110.679 11.7904C110.603 11.6726 110.565 11.6628 110.563 11.7609ZM123.282 11.7904C123.282 11.8551 123.07 11.9081 122.81 11.9081C122.551 11.9081 122.339 11.9601 122.339 12.0237C122.339 12.0872 122.207 12.1724 122.045 12.2131C121.882 12.2537 121.75 12.3343 121.75 12.392C121.75 12.4498 121.668 12.497 121.568 12.497C121.468 12.497 121.263 12.6295 121.113 12.7915C120.636 13.3057 120.337 13.192 120.337 12.497C120.337 11.9081 120.337 11.9081 119.042 11.9081C117.746 11.9081 117.746 11.9081 117.746 17.0315C117.746 22.1549 117.746 22.1549 118.247 22.1688C118.716 22.1818 118.726 22.1883 118.394 22.2726C118.172 22.3289 118.525 22.3597 119.336 22.3549C120.632 22.3472 120.632 22.3472 119.689 22.2726C118.747 22.1981 118.747 22.1981 119.837 22.1764C120.926 22.1549 120.926 22.1549 120.926 18.6215C120.926 16.0685 120.963 15.0882 121.059 15.0882C121.133 15.0882 121.293 14.9721 121.417 14.8302C121.791 14.3986 123.282 14.0398 123.282 14.3815C123.282 14.4463 123.338 14.4993 123.408 14.4993C123.66 14.4993 123.87 14.8448 123.87 15.2565C123.87 15.4878 123.923 15.677 123.988 15.677C124.159 15.677 124.133 16.2354 123.959 16.3057C123.841 16.3532 123.841 16.367 123.959 16.3744C124.064 16.381 124.106 16.6537 124.106 17.3162C124.106 17.9518 124.059 18.2675 123.959 18.308C123.841 18.3554 123.841 18.3692 123.959 18.3766C124.064 18.3832 124.106 18.6559 124.106 19.3184C124.106 19.9541 124.059 20.2697 123.959 20.3102C123.841 20.3577 123.841 20.3715 123.959 20.3789C124.062 20.3855 124.106 20.6484 124.106 21.2715C124.106 22.1538 124.106 22.1549 124.43 22.1666C124.754 22.1783 124.754 22.1783 124.459 22.2726C124.27 22.3333 124.62 22.3711 125.439 22.3786C126.399 22.3875 126.756 22.3489 126.882 22.2221C127.089 22.0155 127.138 14.2637 126.933 14.2637C126.868 14.2637 126.815 14.0766 126.815 13.8478C126.815 13.5867 126.749 13.4066 126.638 13.3641C126.542 13.3268 126.462 13.1959 126.462 13.0733C126.462 12.9507 126.409 12.8504 126.344 12.8504C126.279 12.8504 126.226 12.7709 126.226 12.6737C126.226 12.5765 126.171 12.497 126.104 12.497C125.988 12.497 125.855 12.4049 125.465 12.0554C125.375 11.9744 125.112 11.9081 124.88 11.9081C124.649 11.9081 124.459 11.8551 124.459 11.7904C124.459 11.7256 124.194 11.6726 123.87 11.6726C123.547 11.6726 123.282 11.7256 123.282 11.7904ZM132.616 12.2208C132.469 12.2522 132.351 12.3272 132.351 12.3875C132.351 12.4477 132.237 12.497 132.1 12.497C131.962 12.497 131.673 12.6825 131.46 12.9092C131.246 13.136 131.037 13.3215 130.996 13.3215C130.894 13.3215 130.584 13.6375 130.584 13.7412C130.584 13.7871 130.465 13.9365 130.319 14.0735C130.173 14.2105 130.035 14.4816 130.013 14.6759C129.989 14.8703 129.936 15.0558 129.893 15.0882C129.509 15.3772 129.281 17.9022 129.573 18.6335C129.676 18.8886 129.759 19.2288 129.759 19.3894C129.759 19.5501 129.812 19.6815 129.877 19.6815C129.942 19.6815 129.995 19.8212 129.995 19.9919C129.995 20.1717 130.119 20.4172 130.289 20.5752C130.452 20.7253 130.584 20.9217 130.584 21.0118C130.584 21.1018 130.77 21.2754 130.996 21.3976C131.222 21.5197 131.408 21.6604 131.408 21.7105C131.408 21.7605 131.488 21.8015 131.585 21.8015C131.682 21.8015 131.762 21.881 131.762 21.9782C131.762 22.0881 131.872 22.1549 132.056 22.1549C132.219 22.1549 132.351 22.2079 132.351 22.2726C132.351 22.3448 132.919 22.3904 133.823 22.3904C134.726 22.3904 135.295 22.3448 135.295 22.2726C135.295 22.2079 135.363 22.1549 135.447 22.1549C135.683 22.1549 136.473 21.723 136.389 21.6399C136.349 21.5992 136.381 21.566 136.462 21.566C136.634 21.566 136.944 21.2773 136.944 21.1158C136.944 20.7597 136.322 20.8666 135.919 21.2921C135.777 21.4428 135.555 21.566 135.428 21.566C135.301 21.566 135.177 21.6249 135.154 21.6969C135.092 21.8808 132.673 21.8849 132.612 21.7013C132.587 21.6269 132.462 21.566 132.335 21.566C132.209 21.566 132.041 21.5122 131.963 21.4463C131.398 20.9713 131.173 20.7341 131.173 20.6134C131.173 20.5368 131.041 20.3513 130.878 20.2012C130.716 20.0511 130.584 19.8243 130.584 19.6969C130.584 19.5697 130.529 19.447 130.46 19.4244C130.393 19.4018 130.306 19.0794 130.267 18.708C130.229 18.3365 130.147 18.0326 130.086 18.0326C129.877 18.0326 130.242 15.4181 130.459 15.3455C130.527 15.3228 130.584 15.1734 130.584 15.0138C130.584 14.8541 130.716 14.6008 130.878 14.4507C131.041 14.3006 131.173 14.1442 131.173 14.1029C131.173 13.9259 132.135 13.0859 132.338 13.0859C132.46 13.0859 132.591 13.0088 132.626 12.9145C132.714 12.6859 135.071 12.7086 135.148 12.9387C135.175 13.0197 135.274 13.0859 135.369 13.0859C135.529 13.0859 135.651 13.1634 136.056 13.5276C136.35 13.7908 136.708 13.7098 136.708 13.3804C136.708 13.2184 136.653 13.0859 136.586 13.0859C136.47 13.0859 136.337 12.9938 135.948 12.6442C135.857 12.5633 135.678 12.497 135.549 12.497C135.42 12.497 135.294 12.4331 135.267 12.3547C135.218 12.2086 133.156 12.1045 132.616 12.2208ZM153.109 12.2215C152.898 12.2517 152.726 12.326 152.726 12.3867C152.726 12.4474 152.606 12.497 152.46 12.497C152.313 12.497 152.094 12.6293 151.972 12.7915C151.851 12.9534 151.652 13.0859 151.532 13.0859C151.412 13.0859 151.313 13.1679 151.313 13.2682C151.313 13.3685 151.181 13.5733 151.018 13.7233C150.856 13.8735 150.724 14.0564 150.724 14.13C150.724 14.2035 150.673 14.2637 150.612 14.2637C150.55 14.2637 150.464 14.4492 150.421 14.6759C150.379 14.9027 150.298 15.0882 150.24 15.0882C150.182 15.0882 150.135 15.3002 150.135 15.5593C150.135 15.8184 150.082 16.0304 150.017 16.0304C149.945 16.0304 149.9 16.5407 149.9 17.3259C149.9 18.1112 149.945 18.6215 150.017 18.6215C150.082 18.6215 150.135 18.86 150.135 19.1515C150.135 19.443 150.183 19.6815 150.243 19.6815C150.304 19.6815 150.385 19.8303 150.425 20.012C150.465 20.1937 150.602 20.4174 150.729 20.5091C150.856 20.6008 150.96 20.7435 150.96 20.8264C150.96 20.9092 151.04 20.9771 151.136 20.9771C151.233 20.9771 151.313 21.0339 151.313 21.1032C151.313 21.2663 151.612 21.566 151.776 21.566C151.845 21.566 151.902 21.619 151.902 21.6838C151.902 21.7485 151.958 21.8015 152.028 21.8015C152.097 21.8015 152.234 21.881 152.331 21.9782C152.428 22.0754 152.613 22.1549 152.742 22.1549C152.87 22.1549 152.943 22.2079 152.903 22.2726C152.856 22.349 153.393 22.3904 154.427 22.3904C155.413 22.3904 156.024 22.3453 156.024 22.2726C156.024 22.2079 156.156 22.1549 156.318 22.1549C156.481 22.1549 156.613 22.1054 156.613 22.045C156.613 21.9846 156.73 21.8981 156.872 21.8528C157.346 21.7027 157.651 21.2126 157.27 21.2126C157.178 21.2126 157.077 21.1465 157.044 21.0654C156.997 20.9476 156.983 20.9476 156.976 21.0654C156.971 21.1465 156.892 21.2126 156.803 21.2126C156.712 21.2126 156.607 21.2921 156.571 21.3893C156.533 21.4865 156.373 21.566 156.214 21.566C156.056 21.566 155.906 21.6264 155.882 21.7002C155.818 21.8909 153.17 21.8955 153.107 21.705C153.081 21.6285 152.932 21.566 152.776 21.566C152.6 21.566 152.491 21.4977 152.491 21.3893C152.491 21.2921 152.432 21.2126 152.359 21.2126C152.188 21.2126 151.313 20.3378 151.313 20.1665C151.313 20.0941 151.26 20.0349 151.195 20.0349C151.13 20.0349 151.077 19.9272 151.077 19.7956C151.077 19.664 150.997 19.5258 150.901 19.4886C150.777 19.441 150.724 19.2481 150.724 18.8445C150.724 18.5275 150.671 18.2682 150.606 18.2682C150.426 18.2682 150.466 17.567 150.657 17.3765C150.85 17.1836 151.009 17.1506 150.901 17.3259C150.852 17.4034 151.995 17.4437 154.237 17.4437C157.979 17.4437 157.791 17.4816 157.791 16.7274C157.791 16.5319 157.854 16.3829 157.938 16.382C158.045 16.3807 158.049 16.3563 157.95 16.2936C157.876 16.246 157.777 15.8494 157.731 15.412C157.684 14.9747 157.599 14.617 157.541 14.617C157.484 14.617 157.437 14.4823 157.437 14.3176C157.437 14.0385 157.377 13.9285 156.996 13.5025C156.914 13.4122 156.848 13.2899 156.848 13.2307C156.848 13.1714 156.662 13.0231 156.436 12.901C156.21 12.7789 156.024 12.6381 156.024 12.5881C156.024 12.538 155.949 12.497 155.857 12.497C155.765 12.497 155.671 12.438 155.647 12.3659C155.6 12.2268 153.791 12.124 153.109 12.2215ZM163.297 12.2202C163.119 12.2516 162.973 12.3266 162.973 12.387C162.973 12.4476 162.841 12.497 162.679 12.497C162.516 12.497 162.384 12.55 162.384 12.6148C162.384 12.6796 162.309 12.7326 162.216 12.7326C161.913 12.7326 160.832 13.8982 160.659 14.4109C160.621 14.5243 160.543 14.617 160.486 14.617C160.429 14.617 160.382 14.7435 160.382 14.8981C160.382 15.0526 160.303 15.3308 160.206 15.5164C159.959 15.9903 159.958 18.5786 160.205 19.1697C160.302 19.4023 160.382 19.692 160.382 19.8137C160.382 19.9353 160.429 20.0349 160.487 20.0349C160.544 20.0349 160.626 20.1674 160.666 20.3293C160.707 20.4912 160.792 20.6237 160.855 20.6237C160.919 20.6237 160.971 20.6767 160.971 20.7415C160.971 20.9208 161.856 21.7677 162.137 21.8568C162.273 21.8999 162.384 21.9846 162.384 22.045C162.384 22.1054 162.516 22.1549 162.679 22.1549C162.841 22.1549 162.973 22.2079 162.973 22.2726C162.973 22.3451 163.551 22.3897 164.475 22.3887C165.488 22.3874 165.919 22.3497 165.8 22.2726C165.662 22.1833 165.691 22.1581 165.939 22.1566C166.112 22.1557 166.333 22.0754 166.431 21.9782C166.528 21.881 166.664 21.8015 166.734 21.8015C166.803 21.8015 166.86 21.7547 166.86 21.6975C166.86 21.6403 166.966 21.5657 167.095 21.5318C167.346 21.4661 167.432 20.9357 167.213 20.8004C167.148 20.7604 167.095 20.7838 167.095 20.8524C167.095 20.9209 167.015 20.9771 166.919 20.9771C166.822 20.9771 166.742 21.0169 166.741 21.0654C166.741 21.181 166.061 21.566 165.859 21.566C165.773 21.566 165.681 21.6269 165.656 21.7013C165.595 21.8849 163.176 21.8808 163.114 21.6969C163.091 21.6249 162.951 21.566 162.803 21.566C162.655 21.566 162.436 21.4347 162.313 21.2715C162.192 21.1096 162.026 20.9771 161.944 20.9771C161.862 20.9771 161.795 20.9169 161.795 20.8434C161.795 20.7698 161.663 20.5869 161.501 20.4367C161.338 20.2867 161.206 20.0819 161.206 19.9816C161.206 19.8813 161.153 19.7993 161.089 19.7993C161.024 19.7993 160.971 19.6769 160.971 19.5273C160.971 19.3778 160.893 19.1526 160.798 19.0268C160.464 18.5861 160.554 16.2399 160.938 15.3237C161.116 14.9027 161.328 14.4881 161.41 14.4026C161.493 14.3169 161.56 14.1939 161.56 14.1291C161.56 13.9729 161.864 13.6748 162.023 13.6748C162.092 13.6748 162.149 13.5953 162.149 13.4981C162.149 13.401 162.229 13.3215 162.325 13.3215C162.422 13.3215 162.502 13.2685 162.502 13.2037C162.502 13.1389 162.611 13.0859 162.746 13.0859C162.88 13.0859 163.07 13.0064 163.166 12.9092C163.412 12.6639 165.19 12.6611 165.512 12.9055C165.638 13.0006 165.834 13.0801 165.947 13.0821C166.06 13.0843 166.153 13.1389 166.153 13.2037C166.153 13.2685 166.233 13.3215 166.33 13.3215C166.426 13.3215 166.506 13.401 166.506 13.4981C166.506 13.608 166.617 13.6748 166.801 13.6748C167.036 13.6748 167.095 13.6159 167.095 13.3804C167.095 13.1971 167.028 13.0859 166.919 13.0859C166.822 13.0859 166.742 13.0064 166.742 12.9092C166.742 12.8121 166.662 12.7326 166.565 12.7326C166.469 12.7326 166.389 12.6796 166.389 12.6148C166.389 12.55 166.287 12.497 166.162 12.497C166.039 12.497 165.919 12.4405 165.895 12.3714C165.85 12.2378 163.857 12.1219 163.297 12.2202ZM155.393 12.9092C155.429 13.0064 155.561 13.0859 155.684 13.0859C155.806 13.0859 155.906 13.1389 155.906 13.2037C155.906 13.2685 155.986 13.3215 156.083 13.3215C156.18 13.3215 156.26 13.3767 156.26 13.4442C156.26 13.5597 156.351 13.6929 156.701 14.0827C156.783 14.173 156.848 14.3788 156.848 14.5399C156.848 14.7011 156.903 14.8509 156.969 14.8729C157.19 14.9467 157.258 16.4613 157.05 16.6703C156.813 16.9074 155.088 16.94 155.072 16.7076C155.065 16.5898 155.051 16.5898 155.004 16.7076C154.963 16.808 154.647 16.8548 154.012 16.8548C153.349 16.8548 153.077 16.8122 153.07 16.7076C153.063 16.5898 153.049 16.5898 153.002 16.7076C152.961 16.808 152.645 16.8548 152.01 16.8548C151.344 16.8548 151.077 16.8128 151.075 16.7076C151.074 16.6036 151.043 16.6093 150.968 16.7267C150.879 16.868 150.835 16.8648 150.676 16.7057C150.465 16.4947 150.428 16.2659 150.606 16.2659C150.671 16.2659 150.724 16.0009 150.724 15.677C150.724 15.3532 150.776 15.0882 150.839 15.0882C150.903 15.0882 150.988 14.9557 151.029 14.7937C151.069 14.6318 151.15 14.4993 151.208 14.4993C151.266 14.4993 151.313 14.4188 151.313 14.3205C151.313 14.1657 151.698 13.7443 152.306 13.2331C152.402 13.1522 152.563 13.0859 152.663 13.0859C152.763 13.0859 152.844 13.0297 152.844 12.9612C152.844 12.8926 152.897 12.8692 152.962 12.9092C153.027 12.9493 153.08 12.9259 153.08 12.8573C153.08 12.6437 155.31 12.6938 155.393 12.9092ZM111.942 14.1031C112.219 14.2091 112.446 14.3416 112.446 14.3975C112.446 14.4534 112.525 14.4993 112.623 14.4993C112.72 14.4993 112.799 14.5788 112.799 14.6759C112.799 14.7731 112.852 14.8526 112.917 14.8526C112.982 14.8526 113.035 15.1176 113.035 15.4415C113.035 16.0304 113.035 16.0304 111.396 16.0304C109.391 16.0304 109.371 16.0248 109.535 15.4928C109.603 15.2702 109.703 15.0882 109.757 15.0882C109.811 15.0882 109.855 14.9832 109.855 14.855C109.855 14.6371 110.713 14.0598 110.944 14.1221C110.993 14.1352 111.033 14.0929 111.033 14.0281C111.033 13.8562 111.367 13.8837 111.942 14.1031ZM56.9722 17.856C56.9722 18.1022 56.913 18.2719 56.825 18.2775C56.7072 18.2849 56.7072 18.2987 56.825 18.3461C56.999 18.4163 57.026 19.2104 56.8544 19.2104C56.7897 19.2104 56.7367 19.2672 56.7367 19.3365C56.7367 19.4951 56.4388 19.7993 56.2838 19.7993C56.2197 19.7993 56.1471 19.8603 56.1222 19.935C56.046 20.1634 54.5797 20.1313 54.3438 19.896C54.1259 19.6788 54.0592 18.6215 54.2633 18.6215C54.3281 18.6215 54.3811 18.5647 54.3811 18.4954C54.3811 18.3076 54.6912 18.0326 54.9027 18.0326C55.0045 18.0326 55.0878 17.9829 55.0878 17.922C55.0878 17.8613 55.3263 17.7757 55.6178 17.732C55.9093 17.6884 56.1478 17.6056 56.1478 17.5481C56.1478 17.4907 56.3333 17.4437 56.56 17.4437C56.9525 17.4437 56.9722 17.4634 56.9722 17.856ZM83.0013 18.3847C83.0013 19.3774 82.8207 19.7993 82.396 19.7993C82.2863 19.7993 82.1744 19.8656 82.1474 19.9465C82.116 20.0409 81.862 20.0937 81.4405 20.0937C80.8556 20.0937 80.7489 20.0545 80.4787 19.7404C80.3116 19.5461 80.1748 19.3288 80.1747 19.2574C80.1745 19.007 80.4343 18.386 80.5395 18.386C80.5979 18.386 80.6457 18.3065 80.6457 18.2093C80.6457 18.0994 80.7569 18.0326 80.9402 18.0326C81.1021 18.0326 81.2346 17.9802 81.2346 17.9163C81.2346 17.8522 81.4466 17.766 81.7057 17.7245C81.9648 17.6831 82.1768 17.603 82.1768 17.5464C82.1768 17.4899 82.3623 17.4437 82.5891 17.4437C83.0013 17.4437 83.0013 17.4437 83.0013 18.3847ZM47.6972 22.2411C47.4219 22.2659 46.9713 22.2659 46.696 22.2411C46.4208 22.2164 46.646 22.196 47.1966 22.196C47.7472 22.196 47.9724 22.2164 47.6972 22.2411ZM71.8418 22.2411C71.5665 22.2659 71.1159 22.2659 70.8407 22.2411C70.5654 22.2164 70.7906 22.196 71.3412 22.196C71.8918 22.196 72.117 22.2164 71.8418 22.2411ZM126.256 22.2411C125.98 22.2659 125.53 22.2659 125.254 22.2411C124.979 22.2164 125.204 22.196 125.755 22.196C126.306 22.196 126.531 22.2164 126.256 22.2411Z" fill="#8D8D8D"/>
</svg>
