<svg width="17" height="18" viewBox="0 0 17 18" fill="none" xmlns="http://www.w3.org/2000/svg">
<path d="M7.66699 13.875L5.52116 15.9791C5.36838 16.1319 5.17741 16.2083 4.94824 16.2083C4.71908 16.2083 4.5281 16.125 4.37533 15.9583C4.20866 15.8055 4.12533 15.6145 4.12533 15.3854C4.12533 15.1562 4.20866 14.9583 4.37533 14.7916L7.66699 11.5V9.83329H6.00033L2.68783 13.1458C2.53505 13.2986 2.34408 13.375 2.11491 13.375C1.88574 13.375 1.68783 13.2916 1.52116 13.125C1.36838 12.9722 1.29199 12.7812 1.29199 12.552C1.29199 12.3229 1.36838 12.1319 1.52116 11.9791L3.62533 9.83329H0.979492C0.743381 9.83329 0.548937 9.75343 0.396159 9.59371C0.243381 9.43399 0.166992 9.23607 0.166992 8.99996C0.166992 8.76385 0.246853 8.56593 0.406576 8.40621C0.566298 8.24649 0.764214 8.16663 1.00033 8.16663H3.62533L1.52116 6.04163C1.36838 5.88885 1.29199 5.69788 1.29199 5.46871C1.29199 5.23954 1.37533 5.04163 1.54199 4.87496C1.69477 4.72218 1.88574 4.64579 2.11491 4.64579C2.34408 4.64579 2.54199 4.72218 2.70866 4.87496L6.00033 8.16663H7.66699V6.49996L4.35449 3.20829C4.20171 3.05551 4.12533 2.86454 4.12533 2.63538C4.12533 2.40621 4.20866 2.20829 4.37533 2.04163C4.5281 1.88885 4.71908 1.81246 4.94824 1.81246C5.17741 1.81246 5.36838 1.88885 5.52116 2.04163L7.66699 4.12496V1.49996C7.66699 1.26385 7.74685 1.06593 7.90658 0.906209C8.0663 0.746487 8.26421 0.666626 8.50033 0.666626C8.73644 0.666626 8.93435 0.746487 9.09408 0.906209C9.2538 1.06593 9.33366 1.26385 9.33366 1.49996V4.12496L11.4587 2.04163C11.6114 1.88885 11.8024 1.81246 12.0316 1.81246C12.2607 1.81246 12.4587 1.88885 12.6253 2.04163C12.7781 2.20829 12.8545 2.40621 12.8545 2.63538C12.8545 2.86454 12.7781 3.05551 12.6253 3.20829L9.33366 6.49996V8.16663H11.0003L14.292 4.87496C14.4448 4.72218 14.6357 4.64579 14.8649 4.64579C15.0941 4.64579 15.292 4.72913 15.4587 4.89579C15.6114 5.04857 15.6878 5.23954 15.6878 5.46871C15.6878 5.69788 15.6114 5.88885 15.4587 6.04163L13.3753 8.16663H16.0003C16.2364 8.16663 16.4344 8.24649 16.5941 8.40621C16.7538 8.56593 16.8337 8.76385 16.8337 8.99996C16.8337 9.23607 16.7538 9.43399 16.5941 9.59371C16.4344 9.75343 16.2364 9.83329 16.0003 9.83329H13.3753L15.4587 11.9791C15.6114 12.1319 15.6878 12.3229 15.6878 12.552C15.6878 12.7812 15.6114 12.9722 15.4587 13.125C15.292 13.2916 15.0941 13.375 14.8649 13.375C14.6357 13.375 14.4448 13.2916 14.292 13.125L11.0003 9.83329H9.33366V11.5L12.6253 14.8125C12.7781 14.9652 12.8545 15.1562 12.8545 15.3854C12.8545 15.6145 12.7712 15.8125 12.6045 15.9791C12.4517 16.1319 12.2607 16.2083 12.0316 16.2083C11.8024 16.2083 11.6114 16.1319 11.4587 15.9791L9.33366 13.875V16.5208C9.33366 16.7569 9.2538 16.9513 9.09408 17.1041C8.93435 17.2569 8.73644 17.3333 8.50033 17.3333C8.26421 17.3333 8.0663 17.2534 7.90658 17.0937C7.74685 16.934 7.66699 16.7361 7.66699 16.5V13.875Z" fill="white"/>
</svg>
