<svg width="70" height="33" viewBox="0 0 70 33" fill="none" xmlns="http://www.w3.org/2000/svg">
<path fill-rule="evenodd" clip-rule="evenodd" d="M45.2227 2.29857V0.5H38.0275V10.3752H45.2227V8.74627H40.0297V6.06538H44.5775V4.30075H40.0297V2.29857H45.2227ZM43.2205 11.3932V15.194H39.2831V11.3932H37.2479V21.2349H39.2831V16.8229H43.2205V21.2349H45.2227V11.3932H43.2205ZM45.2227 24.0167V22.253H38.0275V32.2629H45.2227V30.4653H40.0297V27.8179H44.5775V26.1895H40.0297V24.0167H45.2227ZM36.8742 0.5H34.872V4.30075H30.9355V0.5H28.9333V10.3752H30.9355V5.96358H34.872V10.3752H36.8742V0.5ZM20.3138 0.5V2.29857H23.3679V10.3752H25.3701V2.29857H28.4243V0.5H20.3138ZM14.0018 11.1217C10.8458 11.1217 9.18302 12.9203 9.18302 16.3138C9.18302 19.877 10.8458 21.6417 14.0018 21.6417C17.1578 21.6417 18.7867 19.877 18.7867 16.3138C18.7867 12.9203 17.1578 11.1217 14.0018 11.1217ZM11.3549 16.3138C11.3549 14.0402 12.2372 12.9203 14.0018 12.9203C15.9022 12.9203 16.7845 14.0402 16.7845 16.3138C16.7845 18.7237 15.9022 19.877 14.0018 19.877C12.2372 19.877 11.3549 18.7237 11.3549 16.3138ZM6.29853 11.3932V18.3499L2.36204 11.3932H0.224121V21.2349H2.12449V14.3116L6.16279 21.2349H8.3007V11.3932H6.29853ZM15.6307 26.3247V24.0167H20.6871V22.253H13.6285V32.2629H15.6307V28.0894H20.0762V26.3247H15.6307ZM36.5014 13.1579V11.3932H28.4243V13.1579H31.4445V21.2349H33.4806V13.1579H36.5014ZM23.9788 17.4681C24.6236 17.4681 25.1326 17.5694 25.3701 17.8409L25.7434 21.2349H28.0171V20.9974C27.7795 20.8612 27.6438 20.2508 27.6438 19.0965C27.6438 17.7056 27.1348 16.9586 26.3882 16.5853C27.4062 16.1781 27.9153 15.4315 27.9153 14.1759C27.9153 12.4113 26.8972 11.3932 24.7593 11.3932H19.8047V21.2349H21.8409V17.4681H23.9788ZM21.8409 15.8048V13.1579H24.3521C25.3701 13.1579 25.8792 13.5311 25.8792 14.4135C25.8792 15.2958 25.3701 15.8048 24.2503 15.8048H21.8409ZM25.3701 22.253H22.9607L19.4315 32.2629H21.5694L22.3499 30.0915H26.0149L26.6257 32.2629H28.7976L25.3701 22.253ZM24.1145 24.5257L25.3701 28.4631H22.8589L24.1145 24.5257ZM35.2457 25.5437H37.2479C37.1456 24.6619 36.8742 23.9153 36.2629 23.2701C35.381 22.5235 34.363 22.0145 32.9716 22.0145C31.5803 22.0145 30.5622 22.5235 29.6799 23.4063C28.9333 24.2881 28.4243 25.5437 28.4243 27.207C28.4243 30.7363 29.9174 32.5 32.8359 32.5C35.381 32.5 36.7719 31.2444 37.2479 28.8355H35.2457C34.9743 29.9888 34.0915 30.6001 32.9716 30.6001C31.3088 30.6001 30.5622 29.4807 30.5622 27.3084C30.5622 24.9334 31.3088 23.7791 32.9716 23.7791C34.0915 23.7791 34.7367 24.4244 35.2457 25.5437ZM10.0993 32.1277C10.4386 32.1277 10.7101 31.9914 10.9142 31.8222C11.0839 31.6186 11.2191 31.3471 11.2191 30.9743C11.2191 30.5666 11.0834 30.2952 10.9142 30.1255C10.7106 29.9563 10.4391 29.854 10.0993 29.854H10.0653C9.65811 29.854 9.38663 29.9563 9.21696 30.1255C9.04775 30.2947 8.94547 30.5666 8.94547 30.9743V31.0073C8.94547 31.3471 9.04728 31.6186 9.21696 31.8222C9.38663 31.9914 9.65859 32.1277 10.0653 32.1277H10.0993ZM10.0653 32.3991C9.59024 32.3991 9.25089 32.2299 9.01334 31.9914C8.7758 31.7539 8.67399 31.415 8.67399 31.0073V30.9743C8.67399 30.4983 8.7758 30.1594 9.01334 29.9223C9.25089 29.6848 9.59024 29.5825 10.0653 29.5825H10.0993C10.5065 29.5825 10.8458 29.6848 11.0834 29.9223C11.3209 30.1599 11.4906 30.4988 11.4906 30.9743C11.4906 31.4155 11.3209 31.7539 11.0834 31.9914C10.9547 32.1214 10.8013 32.2243 10.6324 32.2943C10.4634 32.3643 10.2822 32.4 10.0993 32.3991H10.0653ZM10.2011 30.8381H10.235C10.3708 30.8381 10.4386 30.7698 10.4386 30.6006V30.5666C10.4386 30.5666 10.4047 30.5666 10.4047 30.5327C10.3708 30.4988 10.3029 30.4988 10.2011 30.4988H9.82779V30.8386L10.2011 30.8381ZM10.4386 31.0757L10.7101 31.4155C10.744 31.4829 10.7101 31.5508 10.6762 31.5847C10.6083 31.653 10.5065 31.6186 10.4726 31.5847L10.1332 31.1096H9.82779V31.4824C9.82779 31.5508 9.75992 31.6186 9.69205 31.6186C9.62418 31.6186 9.55631 31.5503 9.55631 31.4824V30.363C9.55631 30.2947 9.62418 30.2278 9.69205 30.2278H10.235C10.3708 30.2278 10.5065 30.2607 10.5744 30.3291C10.6083 30.363 10.6422 30.363 10.6422 30.3974C10.7101 30.4658 10.7101 30.5327 10.7101 30.601C10.7101 30.8721 10.6422 31.0073 10.4386 31.0757ZM46.6136 0.5C52.926 0.5 58.3891 2.8076 62.8007 7.21918C67.348 11.7665 69.6221 17.1961 69.6221 23.5416V32.2629H60.3918V23.2701C60.3918 19.7418 59.1362 16.6871 56.591 14.1759C55.9797 13.5311 55.3354 13.0221 54.5888 12.5131C52.5527 11.1217 50.1433 10.5109 47.6321 10.5109H46.614L46.6136 0.5ZM59.5085 32.2629H52.3142V25.3062C52.3142 24.1529 51.9414 23.2701 51.1609 22.5235C50.4143 21.7439 49.3963 21.3702 48.3782 21.3702H46.6136V11.3932H47.6316C50.2781 11.3932 52.5518 12.1398 54.5884 13.6669C55.0974 13.9044 55.6064 14.4135 55.9792 14.7867C58.3891 17.1966 59.5085 19.9793 59.5085 23.2706V32.2629ZM51.4324 32.2629H46.6131V22.253H48.3782C49.1587 22.253 49.9053 22.5235 50.5496 23.1348C51.0586 23.6438 51.4324 24.4244 51.4324 25.3062V32.2629Z" fill="#8D8D8D"/>
</svg>
