<svg width="176" height="30" viewBox="0 0 176 30" fill="none" xmlns="http://www.w3.org/2000/svg">
<path fill-rule="evenodd" clip-rule="evenodd" d="M14.9054 29.1878C23.0204 29.1878 29.5454 23.0909 29.5454 14.6128C29.5454 6.13594 23.0204 0.0390625 14.906 0.0390625C6.74912 0.0390625 0.224121 6.13594 0.224121 14.6128C0.224121 23.0909 6.74912 29.1878 14.9054 29.1878ZM14.9054 25.2209C8.966 25.2209 4.74162 20.6691 4.74162 14.6134C4.74162 8.55781 8.96662 4.00594 14.906 4.00594C20.8454 4.00594 25.0279 8.55781 25.0279 14.6134C25.0279 20.6691 20.8447 25.2209 14.9054 25.2209ZM44.9885 22.8209H45.311V7.28781H41.6416V12.2409C41.6416 13.5016 41.8766 15.4941 41.8766 15.4941C41.8766 15.4941 40.9079 14.2628 39.6747 13.1791L32.5997 7.08219H32.2766V22.5872H35.946V17.6047C35.946 16.3441 35.6529 14.3803 35.6529 14.3803C35.6529 14.3803 36.7091 15.6703 37.8547 16.6666L44.9885 22.8222V22.8209ZM49.1866 22.5866H54.7054C59.2554 22.5866 62.691 19.5972 62.691 14.9366C62.691 10.2178 59.2266 7.28656 54.7054 7.28656H49.1866V22.5866ZM53.1791 19.1278V10.7453H54.5004C57.3479 10.7453 58.6104 12.3866 58.6104 14.9366C58.6104 17.5159 57.3479 19.1278 54.5004 19.1278H53.1791ZM66.1841 22.5866H77.3691V19.1572H70.1766V17.2822H75.9304V14.0284H70.1766V10.7159H77.0754V7.28781H66.1841V22.5878V22.5866ZM90.3741 17.8091C92.0179 16.9591 93.0748 15.4353 93.0748 13.1491C93.0748 9.10406 90.1104 7.28656 86.0585 7.28656H80.8622V22.5866H84.8554V18.9228H86.0585C86.2647 18.9228 86.4697 18.9228 86.6754 18.8934L88.8185 22.5872H93.3097L90.3741 17.8091ZM84.8554 15.5528V10.7159H85.971C88.0554 10.7159 88.9948 11.4197 88.9948 13.1491C88.9948 14.8784 88.0554 15.5522 85.971 15.5522L84.8554 15.5528ZM109.339 22.8216H109.662V7.28719H105.992V12.2403C105.992 13.5009 106.227 15.4934 106.227 15.4934C106.227 15.4934 105.258 14.2622 104.025 13.1784L96.9504 7.08156H96.6272V22.5866H100.297V17.6041C100.297 16.3434 100.003 14.3797 100.003 14.3797C100.003 14.3797 101.06 15.6697 102.205 16.6659L109.339 22.8216ZM113.537 22.5866H124.722V19.1572H117.53V17.2822H123.284V14.0284H117.53V10.7159H124.428V7.28781H113.537V22.5878L113.537 22.5866ZM128.215 22.5866H132.062V17.9266C132.062 16.6659 131.856 14.9366 131.856 14.9366C131.856 14.9366 132.766 16.4316 133.823 17.5453L136.054 19.9197H136.348L138.52 17.5453C139.547 16.4316 140.516 14.9366 140.516 14.9366C140.516 14.9366 140.311 16.6659 140.311 17.9266V22.5866H144.157V7.08156H143.863L136.26 15.2884L128.51 7.08219H128.216V22.5866H128.215ZM148.061 22.5866H159.246V19.1572H152.053V17.2822H157.807V14.0284H152.053V10.7159H158.952V7.28781H148.061V22.5878V22.5866ZM172.251 17.8091C173.895 16.9591 174.952 15.4353 174.952 13.1491C174.952 9.10406 171.987 7.28656 167.935 7.28656H162.739V22.5866H166.732V18.9228H167.935C168.142 18.9228 168.347 18.9228 168.552 18.8934L170.695 22.5872H175.187L172.251 17.8091ZM166.732 15.5528V10.7159H167.847C169.932 10.7159 170.871 11.4197 170.871 13.1491C170.871 14.8784 169.932 15.5522 167.847 15.5522H166.732L166.732 15.5528Z" fill="#8D8D8D"/>
</svg>
