<svg width="44" height="44" viewBox="0 0 44 44" fill="none" xmlns="http://www.w3.org/2000/svg">
<g clip-path="url(#clip0_39_5382)">
<path d="M5.75377 7.39648H38.0296C40.6292 7.39648 42.7365 9.50383 42.7365 12.1034V30.931C42.7365 33.5305 40.6292 35.6379 38.0296 35.6379H5.75377C3.15422 35.6379 1.04688 33.5305 1.04688 30.931V12.1034C1.04688 9.50383 3.15422 7.39648 5.75377 7.39648Z" fill="white" stroke="#EFEFF3" stroke-width="1.34483"/>
<mask id="mask0_39_5382" style="mask-type:luminance" maskUnits="userSpaceOnUse" x="11" y="10" width="22" height="23">
<path d="M32.7658 10.7578H11.0527V32.2751H32.7658V10.7578Z" fill="white"/>
</mask>
<g mask="url(#mask0_39_5382)">
<path d="M19.8963 24.4501L20.142 22.8901L19.5949 22.8775H16.9824L18.7979 11.3661C18.8036 11.3313 18.8219 11.2989 18.8486 11.2759C18.8754 11.2529 18.9097 11.2402 18.9453 11.2402H23.3502C24.8125 11.2402 25.8217 11.5445 26.3486 12.1452C26.5957 12.4269 26.753 12.7214 26.8291 13.0454C26.9089 13.3854 26.9103 13.7915 26.8323 14.287L26.8267 14.3232V14.6407L27.0737 14.7805C27.2818 14.8909 27.4471 15.0172 27.5739 15.1619C27.7852 15.4028 27.9218 15.709 27.9796 16.072C28.0392 16.4453 28.0196 16.8895 27.9218 17.3925C27.8092 17.971 27.627 18.4749 27.3809 18.8872C27.1544 19.2671 26.8661 19.5822 26.5238 19.8265C26.1969 20.0584 25.8087 20.2345 25.3694 20.3473C24.9441 20.4581 24.459 20.5139 23.9268 20.5139H23.584C23.339 20.5139 23.1008 20.6023 22.9141 20.7604C22.7266 20.9221 22.6026 21.1428 22.5647 21.3842L22.5388 21.5246L22.1049 24.2741L22.0851 24.3751C22.08 24.4069 22.071 24.4229 22.0579 24.4337C22.0462 24.4435 22.0293 24.4501 22.0129 24.4501H19.8963Z" fill="#253B80"/>
<path d="M27.3157 14.3575C27.3027 14.4416 27.2876 14.5275 27.2707 14.6158C26.6899 17.5982 24.7023 18.6286 22.1642 18.6286H20.8719C20.5613 18.6286 20.2999 18.854 20.2515 19.1601L19.5898 23.3565L19.4025 24.546C19.371 24.747 19.526 24.9282 19.7289 24.9282H22.021C22.2924 24.9282 22.523 24.731 22.5657 24.4634L22.5883 24.3469L23.0198 21.6082L23.0475 21.4578C23.0898 21.1893 23.3208 20.992 23.5923 20.992H23.9351C26.1558 20.992 27.8943 20.0904 28.4024 17.4813C28.6147 16.3913 28.5047 15.4813 27.9432 14.8411C27.7733 14.6482 27.5624 14.488 27.3157 14.3575Z" fill="#179BD7"/>
<path d="M26.7066 14.1207C26.6178 14.0949 26.5262 14.0713 26.4323 14.0502C26.3379 14.0295 26.2412 14.0112 26.1417 13.9952C25.7932 13.9389 25.4114 13.9121 25.0025 13.9121H21.5499C21.4649 13.9121 21.3841 13.9315 21.3117 13.9662C21.1526 14.0427 21.0343 14.1934 21.0057 14.378L20.2711 19.0299L20.25 19.1655C20.2984 18.8595 20.5598 18.6341 20.8704 18.6341H22.1627C24.7008 18.6341 26.6884 17.6037 27.2692 14.6212C27.2861 14.533 27.3012 14.4471 27.3142 14.363C27.1673 14.285 27.008 14.2183 26.8367 14.1616C26.7945 14.1475 26.7508 14.1339 26.7066 14.1207Z" fill="#222D65"/>
<path d="M21.001 14.3732C21.0297 14.1887 21.148 14.038 21.3071 13.9615C21.3795 13.9268 21.4603 13.9074 21.5453 13.9074H24.9979C25.4068 13.9074 25.7886 13.9342 26.1371 13.9905C26.2366 14.0065 26.3333 14.0248 26.4277 14.0455C26.5216 14.0666 26.6131 14.0902 26.702 14.116C26.7461 14.1292 26.7898 14.1427 26.8321 14.1569C27.0034 14.2136 27.1626 14.2803 27.3096 14.3583C27.4824 13.2561 27.3088 12.5057 26.7129 11.8262C26.056 11.0781 24.8701 10.7578 23.3529 10.7578H18.948C18.638 10.7578 18.3736 10.9832 18.3258 11.2899L16.491 22.9196C16.4548 23.1497 16.6324 23.3572 16.8643 23.3572H19.5837L20.2665 19.0251L21.001 14.3732Z" fill="#253B80"/>
<path d="M13.6583 26.4866H11.9694C11.8539 26.4866 11.7556 26.5706 11.7376 26.6847L11.0545 31.0154C11.0409 31.1007 11.1071 31.1779 11.1938 31.1779H12.0001C12.1156 31.1779 12.2139 31.0939 12.232 30.9795L12.4162 29.8115C12.434 29.6971 12.5325 29.6132 12.6478 29.6132H13.1824C14.2949 29.6132 14.9369 29.0748 15.1046 28.008C15.1802 27.5413 15.1079 27.1746 14.8893 26.9179C14.6493 26.6357 14.2235 26.4866 13.6583 26.4866ZM13.8531 28.0682C13.7608 28.6743 13.2978 28.6743 12.8501 28.6743H12.5952L12.774 27.5425C12.7846 27.4741 12.8439 27.4238 12.913 27.4238H13.0298C13.3348 27.4238 13.6225 27.4238 13.7712 27.5977C13.8599 27.7014 13.887 27.8555 13.8531 28.0682Z" fill="#253B80"/>
<path d="M18.7099 28.0584H17.9012C17.8323 28.0584 17.7727 28.1088 17.7622 28.1773L17.7263 28.4034L17.6698 28.3215C17.4947 28.0673 17.1043 27.9824 16.7146 27.9824C15.821 27.9824 15.0576 28.6593 14.9089 29.6087C14.8317 30.0824 14.9416 30.5353 15.2103 30.8512C15.4567 31.1416 15.8093 31.2626 16.2289 31.2626C16.949 31.2626 17.3483 30.7996 17.3483 30.7996L17.3123 31.0243C17.2987 31.1102 17.3648 31.1873 17.451 31.1873H18.1795C18.2953 31.1873 18.3931 31.1034 18.4114 30.9889L18.8484 28.221C18.8623 28.1357 18.7964 28.0584 18.7099 28.0584ZM17.5827 29.6325C17.5046 30.0946 17.1378 30.4047 16.6702 30.4047C16.4353 30.4047 16.2477 30.3294 16.1272 30.1866C16.0076 30.0448 15.9622 29.8431 16.0002 29.6184C16.073 29.1604 16.4459 28.84 16.9065 28.84C17.1362 28.84 17.3229 28.9164 17.4458 29.0603C17.5691 29.2058 17.6179 29.4087 17.5827 29.6325Z" fill="#253B80"/>
<path d="M23.0064 28.0547H22.1937C22.1161 28.0547 22.0432 28.0933 21.9993 28.1577L20.8784 29.8087L20.4033 28.2221C20.3735 28.1229 20.2817 28.0547 20.178 28.0547H19.3795C19.2824 28.0547 19.215 28.1496 19.2458 28.2409L20.1411 30.8679L19.2995 32.0561C19.2333 32.1497 19.3 32.2783 19.4143 32.2783H20.2261C20.303 32.2783 20.3752 32.2407 20.4189 32.1775L23.1219 28.2758C23.1866 28.1824 23.1201 28.0547 23.0064 28.0547Z" fill="#253B80"/>
<path d="M25.7091 26.4863H24.02C23.9046 26.4863 23.8063 26.5702 23.7884 26.6844L23.1053 31.015C23.0918 31.1006 23.158 31.1776 23.244 31.1776H24.1109C24.1915 31.1776 24.2603 31.1189 24.2728 31.0388L24.4668 29.8113C24.4845 29.697 24.5831 29.6129 24.6983 29.6129H25.2328C26.3455 29.6129 26.9872 29.0746 27.1552 28.0079C27.2311 27.5411 27.1582 27.1743 26.9396 26.9175C26.6998 26.6355 26.2743 26.4863 25.7091 26.4863ZM25.904 28.0681C25.8119 28.6741 25.3488 28.6741 24.9009 28.6741H24.6463L24.8253 27.5423C24.8359 27.474 24.8947 27.4235 24.9641 27.4235H25.0808C25.3857 27.4235 25.6736 27.4235 25.8222 27.5973C25.9108 27.7011 25.9379 27.8551 25.904 28.0681Z" fill="#179BD7"/>
<path d="M30.7597 28.0584H29.9515C29.8821 28.0584 29.8231 28.1088 29.8127 28.1773L29.7769 28.4034L29.7201 28.3215C29.545 28.0673 29.1548 27.9824 28.7651 27.9824C27.8715 27.9824 27.1084 28.6593 26.9597 29.6087C26.8826 30.0824 26.9921 30.5353 27.2608 30.8512C27.5077 31.1416 27.8599 31.2626 28.2795 31.2626C28.9995 31.2626 29.3988 30.7996 29.3988 30.7996L29.3627 31.0243C29.3492 31.1102 29.4153 31.1873 29.5021 31.1873H30.2303C30.3457 31.1873 30.4438 31.1034 30.462 30.9889L30.8992 28.221C30.9127 28.1357 30.8464 28.0584 30.7597 28.0584ZM29.6325 29.6325C29.5549 30.0946 29.1876 30.4047 28.7199 30.4047C28.4856 30.4047 28.2974 30.3294 28.1769 30.1866C28.0575 30.0448 28.0125 29.8431 28.0499 29.6184C28.1233 29.1604 28.4957 28.84 28.9563 28.84C29.186 28.84 29.3727 28.9164 29.4956 29.0603C29.6193 29.2058 29.6683 29.4087 29.6325 29.6325Z" fill="#179BD7"/>
<path d="M31.7146 26.6053L31.0213 31.0153C31.0077 31.1008 31.074 31.1779 31.1601 31.1779H31.857C31.9728 31.1779 32.0711 31.0938 32.089 30.9795L32.7724 26.6491C32.7861 26.5637 32.7198 26.4863 32.6336 26.4863H31.8533C31.7845 26.4866 31.7252 26.537 31.7146 26.6053Z" fill="#179BD7"/>
</g>
</g>
<defs>
<clipPath id="clip0_39_5382">
<rect width="43.0345" height="43.0345" fill="white" transform="translate(0.375)"/>
</clipPath>
</defs>
</svg>
