<svg width="83" height="27" viewBox="0 0 83 27" fill="none" xmlns="http://www.w3.org/2000/svg">
<path fill-rule="evenodd" clip-rule="evenodd" d="M51.7543 10.6335C51.7543 3.52163 49.3375 0.000443044 44.5043 0.000443044C39.6022 0.000443044 37.1851 3.52207 37.1851 10.6335C37.1851 17.745 39.6022 21.267 44.5043 21.267C49.3375 21.267 51.7543 17.745 51.7543 10.6335ZM42.2256 3.45257C42.5023 1.93349 43.2611 1.17373 44.5043 1.17373C45.6782 1.17373 46.4377 1.93349 46.7131 3.45257C46.9214 4.28096 46.9899 6.69749 46.9899 10.6335C46.9899 14.6382 46.9214 16.9852 46.7131 17.8831C46.4374 19.3336 45.6776 20.0929 44.5043 20.0929C43.2611 20.0929 42.5023 19.3331 42.2256 17.8831C42.0183 16.9852 41.9498 14.6378 41.9498 10.6335C41.9498 6.69749 42.0183 4.28096 42.2256 3.45257ZM7.49488 0C2.59231 0 0.175781 3.52163 0.175781 10.6331C0.175781 17.7446 2.59275 21.2666 7.49488 21.2666C12.3284 21.2666 14.7449 17.7446 14.7449 10.6331C14.7449 3.52163 12.328 0 7.49488 0ZM9.7042 3.45257C9.91186 4.28096 9.98048 6.69749 9.98048 10.6335C9.98048 14.6382 9.91186 16.9852 9.7042 17.8831C9.42837 19.3336 8.6686 20.0929 7.49488 20.0929C6.25163 20.0929 5.49278 19.3331 5.21651 17.8831C5.00929 16.9852 4.94023 14.6378 4.94023 10.6335C4.94023 6.69793 5.00929 4.2814 5.21651 3.45257C5.49278 1.93349 6.25207 1.17373 7.49488 1.17373C8.6686 1.17373 9.42793 1.93349 9.7042 3.45257ZM31.8687 0.483046H30.3496V16.0183C30.2806 17.1929 30.0043 18.1594 29.314 18.7806C28.7619 19.4018 28.0713 19.6785 27.2429 19.6785C25.5857 19.6785 24.7573 18.4352 24.7573 16.0183V1.10466C24.7573 0.690691 24.5501 0.483046 24.0666 0.483046H20.0619V14.9831C20.0619 19.195 22.1331 21.3353 26.2068 21.3353C29.9357 21.3353 31.7997 19.5403 31.8692 16.0183L31.8687 0.483046ZM68.1184 2.1407V0.483487H54.3088V2.1407H58.8658V20.231C58.8658 20.6459 59.0731 20.8531 59.4184 20.8531H63.4921V2.1407H68.1184ZM76.8185 10.9098H80.9617V9.32165H76.8185V2.1407H82.3426V0.483487H72.1925V20.231C72.1925 20.6459 72.3998 20.8531 72.7451 20.8531H82.4813V19.2645H76.8188V10.9098H76.8185ZM14.1233 26.5832L14.883 26.1001L14.814 25.962L8.46142 22.3713C7.77072 21.9573 7.08045 22.0268 6.32072 22.5094L4.24953 23.8213L8.87582 26.4455C9.98048 26.9285 11.2924 27.0667 12.7423 26.9285L14.1233 26.5832Z" fill="#8D8D8D"/>
</svg>
