<svg width="44" height="44" viewBox="0 0 44 44" fill="none" xmlns="http://www.w3.org/2000/svg">
<g clip-path="url(#clip0_39_5408)">
<g clip-path="url(#clip1_39_5408)">
<path d="M38.6234 7.39648H6.34752C3.74798 7.39648 1.64062 9.50383 1.64062 12.1034V30.931C1.64062 33.5305 3.74798 35.6379 6.34752 35.6379H38.6234C41.2229 35.6379 43.3303 33.5305 43.3303 30.931V12.1034C43.3303 9.50383 41.2229 7.39648 38.6234 7.39648Z" fill="white"/>
<path d="M5.67885 26.4707L6.02318 26.4363C6.04435 26.5521 6.08558 26.638 6.1491 26.6925C6.21261 26.7471 6.29843 26.774 6.40539 26.774C6.51906 26.774 6.60597 26.7494 6.66392 26.7015C6.72187 26.6535 6.75084 26.5967 6.75084 26.532C6.75084 26.4909 6.73859 26.4553 6.71407 26.4262C6.68956 26.3973 6.64721 26.3716 6.58704 26.3505C6.54581 26.336 6.45109 26.3103 6.30399 26.2746C6.11456 26.2278 5.98195 26.1699 5.90506 26.102C5.79808 26.0061 5.74348 25.888 5.74348 25.7498C5.74348 25.6606 5.76912 25.5771 5.81925 25.5003C5.8694 25.4222 5.94295 25.3631 6.03878 25.323C6.13461 25.283 6.24939 25.2617 6.38423 25.2617C6.60486 25.2617 6.76979 25.3096 6.88122 25.4066C6.99265 25.5035 7.0506 25.6329 7.05617 25.7944L6.70069 25.8077C6.6851 25.7175 6.65279 25.6528 6.60264 25.6127C6.55249 25.5726 6.47783 25.5537 6.37866 25.5537C6.27948 25.5537 6.19479 25.5748 6.13684 25.6172C6.09896 25.6439 6.08113 25.6808 6.08113 25.7265C6.08113 25.7676 6.09896 25.8033 6.1335 25.8334C6.17808 25.8713 6.28616 25.9103 6.45889 25.9504C6.63161 25.9905 6.75864 26.0328 6.8411 26.0763C6.92357 26.1197 6.9882 26.18 7.035 26.2546C7.0818 26.3303 7.1052 26.4239 7.1052 26.5354C7.1052 26.6368 7.07734 26.7304 7.02163 26.8185C6.9659 26.9066 6.88679 26.9722 6.78427 27.0146C6.68176 27.0569 6.55472 27.0793 6.40206 27.0793C6.1803 27.0793 6.00981 27.028 5.89058 26.9243C5.77133 26.8208 5.70002 26.6703 5.67773 26.473L5.67885 26.4707Z" fill="#0054A6"/>
<path d="M7.48242 25.6028V25.293H7.82007V25.6028H7.48242ZM7.48242 27.0481V25.7767H7.82007V27.0481H7.48242Z" fill="#0054A6"/>
<path d="M9.05174 27.0457V26.396C9.05174 26.2589 9.04504 26.1698 9.03056 26.1297C9.01608 26.0896 8.99268 26.0584 8.96036 26.035C8.92804 26.0127 8.88904 26.0015 8.84446 26.0015C8.78653 26.0015 8.73415 26.0171 8.68846 26.0496C8.64278 26.0818 8.61046 26.1242 8.59375 26.1765C8.57703 26.229 8.56811 26.327 8.56811 26.4695V27.0469H8.23047V25.7753H8.5436V25.9625C8.65503 25.8177 8.79433 25.7441 8.96258 25.7441C9.03724 25.7441 9.10411 25.7575 9.16651 25.7842C9.22781 25.811 9.27461 25.8455 9.30581 25.8867C9.33701 25.928 9.35929 25.9759 9.37156 26.0283C9.38381 26.0806 9.39049 26.1565 9.39049 26.2545V27.0457H9.05174Z" fill="#0054A6"/>
<path d="M9.77756 27.1293L10.1609 27.1717C10.1676 27.2185 10.1821 27.2518 10.2055 27.2697C10.2378 27.2953 10.2879 27.3075 10.357 27.3075C10.4451 27.3075 10.5108 27.2942 10.5554 27.2686C10.5855 27.2508 10.6077 27.2229 10.6222 27.1839C10.6323 27.1559 10.6378 27.1047 10.6378 27.029V26.8429C10.5398 26.9788 10.4127 27.0469 10.2601 27.0469C10.0896 27.0469 9.95363 26.9744 9.85334 26.8296C9.77533 26.7147 9.73633 26.5732 9.73633 26.4027C9.73633 26.1887 9.78759 26.026 9.89011 25.9136C9.99263 25.801 10.1208 25.7441 10.2734 25.7441C10.4261 25.7441 10.5609 25.8133 10.6635 25.9514V25.7753H10.9766V26.9175C10.9766 27.068 10.9643 27.1806 10.9398 27.2541C10.9153 27.3288 10.8807 27.3867 10.8351 27.4289C10.7905 27.4713 10.7303 27.5048 10.6557 27.5282C10.581 27.5516 10.4863 27.5638 10.3726 27.5638C10.1564 27.5638 10.0038 27.5271 9.91351 27.4525C9.82324 27.3777 9.77756 27.2841 9.77756 27.1694C9.77756 27.1582 9.77756 27.1449 9.77868 27.1281L9.77756 27.1293ZM10.0807 26.3827C10.0807 26.5174 10.1063 26.6167 10.1587 26.6801C10.211 26.7425 10.2746 26.775 10.3503 26.775C10.4317 26.775 10.5008 26.7425 10.5565 26.678C10.6122 26.6133 10.6412 26.5186 10.6412 26.3915C10.6412 26.2646 10.6144 26.162 10.5598 26.0974C10.5063 26.0338 10.4384 26.0015 10.3559 26.0015C10.2734 26.0015 10.2099 26.0327 10.1587 26.0964C10.1063 26.1586 10.0807 26.2534 10.0807 26.3827Z" fill="#0054A6"/>
<path d="M11.3809 27.0481V25.293H11.7185V27.0481H11.3809Z" fill="#0054A6"/>
<path d="M12.8645 26.6467L13.1988 26.7025C13.1554 26.825 13.0874 26.9186 12.9938 26.9821C12.9002 27.0467 12.7843 27.0779 12.6439 27.0779C12.4221 27.0779 12.2583 27.0056 12.1513 26.8608C12.0677 26.7447 12.0254 26.5977 12.0254 26.4205C12.0254 26.2088 12.0811 26.0439 12.1914 25.9235C12.3018 25.8032 12.4411 25.7441 12.6104 25.7441C12.7999 25.7441 12.9503 25.8065 13.0595 25.9324C13.1687 26.0583 13.2211 26.2511 13.2166 26.5096H12.3709C12.3731 26.6099 12.401 26.6879 12.4533 26.7436C12.5057 26.7994 12.5715 26.8273 12.6494 26.8273C12.7029 26.8273 12.7475 26.8127 12.7831 26.7849C12.8199 26.7559 12.8455 26.7103 12.8645 26.6467ZM12.8824 26.3057C12.8801 26.2065 12.8545 26.1319 12.8066 26.0795C12.7587 26.0283 12.6996 26.0026 12.6305 26.0026C12.5569 26.0026 12.4957 26.0294 12.4478 26.084C12.3998 26.1386 12.3753 26.2121 12.3764 26.3057H12.8824Z" fill="#0054A6"/>
<path d="M14.3262 25.293H15.6255V25.5895H14.6816V25.9795H15.5597V26.2759H14.6816V26.7528H15.6601V27.0493H14.3262V25.293Z" fill="#0054A6"/>
<path d="M16.8704 27.0487V26.8582C16.8236 26.9262 16.7634 26.9796 16.6876 27.0198C16.6118 27.0599 16.5315 27.0799 16.448 27.0799C16.3645 27.0799 16.2854 27.061 16.2174 27.0231C16.1494 26.9853 16.1004 26.9328 16.0692 26.8649C16.039 26.7969 16.0234 26.7033 16.0234 26.583V25.7773H16.3611V26.3623C16.3611 26.5417 16.3678 26.6509 16.3801 26.691C16.3923 26.7312 16.4146 26.7635 16.448 26.7869C16.4803 26.8103 16.5226 26.8225 16.5728 26.8225C16.6308 26.8225 16.682 26.8069 16.7277 26.7757C16.7734 26.7445 16.8045 26.7055 16.8213 26.6587C16.838 26.6119 16.8469 26.4972 16.8469 26.3155V25.7784H17.1846V27.05H16.8715L16.8704 27.0487Z" fill="#0054A6"/>
<path d="M17.9314 27.048H17.5938V25.7766H17.9068V25.957C17.9604 25.8712 18.0082 25.8156 18.0517 25.7865C18.094 25.7587 18.1431 25.7441 18.1977 25.7441C18.2746 25.7441 18.3481 25.7654 18.4195 25.8078L18.3169 26.1019C18.2601 26.0652 18.2066 26.0473 18.1587 26.0473C18.1108 26.0473 18.0718 26.0607 18.0383 26.0863C18.0061 26.112 17.9793 26.1588 17.9604 26.2267C17.9414 26.2947 17.9325 26.4373 17.9325 26.6535V27.0469L17.9314 27.048Z" fill="#0054A6"/>
<path d="M18.543 26.3926C18.543 26.2802 18.5708 26.1721 18.6254 26.0673C18.68 25.9625 18.758 25.8823 18.8594 25.8266C18.9608 25.7709 19.0734 25.7441 19.1982 25.7441C19.3909 25.7441 19.5481 25.8065 19.6718 25.9324C19.7943 26.0572 19.8567 26.2166 19.8567 26.4071C19.8567 26.5977 19.7943 26.7604 19.6706 26.8874C19.547 27.0145 19.3898 27.0779 19.2015 27.0779C19.0845 27.0779 18.9741 27.0513 18.8683 26.9989C18.7624 26.9466 18.6823 26.8686 18.6265 26.7659C18.5719 26.6635 18.543 26.5397 18.543 26.3926ZM18.8872 26.4105C18.8872 26.5376 18.9174 26.6346 18.9775 26.7014C19.0377 26.7682 19.1112 26.8028 19.1992 26.8028C19.2873 26.8028 19.3609 26.7693 19.421 26.7014C19.4811 26.6346 19.5102 26.5364 19.5102 26.4084C19.5102 26.2802 19.48 26.1877 19.421 26.1196C19.3609 26.0528 19.2873 26.0182 19.1992 26.0182C19.1112 26.0182 19.0365 26.0517 18.9775 26.1196C18.9174 26.1866 18.8872 26.2834 18.8872 26.4105Z" fill="#0054A6"/>
<path d="M20.962 27.0481V25.293H21.5303C21.7454 25.293 21.8858 25.302 21.9515 25.3199C22.0519 25.3465 22.1366 25.4034 22.2045 25.4913C22.2725 25.5794 22.3059 25.6931 22.3059 25.8335C22.3059 25.9416 22.2859 26.0318 22.2469 26.1054C22.2079 26.1789 22.1577 26.2369 22.0976 26.2782C22.0373 26.3206 21.976 26.3472 21.9137 26.3617C21.829 26.3784 21.7064 26.3873 21.547 26.3873H21.3164V27.0493H20.9609L20.962 27.0481ZM21.3175 25.5895V26.091H21.5114C21.6507 26.091 21.7443 26.082 21.7911 26.063C21.8379 26.0442 21.8747 26.0151 21.9014 25.9761C21.9281 25.9371 21.9416 25.8914 21.9416 25.8391C21.9416 25.7744 21.9226 25.7221 21.8858 25.6797C21.8479 25.6385 21.8011 25.6117 21.7443 25.6017C21.7019 25.5939 21.6172 25.5895 21.4903 25.5895H21.3175Z" fill="#0054A6"/>
<path d="M22.9064 26.162L22.6031 26.1063C22.6378 25.9837 22.6967 25.8923 22.7804 25.8333C22.864 25.7743 22.9888 25.7441 23.1537 25.7441C23.3042 25.7441 23.4155 25.7619 23.4891 25.7975C23.5627 25.8333 23.6139 25.8789 23.644 25.9335C23.6741 25.9881 23.6885 26.0884 23.6885 26.2355L23.6852 26.6289C23.6852 26.7403 23.6908 26.8239 23.7008 26.8762C23.7119 26.9297 23.732 26.9866 23.761 27.0467H23.4267C23.4178 27.0244 23.4067 26.9921 23.3944 26.9487C23.3888 26.9287 23.3843 26.9164 23.382 26.9097C23.3242 26.9654 23.2629 27.0077 23.1982 27.0356C23.1326 27.0634 23.0635 27.0779 22.9888 27.0779C22.8584 27.0779 22.7547 27.0423 22.679 26.971C22.6031 26.8996 22.5664 26.8094 22.5664 26.7013C22.5664 26.63 22.5832 26.5653 22.6176 26.5085C22.6522 26.4518 22.7001 26.4094 22.7626 26.3793C22.8249 26.3492 22.914 26.3236 23.03 26.3001C23.1872 26.2712 23.2962 26.2433 23.3565 26.2177V26.1843C23.3565 26.1185 23.3409 26.0717 23.3086 26.0439C23.2762 26.0159 23.2161 26.0026 23.1269 26.0026C23.0668 26.0026 23.0199 26.0149 22.9865 26.0383C22.9532 26.0617 22.9252 26.104 22.9052 26.1631L22.9064 26.162ZM23.3588 26.4373C23.3153 26.4518 23.2473 26.4685 23.1548 26.4885C23.0622 26.5085 23.0011 26.5286 22.972 26.5475C22.9286 26.5787 22.9064 26.6188 22.9064 26.6668C22.9064 26.7147 22.9241 26.7548 22.9587 26.7893C22.9933 26.8239 23.0378 26.8406 23.0924 26.8406C23.1525 26.8406 23.2106 26.8205 23.2652 26.7805C23.3053 26.7503 23.3319 26.7124 23.3453 26.669C23.3543 26.6401 23.3588 26.5855 23.3588 26.5041V26.4373Z" fill="#0054A6"/>
<path d="M23.9414 25.7773H24.3002L24.6044 26.68L24.902 25.7773H25.2497L24.7203 27.2237C24.6902 27.2983 24.6624 27.3552 24.6356 27.3942C24.6088 27.4332 24.5776 27.4655 24.5432 27.49C24.5087 27.5146 24.4651 27.5336 24.4151 27.5469C24.3637 27.5602 24.3069 27.5669 24.2433 27.5669C24.1798 27.5669 24.1152 27.5602 24.0529 27.5469L24.0216 27.2827C24.074 27.2928 24.1219 27.2983 24.1653 27.2983C24.2445 27.2983 24.3025 27.2749 24.3403 27.2294C24.3782 27.1826 24.4073 27.1234 24.4273 27.0521L23.9414 25.7773Z" fill="#0054A6"/>
<path d="M25.5176 25.7753H25.8274V25.9491C25.9388 25.8121 26.0714 25.7441 26.2252 25.7441C26.3065 25.7441 26.3779 25.7608 26.438 25.7942C26.4982 25.8277 26.5472 25.8789 26.5862 25.9469C26.642 25.8789 26.7032 25.8277 26.7668 25.7942C26.8313 25.7608 26.9005 25.7441 26.974 25.7441C27.0676 25.7441 27.1467 25.7631 27.2114 25.8009C27.2761 25.8388 27.325 25.8945 27.3562 25.9681C27.3796 26.0227 27.3908 26.1107 27.3908 26.2322V27.0467H27.0531V26.3192C27.0531 26.1932 27.0419 26.1107 27.0185 26.0739C26.9873 26.026 26.9395 26.0015 26.8748 26.0015C26.828 26.0015 26.7835 26.0159 26.7422 26.045C26.701 26.0739 26.6709 26.1163 26.653 26.1721C26.6353 26.2277 26.6252 26.3158 26.6252 26.435V27.0467H26.2876V26.3492C26.2876 26.2255 26.282 26.1453 26.2697 26.1095C26.2575 26.0739 26.2396 26.0473 26.2141 26.0294C26.1884 26.0115 26.1549 26.0026 26.1115 26.0026C26.0602 26.0026 26.0134 26.0171 25.9711 26.045C25.9299 26.0728 25.8998 26.1129 25.8819 26.1664C25.8641 26.2189 25.8553 26.3068 25.8553 26.4293V27.048H25.5176V25.7753Z" fill="#0054A6"/>
<path d="M28.5247 26.6467L28.859 26.7025C28.8156 26.825 28.7476 26.9186 28.654 26.9821C28.5604 27.0467 28.4446 27.0779 28.304 27.0779C28.0824 27.0779 27.9185 27.0056 27.8116 26.8608C27.7279 26.7447 27.6855 26.5977 27.6855 26.4205C27.6855 26.2088 27.7414 26.0439 27.8516 25.9235C27.9619 25.8032 28.1012 25.7441 28.2707 25.7441C28.46 25.7441 28.6105 25.8065 28.7197 25.9324C28.8289 26.0583 28.8824 26.2511 28.8768 26.5096H28.031C28.0333 26.6099 28.0612 26.6879 28.1135 26.7436C28.1659 26.7994 28.2305 26.8273 28.3097 26.8273C28.3631 26.8273 28.4077 26.8127 28.4434 26.7849C28.4802 26.7559 28.5058 26.7103 28.5247 26.6467ZM28.5426 26.3057C28.5403 26.2065 28.5146 26.1319 28.4668 26.0795C28.4189 26.0283 28.3598 26.0026 28.2907 26.0026C28.2172 26.0026 28.1558 26.0294 28.108 26.084C28.0601 26.1386 28.0367 26.2121 28.0367 26.3057H28.5426Z" fill="#0054A6"/>
<path d="M30.0557 27.0457V26.396C30.0557 26.2589 30.0489 26.1698 30.0344 26.1297C30.0199 26.0896 29.9966 26.0584 29.9642 26.035C29.9319 26.0127 29.8929 26.0015 29.8483 26.0015C29.7903 26.0015 29.738 26.0171 29.6923 26.0496C29.6467 26.0818 29.6143 26.1242 29.5976 26.1765C29.5809 26.229 29.5719 26.327 29.5719 26.4695V27.0469H29.2344V25.7753H29.5475V25.9625C29.6589 25.8177 29.7981 25.7441 29.9665 25.7441C30.0411 25.7441 30.1091 25.7575 30.1704 25.7842C30.2317 25.811 30.2785 25.8455 30.3097 25.8867C30.3409 25.928 30.3632 25.9759 30.3755 26.0283C30.3877 26.0806 30.3944 26.1565 30.3944 26.2545V27.0457H30.0557Z" fill="#0054A6"/>
<path d="M31.38 26.0425H31.1505V26.5562C31.1505 26.6598 31.1528 26.7211 31.1572 26.7378C31.1616 26.7544 31.1717 26.769 31.1861 26.7801C31.2017 26.7913 31.2196 26.7968 31.2419 26.7968C31.2731 26.7968 31.3166 26.7856 31.3745 26.7645L31.4045 27.0253C31.3265 27.0588 31.2386 27.0754 31.1404 27.0754C31.0803 27.0754 31.0257 27.0654 30.9778 27.0453C30.9299 27.0253 30.8943 26.9985 30.8708 26.9662C30.8486 26.9338 30.833 26.8904 30.824 26.8347C30.8174 26.7957 30.8129 26.7166 30.8129 26.5974V26.0414H30.6602V25.7728H30.8129V25.5187L31.1505 25.3203V25.7728H31.38V26.0425Z" fill="#0054A6"/>
<path d="M31.5726 26.6869L31.9101 26.6346C31.9247 26.6991 31.9537 26.7493 31.9972 26.7828C32.0406 26.8161 32.1018 26.8328 32.181 26.8328C32.2679 26.8328 32.3336 26.8173 32.3771 26.7849C32.4061 26.7627 32.4217 26.7326 32.4217 26.6947C32.4217 26.669 32.4139 26.6479 32.3972 26.6312C32.3804 26.6156 32.3426 26.6 32.2835 26.5865C32.0105 26.5264 31.8378 26.4718 31.7642 26.4217C31.6628 26.3525 31.6127 26.2568 31.6127 26.1354C31.6127 26.0249 31.6561 25.9324 31.7442 25.8567C31.8321 25.7821 31.967 25.7441 32.1509 25.7441C32.3347 25.7441 32.4563 25.772 32.5409 25.8289C32.6256 25.8856 32.6846 25.9681 32.717 26.0785L32.4006 26.1375C32.3872 26.0886 32.3604 26.0506 32.3225 26.0239C32.2845 25.9971 32.2289 25.9849 32.1587 25.9849C32.0695 25.9849 32.005 25.9971 31.966 26.0227C31.9403 26.0405 31.927 26.0629 31.927 26.0918C31.927 26.1163 31.9381 26.1364 31.9603 26.1531C31.9904 26.1754 32.0963 26.2077 32.2757 26.2478C32.4563 26.2891 32.5811 26.3392 32.6524 26.3983C32.7226 26.4585 32.7582 26.542 32.7582 26.6502C32.7582 26.7672 32.7092 26.8686 32.6123 26.9521C32.5153 27.0368 32.3703 27.0779 32.1799 27.0779C32.0071 27.0779 31.8701 27.0435 31.7687 26.9732C31.6673 26.9031 31.6015 26.8083 31.5703 26.6879L31.5726 26.6869Z" fill="#0054A6"/>
<path d="M35.465 27.0481H35.0828L34.9312 26.6514H34.2236L34.0787 27.0481H33.7031L34.3829 25.293H34.7563L35.465 27.0481ZM34.8142 26.355L34.5691 25.7042L34.3317 26.355H34.8142Z" fill="#0054A6"/>
<path d="M36.0486 27.048H35.7109V25.7766H36.0241V25.957C36.0775 25.8712 36.1255 25.8156 36.169 25.7865C36.2113 25.7587 36.2603 25.7441 36.3149 25.7441C36.3918 25.7441 36.4654 25.7654 36.5367 25.8078L36.4342 26.1019C36.3773 26.0652 36.3238 26.0473 36.2759 26.0473C36.228 26.0473 36.1878 26.0607 36.1555 26.0863C36.1233 26.112 36.0965 26.1588 36.0775 26.2267C36.0586 26.2947 36.0497 26.4373 36.0497 26.6535V27.0469L36.0486 27.048Z" fill="#0054A6"/>
<path d="M37.4857 26.6467L37.82 26.7025C37.7764 26.825 37.7085 26.9186 37.6149 26.9821C37.5213 27.0467 37.4054 27.0779 37.265 27.0779C37.0432 27.0779 36.8794 27.0056 36.7725 26.8608C36.6888 26.7447 36.6465 26.5977 36.6465 26.4205C36.6465 26.2088 36.7023 26.0439 36.8126 25.9235C36.9228 25.8032 37.0622 25.7441 37.2316 25.7441C37.421 25.7441 37.5704 25.8065 37.6807 25.9324C37.7899 26.0583 37.8422 26.2511 37.8377 26.5096H36.992C36.9941 26.6099 37.0221 26.6879 37.0744 26.7436C37.1269 26.7994 37.1926 26.8273 37.2706 26.8273C37.324 26.8273 37.3687 26.8127 37.4043 26.7849C37.4399 26.7559 37.4667 26.7103 37.4857 26.6467ZM37.5034 26.3057C37.5013 26.2065 37.4756 26.1319 37.4277 26.0795C37.3798 26.0283 37.3206 26.0026 37.2517 26.0026C37.1781 26.0026 37.1168 26.0294 37.0689 26.084C37.021 26.1386 36.9964 26.2121 36.9975 26.3057H37.5034Z" fill="#0054A6"/>
<path d="M38.4357 26.162L38.1326 26.1063C38.1671 25.9837 38.2262 25.8923 38.3097 25.8333C38.3933 25.7743 38.5181 25.7441 38.683 25.7441C38.8335 25.7441 38.9448 25.7619 39.0185 25.7975C39.092 25.8333 39.1432 25.8789 39.1733 25.9335C39.2034 25.9881 39.2178 26.0884 39.2178 26.2355L39.2146 26.6289C39.2146 26.7403 39.2201 26.8239 39.2302 26.8762C39.2414 26.9297 39.2614 26.9866 39.2903 27.0467H38.956C38.9471 27.0244 38.936 26.9921 38.9237 26.9487C38.9182 26.9287 38.9136 26.9164 38.9115 26.9097C38.8535 26.9654 38.7922 27.0077 38.7276 27.0356C38.6619 27.0634 38.5928 27.0779 38.5181 27.0779C38.3878 27.0779 38.2841 27.0423 38.2084 26.971C38.1326 26.8996 38.0957 26.8094 38.0957 26.7013C38.0957 26.63 38.1125 26.5653 38.1471 26.5085C38.1815 26.4518 38.2295 26.4094 38.2919 26.3793C38.3543 26.3492 38.4435 26.3236 38.5594 26.3001C38.7165 26.2712 38.8257 26.2433 38.8859 26.2177V26.1843C38.8859 26.1185 38.8702 26.0717 38.8379 26.0439C38.8056 26.0159 38.7454 26.0026 38.6564 26.0026C38.5961 26.0026 38.5493 26.0149 38.5158 26.0383C38.4825 26.0617 38.4545 26.104 38.4346 26.1631L38.4357 26.162ZM38.8881 26.4373C38.8446 26.4518 38.7766 26.4685 38.6841 26.4885C38.5905 26.5085 38.5304 26.5286 38.5014 26.5475C38.4579 26.5787 38.4357 26.6188 38.4357 26.6668C38.4357 26.7147 38.4534 26.7548 38.488 26.7893C38.5226 26.8239 38.5672 26.8406 38.6218 26.8406C38.6819 26.8406 38.7399 26.8205 38.7945 26.7805C38.8346 26.7503 38.8613 26.7124 38.8748 26.669C38.8836 26.6401 38.8881 26.5855 38.8881 26.5041V26.4373Z" fill="#0054A6"/>
<path d="M13.1391 18.3922H10.8391C10.8391 18.0145 10.7945 17.7615 10.7065 17.6323C10.5694 17.4417 10.1916 17.3458 9.57318 17.3458C8.95472 17.3458 8.57472 17.4004 8.38083 17.5107C8.18693 17.6211 8.09 17.8606 8.09 18.2306C8.09 18.5649 8.1758 18.7856 8.34851 18.8903C8.47221 18.965 8.63491 19.0095 8.83882 19.0229L9.3024 19.0552C10.2964 19.121 10.9171 19.1678 11.1644 19.1945C11.9501 19.2736 12.5206 19.4831 12.8738 19.8219C13.1524 20.086 13.3185 20.4314 13.3708 20.8582C13.402 21.1133 13.4176 21.4021 13.4176 21.723C13.4176 22.4629 13.3475 23.0044 13.2059 23.3476C12.9496 23.9773 12.3746 24.3751 11.4798 24.5422C11.1043 24.6124 10.5315 24.6481 9.75928 24.6481C8.47109 24.6481 7.57405 24.5712 7.06703 24.4174C6.44523 24.2292 6.03515 23.8458 5.83679 23.2708C5.72647 22.9498 5.67188 22.4161 5.67188 21.6694H7.97187C7.97187 21.7531 7.97187 21.8166 7.97187 21.86C7.97187 22.259 8.08665 22.5152 8.31508 22.63C8.47332 22.7091 8.66499 22.7504 8.89009 22.7548H9.73586C10.1671 22.7548 10.4424 22.7325 10.5616 22.688C10.7733 22.6044 10.9115 22.4707 10.9783 22.2858C11.014 22.172 11.0307 22.0238 11.0307 21.8433C11.0307 21.4388 10.8836 21.1926 10.5883 21.1045C10.478 21.0699 9.96542 21.021 9.05055 20.9596C8.31508 20.9073 7.80472 20.8572 7.51945 20.8081C6.76616 20.6677 6.2647 20.378 6.01397 19.9378C5.79334 19.5634 5.68302 18.9983 5.68302 18.2417C5.68302 17.6656 5.74208 17.2043 5.86131 16.8567C5.98055 16.5089 6.17222 16.246 6.43632 16.0654C6.82411 15.788 7.31997 15.6264 7.92395 15.5774C8.42653 15.5339 8.98369 15.5116 9.59658 15.5116C10.5616 15.5116 11.2502 15.5674 11.6592 15.6777C12.6599 15.9462 13.1603 16.6995 13.1603 17.9375C13.1603 18.0389 13.1524 18.1905 13.1379 18.3933L13.1391 18.3922Z" fill="#0054A6"/>
<path d="M23.2598 24.6522V15.4668H27.8654C28.4972 15.4668 28.9785 15.518 29.3107 15.6216C30.0684 15.8589 30.5766 16.3448 30.8372 17.0792C30.9721 17.4648 31.0389 18.0454 31.0389 18.8199C31.0389 19.7514 30.9643 20.4211 30.8172 20.8289C30.5218 21.6346 29.9134 22.0994 28.9953 22.2196C28.8872 22.2375 28.4281 22.2541 27.6169 22.2664L27.2067 22.2798H25.7325V24.6512H23.2608L23.2598 24.6522ZM27.2725 20.1503C27.7606 20.1325 28.0581 20.0946 28.165 20.0367C28.3111 19.9564 28.4091 19.7959 28.4582 19.5541C28.4894 19.3937 28.505 19.1553 28.505 18.8376C28.505 18.4487 28.4737 18.1612 28.4114 17.9729C28.3222 17.71 28.1093 17.5494 27.7718 17.4904C27.7048 17.4815 27.5456 17.477 27.2925 17.477H25.7302V20.1503H27.2725Z" fill="#0054A6"/>
<path d="M36.3052 23.0643H33L32.5554 24.6522H29.998L32.7571 15.4668H36.4856L39.2794 24.6522H36.7754L36.3052 23.0643ZM35.8138 21.2747L34.656 17.2932L33.5316 21.2747H35.8138Z" fill="#0054A6"/>
<path d="M19.8365 16.761C20.8561 16.761 21.7666 17.2311 22.3638 17.9666L22.8965 16.8245C22.0628 16.0367 20.9285 15.5508 19.6782 15.5508C17.7303 15.5508 16.0644 16.7275 15.3803 18.3923H14.3406L13.7266 19.7072H15.0637C15.0537 19.8287 15.047 19.9513 15.047 20.0761C15.047 20.2265 15.0548 20.3759 15.0693 20.5229H14.3974L13.7845 21.8389H15.4115C16.1145 23.4625 17.7605 24.6015 19.6771 24.6015C20.6432 24.6015 21.5402 24.3117 22.2824 23.8169V22.2044C21.684 22.8853 20.8104 23.3154 19.8353 23.3154C18.6954 23.3154 17.6936 22.7283 17.1097 21.8389H20.5162L21.1302 20.5229H16.6093C16.5859 20.3647 16.5737 20.2031 16.5737 20.0382C16.5737 19.9267 16.5793 19.8164 16.5905 19.7072H21.5113L22.1242 18.3923H17.0149C17.5799 17.4173 18.6319 16.761 19.8365 16.761Z" fill="#FFC20E"/>
<path d="M19.8358 16.796C20.8075 16.796 21.7179 17.2305 22.3331 17.9871L22.3731 18.0362L22.3999 17.9793L22.9326 16.8372L22.9448 16.8116L22.9248 16.7915C22.0489 15.9636 20.8956 15.5078 19.6788 15.5078C18.7282 15.5078 17.8134 15.7853 17.0332 16.3112C16.2722 16.8239 15.6872 17.5381 15.3439 18.3739L15.3807 18.3493H14.3165L14.3065 18.3716L13.6936 19.6877L13.668 19.7433H15.0664L15.0274 19.701C15.0163 19.8382 15.0107 19.9585 15.0107 20.0732C15.0107 20.2204 15.0185 20.373 15.0331 20.5246L15.0721 20.4811H14.3756L14.3656 20.5033L13.7516 21.8194L13.7259 21.8752H15.4142L15.3784 21.8518C16.1117 23.5444 17.801 24.6387 19.6809 24.6387C20.6236 24.6387 21.5318 24.3657 22.3086 23.8486L22.3263 23.8374V22.0991L22.2573 22.1782C21.6444 22.8759 20.764 23.2747 19.8403 23.2747C18.7538 23.2747 17.7464 22.7287 17.1481 21.8161L17.1157 21.8773H20.5479L20.5579 21.855L21.1719 20.5391L21.1987 20.4833H16.6154L16.6544 20.5168C16.631 20.3574 16.6187 20.1957 16.6187 20.0376C16.6187 19.9295 16.6243 19.8192 16.6354 19.7111L16.5964 19.7467H21.543L21.5531 19.7244L22.1659 18.4085L22.1927 18.3527H17.0221L17.0555 18.4117C17.6317 17.4177 18.6992 16.8005 19.8424 16.8005L19.8358 16.796ZM17.0155 18.4273H22.1247L22.0891 18.3716L21.4761 19.6877L21.5118 19.6653H16.5553L16.5519 19.701C16.5407 19.8125 16.5351 19.925 16.5351 20.0353C16.5351 20.198 16.5475 20.3629 16.5707 20.5267L16.5764 20.5602H21.1319L21.0962 20.5045L20.4822 21.8206L20.5178 21.7982H17.0377L17.0779 21.8596C17.6918 22.7956 18.7226 23.3538 19.8358 23.3538C20.7819 23.3538 21.6846 22.9448 22.313 22.2306L22.2439 22.2049V23.8174L22.2618 23.7851C21.4985 24.2932 20.6058 24.5617 19.6788 24.5617C17.83 24.5617 16.1697 23.4864 15.4486 21.8227L15.4387 21.7993H13.7861L13.8217 21.8562L14.4346 20.5402L14.399 20.5636H15.1143L15.1099 20.5201C15.0955 20.3719 15.0877 20.2225 15.0877 20.0766C15.0877 19.9651 15.0932 19.846 15.1043 19.7111L15.1077 19.6687H13.7281L13.7638 19.7244L14.3778 18.4085L14.3421 18.4319H15.4075L15.4175 18.4073C15.7551 17.5849 16.3291 16.884 17.0779 16.3793C17.8444 15.8633 18.7437 15.5903 19.6788 15.5903C20.8755 15.5903 22.0088 16.0382 22.8702 16.8528L22.8613 16.807L22.3286 17.9504L22.3944 17.9426C21.7637 17.1671 20.8309 16.7225 19.8358 16.7225C18.6646 16.7225 17.5714 17.3553 16.9809 18.3739L16.9463 18.4329H17.0155V18.4273Z" fill="#0054A6"/>
<path d="M38.6234 7.39648H6.34752C3.74798 7.39648 1.64062 9.50383 1.64062 12.1034V30.931C1.64062 33.5305 3.74798 35.6379 6.34752 35.6379H38.6234C41.2229 35.6379 43.3303 33.5305 43.3303 30.931V12.1034C43.3303 9.50383 41.2229 7.39648 38.6234 7.39648Z" stroke="#EFEFF3" stroke-width="1.34483"/>
</g>
</g>
<defs>
<clipPath id="clip0_39_5408">
<rect width="43.0345" height="43.0345" fill="white" transform="translate(0.96875)"/>
</clipPath>
<clipPath id="clip1_39_5408">
<rect width="43.0345" height="43.0345" fill="white" transform="translate(0.96875)"/>
</clipPath>
</defs>
</svg>
