<svg width="45" height="44" viewBox="0 0 45 44" fill="none" xmlns="http://www.w3.org/2000/svg">
<path d="M34.2243 29.7362L33.9419 29.7545C33.7586 29.7673 33.5753 29.782 33.3919 29.782C25.0521 29.782 18.2669 22.9858 18.2669 14.6332C18.2645 11.6544 19.1428 8.74135 20.7914 6.26034C20.9327 6.0477 21.012 5.79993 21.0204 5.54478C21.0288 5.28962 20.966 5.03716 20.8391 4.81568C20.7102 4.5964 20.5239 4.41639 20.3004 4.29494C20.0769 4.1735 19.8246 4.11521 19.5704 4.12634C10.1013 4.64517 2.68359 12.4863 2.68359 21.9775C2.68359 31.8463 10.7026 39.8745 20.5586 39.8745C23.5091 39.8752 26.4137 39.1445 29.0126 37.7476C31.6115 36.3508 33.8235 34.3314 35.4508 31.8702C35.5923 31.6573 35.6718 31.4091 35.6801 31.1536C35.6884 30.8981 35.6254 30.6453 35.498 30.4236C35.3706 30.2019 35.1839 30.0202 34.9589 29.8987C34.7339 29.7773 34.4795 29.721 34.2243 29.7362ZM20.5586 37.1245C12.2188 37.1245 5.43359 30.3302 5.43359 21.9775C5.43331 18.5646 6.58689 15.2519 8.70695 12.5773C10.827 9.90276 13.789 8.02353 17.1119 7.24484C16.0586 9.56541 15.5147 12.0847 15.5169 14.6332C15.5169 23.8622 22.5276 31.4815 31.4981 32.4312C30.0885 33.9148 28.3917 35.096 26.511 35.9029C24.6303 36.7097 22.6051 37.1254 20.5586 37.1245ZM40.7253 15.1245H37.9936L41.8253 10.0572C41.9786 9.85415 42.0726 9.61255 42.0968 9.35927C42.1211 9.10599 42.0745 8.85096 41.9624 8.62256C41.8503 8.39415 41.677 8.20133 41.4618 8.06556C41.2467 7.92978 40.998 7.85638 40.7436 7.85351L35.2436 7.79117H35.2253C34.8606 7.78899 34.51 7.93175 34.2506 8.18807C33.9912 8.44439 33.8442 8.79325 33.842 9.15793C33.8398 9.5226 33.9826 9.8732 34.2389 10.1326C34.4952 10.392 34.8441 10.539 35.2088 10.5412L37.9881 10.5723L34.1381 15.669C33.9842 15.8732 33.8902 16.1162 33.8667 16.3708C33.8431 16.6254 33.8909 16.8816 34.0047 17.1105C34.1185 17.3395 34.2939 17.5323 34.5111 17.6672C34.7283 17.8021 34.9787 17.8739 35.2344 17.8745H40.7253C41.0899 17.8745 41.4397 17.7296 41.6975 17.4718C41.9554 17.2139 42.1003 16.8642 42.1003 16.4995C42.1003 16.1348 41.9554 15.7851 41.6975 15.5272C41.4397 15.2694 41.0899 15.1245 40.7253 15.1245Z" fill="#314351"/>
<path d="M26.0586 16.041H27.7086L25.0099 19.286C24.8412 19.4863 24.7333 19.7307 24.699 19.9904C24.6648 20.2501 24.7056 20.5141 24.8167 20.7513C24.9277 20.9885 25.1044 21.1889 25.3258 21.3289C25.5472 21.4688 25.804 21.5424 26.0659 21.541H30.6419C31.0066 21.541 31.3563 21.3962 31.6142 21.1383C31.8721 20.8804 32.0169 20.5307 32.0169 20.166C32.0169 19.8014 31.8721 19.4516 31.6142 19.1938C31.3563 18.9359 31.0066 18.791 30.6419 18.791H28.9993L31.6979 15.546C31.8667 15.3458 31.9746 15.1013 32.0088 14.8417C32.0431 14.582 32.0023 14.318 31.8912 14.0808C31.7801 13.8436 31.6034 13.6432 31.3821 13.5032C31.1607 13.3633 30.9038 13.2896 30.6419 13.291H26.0586C25.6939 13.291 25.3442 13.4359 25.0863 13.6938C24.8285 13.9516 24.6836 14.3014 24.6836 14.666C24.6836 15.0307 24.8285 15.3804 25.0863 15.6383C25.3442 15.8962 25.6939 16.041 26.0586 16.041Z" fill="#314351"/>
</svg>
