<svg width="113" height="21" viewBox="0 0 113 21" fill="none" xmlns="http://www.w3.org/2000/svg">
<g clip-path="url(#clip0_51_7317)">
<mask id="mask0_51_7317" style="mask-type:luminance" maskUnits="userSpaceOnUse" x="0" y="0" width="19" height="19">
<path d="M18.9943 0.0935059H0.523438V18.533H18.9943V0.0935059Z" fill="white"/>
</mask>
<g mask="url(#mask0_51_7317)">
<path d="M18.9461 7.1657C18.8252 6.79231 18.4934 6.52712 18.101 6.4918L12.7699 6.00854L10.6617 1.08272C10.5063 0.721716 10.1523 0.488037 9.75895 0.488037C9.36562 0.488037 9.01162 0.721716 8.85618 1.08356L6.74809 6.00854L1.41605 6.4918C1.02428 6.52797 0.69339 6.79231 0.571772 7.1657C0.450154 7.53907 0.562471 7.9486 0.858836 8.20677L4.88858 11.7349L3.70031 16.9603C3.61335 17.3446 3.76273 17.7418 4.08207 17.9722C4.25372 18.096 4.45453 18.159 4.65705 18.159C4.83165 18.159 5.00485 18.112 5.16029 18.0192L9.75895 15.2754L14.356 18.0192C14.6923 18.2212 15.1163 18.2028 15.435 17.9722C15.7544 17.7411 15.9036 17.3438 15.8168 16.9603L14.6284 11.7349L18.6582 8.20747C18.9546 7.9486 19.0677 7.53978 18.9461 7.1657Z" fill="#FFC329"/>
</g>
<mask id="mask1_51_7317" style="mask-type:luminance" maskUnits="userSpaceOnUse" x="23" y="0" width="20" height="20">
<path d="M42.3654 0.61499H23.8945V19.0545H42.3654V0.61499Z" fill="white"/>
</mask>
<g mask="url(#mask1_51_7317)">
<path d="M42.3173 7.68717C42.1964 7.3138 41.8647 7.04861 41.4721 7.01329L36.141 6.53003L34.0328 1.6042C33.8773 1.2432 33.5235 1.00952 33.1301 1.00952C32.7367 1.00952 32.3828 1.2432 32.2274 1.60504L30.1192 6.53003L24.7872 7.01329C24.3954 7.04944 24.0645 7.3138 23.9428 7.68717C23.8212 8.06056 23.9337 8.47009 24.2299 8.72826L28.2597 12.2564L27.0714 17.4819C26.9845 17.8661 27.1339 18.2633 27.4532 18.4936C27.6249 18.6175 27.8257 18.6805 28.0281 18.6805C28.2028 18.6805 28.376 18.6335 28.5315 18.5407L33.1301 15.7968L37.7271 18.5407C38.0634 18.7427 38.4875 18.7242 38.8061 18.4936C39.1255 18.2626 39.2749 17.8653 39.1879 17.4819L37.9996 12.2564L42.0293 8.72896C42.3257 8.47009 42.4389 8.06127 42.3173 7.68717Z" fill="#FFC329"/>
</g>
<mask id="mask2_51_7317" style="mask-type:luminance" maskUnits="userSpaceOnUse" x="47" y="0" width="19" height="20">
<path d="M65.7326 0.61499H47.2617V19.0545H65.7326V0.61499Z" fill="white"/>
</mask>
<g mask="url(#mask2_51_7317)">
<path d="M65.6844 7.68717C65.5635 7.3138 65.2317 7.04861 64.8392 7.01329L59.508 6.53003L57.4 1.6042C57.2446 1.2432 56.8905 1.00952 56.4972 1.00952C56.1039 1.00952 55.7499 1.2432 55.5945 1.60504L53.4863 6.53003L48.1543 7.01329C47.7626 7.04944 47.4317 7.3138 47.3101 7.68717C47.1884 8.06056 47.3007 8.47009 47.5971 8.72826L51.6268 12.2564L50.4385 17.4819C50.3516 17.8661 50.501 18.2633 50.8204 18.4936C50.9919 18.6175 51.1928 18.6805 51.3953 18.6805C51.5699 18.6805 51.7431 18.6335 51.8985 18.5407L56.4972 15.7968L61.0941 18.5407C61.4306 18.7427 61.8546 18.7242 62.1733 18.4936C62.4927 18.2626 62.6419 17.8653 62.555 17.4819L61.3667 12.2564L65.3965 8.72896C65.6929 8.47009 65.806 8.06127 65.6844 7.68717Z" fill="#FFC329"/>
</g>
<mask id="mask3_51_7317" style="mask-type:luminance" maskUnits="userSpaceOnUse" x="70" y="0" width="20" height="20">
<path d="M89.1037 0.61499H70.6328V19.0545H89.1037V0.61499Z" fill="white"/>
</mask>
<g mask="url(#mask3_51_7317)">
<path d="M89.0555 7.68717C88.9346 7.3138 88.6028 7.04861 88.2104 7.01329L82.8792 6.53003L80.7711 1.6042C80.6156 1.2432 80.2616 1.00952 79.8684 1.00952C79.475 1.00952 79.121 1.2432 78.9656 1.60504L76.8575 6.53003L71.5255 7.01329C71.1337 7.04944 70.8028 7.3138 70.6811 7.68717C70.5595 8.06056 70.6718 8.47009 70.9682 8.72826L74.998 12.2564L73.8097 17.4819C73.7228 17.8661 73.8722 18.2633 74.1915 18.4936C74.3632 18.6175 74.564 18.6805 74.7664 18.6805C74.9411 18.6805 75.1143 18.6335 75.2698 18.5407L79.8684 15.7968L84.4654 18.5407C84.8017 18.7427 85.2258 18.7242 85.5444 18.4936C85.8638 18.2626 86.0132 17.8653 85.9262 17.4819L84.7379 12.2564L88.7676 8.72896C89.064 8.47009 89.1771 8.06127 89.0555 7.68717Z" fill="#FFC329"/>
</g>
<mask id="mask4_51_7317" style="mask-type:luminance" maskUnits="userSpaceOnUse" x="94" y="0" width="19" height="20">
<path d="M112.479 0.61499H94.0078V19.0545H112.479V0.61499Z" fill="white"/>
</mask>
<g mask="url(#mask4_51_7317)">
<path d="M112.43 7.68717C112.31 7.3138 111.978 7.04861 111.585 7.01329L106.254 6.53003L104.146 1.6042C103.991 1.2432 103.637 1.00952 103.243 1.00952C102.85 1.00952 102.496 1.2432 102.341 1.60504L100.232 6.53003L94.9004 7.01329C94.5087 7.04944 94.1778 7.3138 94.0561 7.68717C93.9345 8.06056 94.0468 8.47009 94.3432 8.72826L98.3729 12.2564L97.1846 17.4819C97.0977 17.8661 97.2471 18.2633 97.5665 18.4936C97.738 18.6175 97.9388 18.6805 98.1414 18.6805C98.316 18.6805 98.4892 18.6335 98.6446 18.5407L103.243 15.7968L107.84 18.5407C108.177 18.7427 108.601 18.7242 108.919 18.4936C109.239 18.2626 109.388 17.8653 109.301 17.4819L108.113 12.2564L112.143 8.72896C112.439 8.47009 112.552 8.06127 112.43 7.68717Z" fill="#FFC329"/>
</g>
</g>
<defs>
<clipPath id="clip0_51_7317">
<rect width="112" height="20" fill="white" transform="translate(0.5 0.0935059)"/>
</clipPath>
</defs>
</svg>
