<svg width="45" height="44" viewBox="0 0 45 44" fill="none" xmlns="http://www.w3.org/2000/svg">
<path d="M22.5013 2.29102C14.6675 2.29102 8.29297 8.66552 8.29297 16.4993C8.29297 24.3332 14.6675 30.7077 22.5013 30.7077C30.3351 30.7077 36.7096 24.3332 36.7096 16.4993C36.7096 8.66552 30.3351 2.29102 22.5013 2.29102ZM22.5013 27.9577C19.4634 27.9543 16.5509 26.746 14.4028 24.5979C12.2547 22.4497 11.0464 19.5372 11.043 16.4993C11.0464 13.4615 12.2547 10.549 14.4028 8.40084C16.5509 6.25272 19.4634 5.04441 22.5013 5.04102C25.5392 5.04441 28.4517 6.25272 30.5998 8.40084C32.7479 10.549 33.9562 13.4615 33.9596 16.4993C33.9562 19.5372 32.7479 22.4497 30.5998 24.5979C28.4517 26.746 25.5392 27.9543 22.5013 27.9577ZM29.8346 31.6243C29.47 31.6243 29.1202 31.7692 28.8624 32.0271C28.6045 32.2849 28.4596 32.6347 28.4596 32.9993V38.107L23.1155 35.4359C22.9247 35.3406 22.7145 35.2911 22.5013 35.2911C22.2881 35.2911 22.0779 35.3406 21.8871 35.4359L16.543 38.107V32.9993C16.543 32.6347 16.3981 32.2849 16.1402 32.0271C15.8824 31.7692 15.5326 31.6243 15.168 31.6243C14.8033 31.6243 14.4536 31.7692 14.1957 32.0271C13.9378 32.2849 13.793 32.6347 13.793 32.9993V40.3327C13.7933 40.5668 13.8534 40.797 13.9676 41.0014C14.0818 41.2058 14.2463 41.3777 14.4455 41.5007C14.6448 41.6237 14.8721 41.6939 15.106 41.7044C15.3399 41.715 15.5726 41.6656 15.7821 41.561L22.5013 38.206L29.2205 41.5647C29.4302 41.6694 29.6633 41.7188 29.8975 41.708C30.1317 41.6973 30.3593 41.6269 30.5586 41.5034C30.758 41.38 30.9224 41.2076 31.0363 41.0027C31.1503 40.7978 31.2099 40.5671 31.2096 40.3327V32.9993C31.2096 32.6347 31.0648 32.2849 30.8069 32.0271C30.549 31.7692 30.1993 31.6243 29.8346 31.6243Z" fill="#314351"/>
<path d="M27.0275 11.8615L20.6658 18.2231L17.9708 15.5281C17.8449 15.393 17.6931 15.2847 17.5245 15.2095C17.3558 15.1344 17.1737 15.094 16.9891 15.0907C16.8045 15.0875 16.6211 15.1214 16.4499 15.1906C16.2787 15.2597 16.1231 15.3627 15.9926 15.4932C15.862 15.6238 15.7591 15.7793 15.6899 15.9505C15.6208 16.1217 15.5868 16.3051 15.5901 16.4898C15.5933 16.6744 15.6337 16.8564 15.7089 17.0251C15.784 17.1938 15.8924 17.3456 16.0275 17.4715L18.893 20.337C19.3806 20.8265 20.0241 21.0703 20.6658 21.0703C21.3075 21.0703 21.9491 20.8265 22.4386 20.337L28.9708 13.8048C29.1059 13.6789 29.2143 13.5271 29.2894 13.3584C29.3646 13.1898 29.405 13.0077 29.4082 12.8231C29.4115 12.6385 29.3775 12.4551 29.3084 12.2839C29.2392 12.1127 29.1363 11.9571 29.0057 11.8266C28.8751 11.696 28.7196 11.5931 28.5484 11.5239C28.3772 11.4547 28.1938 11.4208 28.0092 11.424C27.8246 11.4273 27.6425 11.4677 27.4738 11.5429C27.3052 11.618 27.1534 11.7264 27.0275 11.8615Z" fill="#314351"/>
</svg>
