<svg width="37" height="21" viewBox="0 0 37 21" fill="none" xmlns="http://www.w3.org/2000/svg">
<g clip-path="url(#clip0_51_7802)">
<path d="M15.5935 4.58786C15.5804 3.97574 15.6977 3.36783 15.9376 2.80446C16.1775 2.24109 16.5344 1.73511 16.9848 1.32009C17.4436 0.885469 17.9836 0.545481 18.5739 0.319554C19.1643 0.0936273 19.7934 -0.0138101 20.4253 0.00339207C21.0554 -0.00236021 21.6791 0.130099 22.2525 0.391428C22.8259 0.652758 23.3349 1.0366 23.7437 1.5159C24.6636 2.54696 25.1527 3.89142 25.1101 5.27218C25.0825 6.54569 24.8178 7.80292 24.3295 8.97952C23.7731 10.3841 23.0959 11.7379 22.3054 13.0255C21.4461 14.4341 20.5091 15.7939 19.4987 17.0985C18.4572 18.4478 17.3996 19.7079 16.3261 20.8787L15.0087 19.7569C16.4016 18.1676 17.6207 16.4341 18.6451 14.586C19.557 12.9713 20.161 11.2013 20.4263 9.36613C19.1547 9.29582 17.9467 8.78748 17.0078 7.92756C16.5439 7.50666 16.1771 6.98995 15.9329 6.41327C15.6887 5.83659 15.5729 5.21373 15.5935 4.58786ZM1.63483 4.58786C1.62096 3.97792 1.73542 3.37186 1.97079 2.80894C2.20617 2.24602 2.55722 1.73879 3.0012 1.32009C3.45367 0.884802 3.98839 0.543997 4.57413 0.31758C5.15987 0.0911631 5.78488 -0.0163267 6.41265 0.00139514C7.04279 -0.00435714 7.66653 0.128102 8.23989 0.389431C8.81326 0.650761 9.3223 1.0346 9.73113 1.5139C10.651 2.54496 11.14 3.88942 11.0975 5.27019C11.0699 6.5437 10.8052 7.80092 10.3169 8.97752C9.76034 10.3832 9.08278 11.738 8.29179 13.0265C7.43249 14.4351 6.49547 15.7949 5.48507 17.0995C4.44354 18.4488 3.38603 19.7089 2.31252 20.8797L0.995117 19.7579C2.39008 18.1648 3.61669 16.4319 4.65545 14.587C5.58175 12.9807 6.17908 11.2063 6.41265 9.36713C5.15788 9.28957 3.96839 8.78142 3.04518 7.92856C2.58187 7.50718 2.21576 6.99015 1.97223 6.4133C1.7287 5.83646 1.61358 5.21359 1.63483 4.58786Z" fill="black"/>
</g>
<defs>
<clipPath id="clip0_51_7802">
<rect width="37" height="21" fill="white"/>
</clipPath>
</defs>
</svg>
