<svg width="25" height="24" viewBox="0 0 25 24" fill="none" xmlns="http://www.w3.org/2000/svg">
<path d="M12.8022 24.002C14.4568 24.002 16.0252 23.7861 17.1906 23.412V21.2825C16.3417 21.6279 14.6295 21.8581 12.946 21.8581C7.07554 21.8581 2.91727 18.3041 2.91727 12.0883C2.91727 6.21778 6.85971 2.11706 12.4281 2.11706C17.982 2.11706 21.723 5.55591 21.723 10.7789C21.723 14.0883 20.6439 16.002 19.1187 16.002C18.1403 16.002 17.6511 15.3545 17.6511 14.3904L17.6511 6.41922L15.018 6.41922V8.14584H14.8453C14.2842 6.89404 12.946 6.11706 11.4065 6.11706C8.5 6.11706 6.5 8.51994 6.5 12.0163C6.5 15.671 8.5 18.1171 11.4928 18.1171C13.1763 18.1171 14.4281 17.3257 15.0324 15.8725H15.205C15.464 17.2825 16.8453 18.189 18.5719 18.189C22.0396 18.189 24.1403 15.225 24.1403 10.6638C24.1403 4.27533 19.3345 0.00195312 12.5576 0.00195312C5.44964 0.00195312 0.5 4.85087 0.5 12.002C0.5 19.5559 5.60791 24.002 12.8022 24.002ZM12.054 15.6854C10.4137 15.6854 9.42086 14.3329 9.42086 12.1027C9.42086 9.84368 10.3993 8.50555 12.0827 8.50555C13.7662 8.50555 14.8309 9.88685 14.8309 12.1027C14.8309 14.3041 13.7518 15.6854 12.054 15.6854Z" fill="white" fill-opacity="0.7"/>
</svg>
