<svg width="44" height="44" viewBox="0 0 44 44" fill="none" xmlns="http://www.w3.org/2000/svg">
<g clip-path="url(#clip0_39_5376)">
<path d="M38.2484 7.39648H5.97252C3.37298 7.39648 1.26562 9.50383 1.26562 12.1034V30.931C1.26562 33.5305 3.37298 35.6379 5.97252 35.6379H38.2484C40.8479 35.6379 42.9553 33.5305 42.9553 30.931V12.1034C42.9553 9.50383 40.8479 7.39648 38.2484 7.39648Z" fill="white"/>
<path d="M18.0618 16.2798L13.6602 26.7817H10.7885L8.62235 18.4007C8.49084 17.8844 8.37649 17.6954 7.97655 17.4779C7.32392 17.1237 6.24561 16.7915 5.29688 16.5852L5.36132 16.2798H9.98398C10.5732 16.2798 11.1029 16.6721 11.2367 17.3505L12.3807 23.4276L15.208 16.2798H18.0618ZM29.3142 23.3529C29.3256 20.5811 25.4814 20.4285 25.5078 19.1903C25.516 18.8135 25.8748 18.4128 26.6601 18.3105C27.0495 18.2595 28.122 18.2207 29.3385 18.7805L29.8156 16.5535C29.1619 16.3162 28.3209 16.0879 27.2745 16.0879C24.5892 16.0879 22.6995 17.5153 22.6835 19.5594C22.6661 21.0713 24.0323 21.9149 25.0615 22.4173C26.1205 22.9317 26.4758 23.2624 26.4717 23.7226C26.4642 24.427 25.6272 24.7381 24.845 24.7503C23.4795 24.7713 22.6872 24.3808 22.0556 24.0872L21.5631 26.3879C22.1979 26.6791 23.3696 26.9331 24.5843 26.9459C27.4384 26.9459 29.3054 25.5361 29.3142 23.3529ZM36.4049 26.782H38.9176L36.7243 16.2798H34.4051C33.8837 16.2798 33.4439 16.5835 33.2491 17.0502L29.1724 26.7817H32.0251L32.5916 25.2129H36.0772L36.4049 26.782ZM33.3737 23.0607L34.8036 19.1177L35.6266 23.0607H33.3737ZM21.9437 16.2798L19.6972 26.7817H16.9806L19.2279 16.2798H21.9437Z" fill="#1434CB"/>
<path d="M38.2484 7.39648H5.97252C3.37298 7.39648 1.26562 9.50383 1.26562 12.1034V30.931C1.26562 33.5305 3.37298 35.6379 5.97252 35.6379H38.2484C40.8479 35.6379 42.9553 33.5305 42.9553 30.931V12.1034C42.9553 9.50383 40.8479 7.39648 38.2484 7.39648Z" stroke="#EFEFF3" stroke-width="1.34483"/>
</g>
<defs>
<clipPath id="clip0_39_5376">
<rect width="43.0345" height="43.0345" fill="white" transform="translate(0.59375)"/>
</clipPath>
</defs>
</svg>
